# Blender 5.1.2
# www.blender.org
mtllib waste_bucket.mtl
o Waste_Bucket_Body.001
v 0.000000 0.065000 0.000000
v 0.000000 0.075000 0.200000
v 0.008484 0.064444 0.000000
v 0.009789 0.074358 0.200000
v 0.016823 0.062785 0.000000
v 0.019411 0.072444 0.200000
v 0.024874 0.060052 0.000000
v 0.028701 0.069291 0.200000
v 0.032500 0.056292 0.000000
v 0.037500 0.064952 0.200000
v 0.039569 0.051568 0.000000
v 0.045657 0.059502 0.200000
v 0.045962 0.045962 0.000000
v 0.053033 0.053033 0.200000
v 0.051568 0.039569 0.000000
v 0.059502 0.045657 0.200000
v 0.056292 0.032500 0.000000
v 0.064952 0.037500 0.200000
v 0.060052 0.024874 0.000000
v 0.069291 0.028701 0.200000
v 0.062785 0.016823 0.000000
v 0.072444 0.019411 0.200000
v 0.064444 0.008484 0.000000
v 0.074358 0.009789 0.200000
v 0.065000 0.000000 0.000000
v 0.075000 0.000000 0.200000
v 0.064444 -0.008484 0.000000
v 0.074358 -0.009789 0.200000
v 0.062785 -0.016823 0.000000
v 0.072444 -0.019411 0.200000
v 0.060052 -0.024874 0.000000
v 0.069291 -0.028701 0.200000
v 0.056292 -0.032500 0.000000
v 0.064952 -0.037500 0.200000
v 0.051568 -0.039569 0.000000
v 0.059502 -0.045657 0.200000
v 0.045962 -0.045962 0.000000
v 0.053033 -0.053033 0.200000
v 0.039569 -0.051568 0.000000
v 0.045657 -0.059502 0.200000
v 0.032500 -0.056292 0.000000
v 0.037500 -0.064952 0.200000
v 0.024874 -0.060052 0.000000
v 0.028701 -0.069291 0.200000
v 0.016823 -0.062785 0.000000
v 0.019411 -0.072444 0.200000
v 0.008484 -0.064444 0.000000
v 0.009789 -0.074358 0.200000
v 0.000000 -0.065000 0.000000
v 0.000000 -0.075000 0.200000
v -0.008484 -0.064444 0.000000
v -0.009789 -0.074358 0.200000
v -0.016823 -0.062785 0.000000
v -0.019411 -0.072444 0.200000
v -0.024874 -0.060052 0.000000
v -0.028701 -0.069291 0.200000
v -0.032500 -0.056292 0.000000
v -0.037500 -0.064952 0.200000
v -0.039569 -0.051568 0.000000
v -0.045657 -0.059502 0.200000
v -0.045962 -0.045962 0.000000
v -0.053033 -0.053033 0.200000
v -0.051568 -0.039569 0.000000
v -0.059502 -0.045657 0.200000
v -0.056292 -0.032500 0.000000
v -0.064952 -0.037500 0.200000
v -0.060052 -0.024874 0.000000
v -0.069291 -0.028701 0.200000
v -0.062785 -0.016823 0.000000
v -0.072444 -0.019411 0.200000
v -0.064444 -0.008484 0.000000
v -0.074358 -0.009789 0.200000
v -0.065000 0.000000 0.000000
v -0.075000 0.000000 0.200000
v -0.064444 0.008484 0.000000
v -0.074358 0.009789 0.200000
v -0.062785 0.016823 0.000000
v -0.072444 0.019411 0.200000
v -0.060052 0.024874 0.000000
v -0.069291 0.028701 0.200000
v -0.056292 0.032500 0.000000
v -0.064952 0.037500 0.200000
v -0.051568 0.039569 0.000000
v -0.059502 0.045657 0.200000
v -0.045962 0.045962 0.000000
v -0.053033 0.053033 0.200000
v -0.039569 0.051568 0.000000
v -0.045657 0.059502 0.200000
v -0.032500 0.056292 0.000000
v -0.037500 0.064952 0.200000
v -0.024874 0.060052 0.000000
v -0.028701 0.069291 0.200000
v -0.016823 0.062785 0.000000
v -0.019411 0.072444 0.200000
v -0.008484 0.064444 0.000000
v -0.009789 0.074358 0.200000
vn 0.0653 0.9966 -0.0498
vn 0.1948 0.9796 -0.0498
vn 0.3210 0.9458 -0.0498
vn 0.4417 0.8958 -0.0498
vn 0.5549 0.8304 -0.0498
vn 0.6585 0.7509 -0.0498
vn 0.7509 0.6585 -0.0498
vn 0.8304 0.5549 -0.0498
vn 0.8958 0.4417 -0.0498
vn 0.9458 0.3210 -0.0498
vn 0.9796 0.1948 -0.0498
vn 0.9966 0.0653 -0.0498
vn 0.9966 -0.0653 -0.0498
vn 0.9796 -0.1948 -0.0498
vn 0.9458 -0.3210 -0.0498
vn 0.8958 -0.4417 -0.0498
vn 0.8304 -0.5549 -0.0498
vn 0.7509 -0.6585 -0.0498
vn 0.6585 -0.7509 -0.0498
vn 0.5549 -0.8304 -0.0498
vn 0.4417 -0.8958 -0.0498
vn 0.3210 -0.9458 -0.0498
vn 0.1948 -0.9796 -0.0498
vn 0.0653 -0.9966 -0.0498
vn -0.0653 -0.9966 -0.0498
vn -0.1948 -0.9796 -0.0498
vn -0.3210 -0.9458 -0.0498
vn -0.4417 -0.8958 -0.0498
vn -0.5549 -0.8304 -0.0498
vn -0.6585 -0.7509 -0.0498
vn -0.7509 -0.6585 -0.0498
vn -0.8304 -0.5549 -0.0498
vn -0.8958 -0.4417 -0.0498
vn -0.9458 -0.3210 -0.0498
vn -0.9796 -0.1948 -0.0498
vn -0.9966 -0.0653 -0.0498
vn -0.9966 0.0653 -0.0498
vn -0.9796 0.1948 -0.0498
vn -0.9458 0.3210 -0.0498
vn -0.8958 0.4417 -0.0498
vn -0.8304 0.5549 -0.0498
vn -0.7509 0.6585 -0.0498
vn -0.6585 0.7509 -0.0498
vn -0.5549 0.8304 -0.0498
vn -0.4417 0.8958 -0.0498
vn -0.3210 0.9458 -0.0498
vn -0.0000 -0.0000 1.0000
vn -0.1948 0.9796 -0.0498
vn -0.0653 0.9966 -0.0498
vn -0.0000 -0.0000 -1.0000
vt 1.000000 1.000000
vt 0.979167 0.500000
vt 1.000000 0.500000
vt 0.979167 1.000000
vt 0.958333 0.500000
vt 0.958333 1.000000
vt 0.937500 0.500000
vt 0.937500 1.000000
vt 0.916667 0.500000
vt 0.916667 1.000000
vt 0.895833 0.500000
vt 0.895833 1.000000
vt 0.875000 0.500000
vt 0.875000 1.000000
vt 0.854167 0.500000
vt 0.854167 1.000000
vt 0.833333 0.500000
vt 0.833333 1.000000
vt 0.812500 0.500000
vt 0.812500 1.000000
vt 0.791667 0.500000
vt 0.791667 1.000000
vt 0.770834 0.500000
vt 0.770834 1.000000
vt 0.750000 0.500000
vt 0.750000 1.000000
vt 0.729167 0.500000
vt 0.729167 1.000000
vt 0.708334 0.500000
vt 0.708334 1.000000
vt 0.687500 0.500000
vt 0.687500 1.000000
vt 0.666667 0.500000
vt 0.666667 1.000000
vt 0.645834 0.500000
vt 0.645834 1.000000
vt 0.625000 0.500000
vt 0.625000 1.000000
vt 0.604167 0.500000
vt 0.604167 1.000000
vt 0.583334 0.500000
vt 0.583334 1.000000
vt 0.562500 0.500000
vt 0.562500 1.000000
vt 0.541667 0.500000
vt 0.541667 1.000000
vt 0.520834 0.500000
vt 0.520834 1.000000
vt 0.500000 0.500000
vt 0.500000 1.000000
vt 0.479167 0.500000
vt 0.479167 1.000000
vt 0.458334 0.500000
vt 0.458334 1.000000
vt 0.437500 0.500000
vt 0.437500 1.000000
vt 0.416667 0.500000
vt 0.416667 1.000000
vt 0.395834 0.500000
vt 0.395834 1.000000
vt 0.375000 0.500000
vt 0.375000 1.000000
vt 0.354167 0.500000
vt 0.354167 1.000000
vt 0.333334 0.500000
vt 0.333334 1.000000
vt 0.312500 0.500000
vt 0.312500 1.000000
vt 0.291667 0.500000
vt 0.291667 1.000000
vt 0.270834 0.500000
vt 0.270834 1.000000
vt 0.250000 0.500000
vt 0.250000 1.000000
vt 0.229167 0.500000
vt 0.229167 1.000000
vt 0.208334 0.500000
vt 0.208334 1.000000
vt 0.187500 0.500000
vt 0.187500 1.000000
vt 0.166667 0.500000
vt 0.166667 1.000000
vt 0.145834 0.500000
vt 0.145834 1.000000
vt 0.125000 0.500000
vt 0.125000 1.000000
vt 0.104167 0.500000
vt 0.104167 1.000000
vt 0.083334 0.500000
vt 0.083334 1.000000
vt 0.062500 0.500000
vt 0.062500 1.000000
vt 0.041667 0.500000
vt 0.018178 0.187883
vt 0.419706 0.080294
vt 0.312117 0.481822
vt 0.041667 1.000000
vt 0.020834 0.500000
vt 0.020834 1.000000
vt 0.000000 0.500000
vt 0.971731 0.158156
vt 0.559595 0.103897
vt 0.718674 0.487947
vt 0.281326 0.487947
vt 0.250000 0.490000
vt 0.218674 0.487947
vt 0.187883 0.481822
vt 0.158156 0.471731
vt 0.130000 0.457846
vt 0.103897 0.440405
vt 0.080294 0.419706
vt 0.059595 0.396103
vt 0.042154 0.370000
vt 0.028269 0.341844
vt 0.018178 0.312117
vt 0.012053 0.281326
vt 0.010000 0.250000
vt 0.012053 0.218674
vt 0.028269 0.158156
vt 0.042154 0.130000
vt 0.059595 0.103897
vt 0.080294 0.080294
vt 0.103897 0.059595
vt 0.130000 0.042154
vt 0.158156 0.028269
vt 0.187883 0.018178
vt 0.218674 0.012053
vt 0.250000 0.010000
vt 0.281326 0.012053
vt 0.312117 0.018178
vt 0.341844 0.028269
vt 0.370000 0.042154
vt 0.396103 0.059595
vt 0.440405 0.103897
vt 0.457846 0.130000
vt 0.471731 0.158156
vt 0.481822 0.187883
vt 0.487947 0.218674
vt 0.490000 0.250000
vt 0.487947 0.281326
vt 0.481822 0.312117
vt 0.471731 0.341844
vt 0.457846 0.370000
vt 0.440405 0.396103
vt 0.419706 0.419706
vt 0.396103 0.440405
vt 0.370000 0.457846
vt 0.341844 0.471731
vt 0.000000 1.000000
vt 0.750000 0.490000
vt 0.781326 0.487947
vt 0.812117 0.481822
vt 0.841844 0.471731
vt 0.870000 0.457846
vt 0.896103 0.440405
vt 0.919706 0.419706
vt 0.940405 0.396103
vt 0.957846 0.370000
vt 0.971731 0.341844
vt 0.981822 0.312117
vt 0.987947 0.281326
vt 0.990000 0.250000
vt 0.987947 0.218674
vt 0.981822 0.187883
vt 0.957846 0.130000
vt 0.940405 0.103897
vt 0.919706 0.080294
vt 0.896103 0.059595
vt 0.870000 0.042154
vt 0.841844 0.028269
vt 0.812117 0.018178
vt 0.781326 0.012053
vt 0.750000 0.010000
vt 0.718674 0.012053
vt 0.687883 0.018178
vt 0.658156 0.028269
vt 0.630000 0.042154
vt 0.603897 0.059595
vt 0.580294 0.080294
vt 0.542154 0.130000
vt 0.528269 0.158156
vt 0.518178 0.187883
vt 0.512053 0.218674
vt 0.510000 0.250000
vt 0.512053 0.281326
vt 0.518178 0.312117
vt 0.528269 0.341844
vt 0.542154 0.370000
vt 0.559595 0.396103
vt 0.580294 0.419706
vt 0.603897 0.440405
vt 0.630000 0.457846
vt 0.658156 0.471731
vt 0.687883 0.481822
s 0
usemtl Mat_Lab_White_Plastic
f 2/1/1 3/2/1 1/3/1
f 4/4/2 5/5/2 3/2/2
f 6/6/3 7/7/3 5/5/3
f 8/8/4 9/9/4 7/7/4
f 10/10/5 11/11/5 9/9/5
f 12/12/6 13/13/6 11/11/6
f 14/14/7 15/15/7 13/13/7
f 16/16/8 17/17/8 15/15/8
f 18/18/9 19/19/9 17/17/9
f 20/20/10 21/21/10 19/19/10
f 22/22/11 23/23/11 21/21/11
f 24/24/12 25/25/12 23/23/12
f 26/26/13 27/27/13 25/25/13
f 28/28/14 29/29/14 27/27/14
f 30/30/15 31/31/15 29/29/15
f 32/32/16 33/33/16 31/31/16
f 34/34/17 35/35/17 33/33/17
f 36/36/18 37/37/18 35/35/18
f 38/38/19 39/39/19 37/37/19
f 40/40/20 41/41/20 39/39/20
f 42/42/21 43/43/21 41/41/21
f 44/44/22 45/45/22 43/43/22
f 46/46/23 47/47/23 45/45/23
f 48/48/24 49/49/24 47/47/24
f 50/50/25 51/51/25 49/49/25
f 52/52/26 53/53/26 51/51/26
f 54/54/27 55/55/27 53/53/27
f 56/56/28 57/57/28 55/55/28
f 58/58/29 59/59/29 57/57/29
f 60/60/30 61/61/30 59/59/30
f 62/62/31 63/63/31 61/61/31
f 64/64/32 65/65/32 63/63/32
f 66/66/33 67/67/33 65/65/33
f 68/68/34 69/69/34 67/67/34
f 70/70/35 71/71/35 69/69/35
f 72/72/36 73/73/36 71/71/36
f 74/74/37 75/75/37 73/73/37
f 76/76/38 77/77/38 75/75/38
f 78/78/39 79/79/39 77/77/39
f 80/80/40 81/81/40 79/79/40
f 82/82/41 83/83/41 81/81/41
f 84/84/42 85/85/42 83/83/42
f 86/86/43 87/87/43 85/85/43
f 88/88/44 89/89/44 87/87/44
f 90/90/45 91/91/45 89/89/45
f 92/92/46 93/93/46 91/91/46
f 70/94/47 38/95/47 6/96/47
f 94/97/48 95/98/48 93/93/48
f 96/99/49 1/100/49 95/98/49
f 31/101/50 63/102/50 95/103/50
f 2/1/1 4/4/1 3/2/1
f 4/4/2 6/6/2 5/5/2
f 6/6/3 8/8/3 7/7/3
f 8/8/4 10/10/4 9/9/4
f 10/10/5 12/12/5 11/11/5
f 12/12/6 14/14/6 13/13/6
f 14/14/7 16/16/7 15/15/7
f 16/16/8 18/18/8 17/17/8
f 18/18/9 20/20/9 19/19/9
f 20/20/10 22/22/10 21/21/10
f 22/22/11 24/24/11 23/23/11
f 24/24/12 26/26/12 25/25/12
f 26/26/13 28/28/13 27/27/13
f 28/28/14 30/30/14 29/29/14
f 30/30/15 32/32/15 31/31/15
f 32/32/16 34/34/16 33/33/16
f 34/34/17 36/36/17 35/35/17
f 36/36/18 38/38/18 37/37/18
f 38/38/19 40/40/19 39/39/19
f 40/40/20 42/42/20 41/41/20
f 42/42/21 44/44/21 43/43/21
f 44/44/22 46/46/22 45/45/22
f 46/46/23 48/48/23 47/47/23
f 48/48/24 50/50/24 49/49/24
f 50/50/25 52/52/25 51/51/25
f 52/52/26 54/54/26 53/53/26
f 54/54/27 56/56/27 55/55/27
f 56/56/28 58/58/28 57/57/28
f 58/58/29 60/60/29 59/59/29
f 60/60/30 62/62/30 61/61/30
f 62/62/31 64/64/31 63/63/31
f 64/64/32 66/66/32 65/65/32
f 66/66/33 68/68/33 67/67/33
f 68/68/34 70/70/34 69/69/34
f 70/70/35 72/72/35 71/71/35
f 72/72/36 74/74/36 73/73/36
f 74/74/37 76/76/37 75/75/37
f 76/76/38 78/78/38 77/77/38
f 78/78/39 80/80/39 79/79/39
f 80/80/40 82/82/40 81/81/40
f 82/82/41 84/84/41 83/83/41
f 84/84/42 86/86/42 85/85/42
f 86/86/43 88/88/43 87/87/43
f 88/88/44 90/90/44 89/89/44
f 90/90/45 92/92/45 91/91/45
f 92/92/46 94/97/46 93/93/46
f 6/96/47 4/104/47 2/105/47
f 2/105/47 96/106/47 94/107/47
f 94/107/47 92/108/47 90/109/47
f 90/109/47 88/110/47 86/111/47
f 86/111/47 84/112/47 82/113/47
f 82/113/47 80/114/47 78/115/47
f 78/115/47 76/116/47 74/117/47
f 74/117/47 72/118/47 70/94/47
f 70/94/47 68/119/47 66/120/47
f 66/120/47 64/121/47 62/122/47
f 62/122/47 60/123/47 58/124/47
f 58/124/47 56/125/47 54/126/47
f 54/126/47 52/127/47 50/128/47
f 50/128/47 48/129/47 46/130/47
f 46/130/47 44/131/47 42/132/47
f 42/132/47 40/133/47 38/95/47
f 38/95/47 36/134/47 34/135/47
f 34/135/47 32/136/47 30/137/47
f 30/137/47 28/138/47 26/139/47
f 26/139/47 24/140/47 22/141/47
f 22/141/47 20/142/47 18/143/47
f 18/143/47 16/144/47 14/145/47
f 14/145/47 12/146/47 10/147/47
f 10/147/47 8/148/47 6/96/47
f 6/96/47 2/105/47 94/107/47
f 94/107/47 90/109/47 86/111/47
f 86/111/47 82/113/47 78/115/47
f 78/115/47 74/117/47 70/94/47
f 70/94/47 66/120/47 62/122/47
f 62/122/47 58/124/47 54/126/47
f 54/126/47 50/128/47 46/130/47
f 46/130/47 42/132/47 38/95/47
f 38/95/47 34/135/47 30/137/47
f 30/137/47 26/139/47 22/141/47
f 22/141/47 18/143/47 14/145/47
f 14/145/47 10/147/47 6/96/47
f 6/96/47 94/107/47 86/111/47
f 86/111/47 78/115/47 70/94/47
f 70/94/47 62/122/47 54/126/47
f 54/126/47 46/130/47 38/95/47
f 38/95/47 30/137/47 22/141/47
f 22/141/47 14/145/47 6/96/47
f 6/96/47 86/111/47 70/94/47
f 70/94/47 54/126/47 38/95/47
f 38/95/47 22/141/47 6/96/47
f 94/97/48 96/99/48 95/98/48
f 96/99/49 2/149/49 1/100/49
f 95/103/50 1/150/50 3/151/50
f 3/151/50 5/152/50 7/153/50
f 7/153/50 9/154/50 11/155/50
f 11/155/50 13/156/50 15/157/50
f 15/157/50 17/158/50 19/159/50
f 19/159/50 21/160/50 23/161/50
f 23/161/50 25/162/50 27/163/50
f 27/163/50 29/164/50 31/101/50
f 31/101/50 33/165/50 35/166/50
f 35/166/50 37/167/50 39/168/50
f 39/168/50 41/169/50 43/170/50
f 43/170/50 45/171/50 47/172/50
f 47/172/50 49/173/50 51/174/50
f 51/174/50 53/175/50 55/176/50
f 55/176/50 57/177/50 59/178/50
f 59/178/50 61/179/50 63/102/50
f 63/102/50 65/180/50 67/181/50
f 67/181/50 69/182/50 71/183/50
f 71/183/50 73/184/50 75/185/50
f 75/185/50 77/186/50 79/187/50
f 79/187/50 81/188/50 83/189/50
f 83/189/50 85/190/50 87/191/50
f 87/191/50 89/192/50 91/193/50
f 91/193/50 93/194/50 95/103/50
f 95/103/50 3/151/50 7/153/50
f 7/153/50 11/155/50 15/157/50
f 15/157/50 19/159/50 23/161/50
f 23/161/50 27/163/50 31/101/50
f 31/101/50 35/166/50 39/168/50
f 39/168/50 43/170/50 47/172/50
f 47/172/50 51/174/50 55/176/50
f 55/176/50 59/178/50 63/102/50
f 63/102/50 67/181/50 71/183/50
f 71/183/50 75/185/50 79/187/50
f 79/187/50 83/189/50 87/191/50
f 87/191/50 91/193/50 95/103/50
f 95/103/50 7/153/50 15/157/50
f 15/157/50 23/161/50 31/101/50
f 31/101/50 39/168/50 47/172/50
f 47/172/50 55/176/50 63/102/50
f 63/102/50 71/183/50 79/187/50
f 79/187/50 87/191/50 95/103/50
f 95/103/50 15/157/50 31/101/50
f 31/101/50 47/172/50 63/102/50
f 63/102/50 79/187/50 95/103/50
o Waste_Bucket_Opening.001
v 0.000000 0.068000 0.197000
v 0.000000 0.068000 0.201000
v 0.008876 0.067418 0.197000
v 0.008876 0.067418 0.201000
v 0.017600 0.065683 0.197000
v 0.017600 0.065683 0.201000
v 0.026022 0.062824 0.197000
v 0.026022 0.062824 0.201000
v 0.034000 0.058890 0.197000
v 0.034000 0.058890 0.201000
v 0.041396 0.053948 0.197000
v 0.041396 0.053948 0.201000
v 0.048083 0.048083 0.197000
v 0.048083 0.048083 0.201000
v 0.053948 0.041396 0.197000
v 0.053948 0.041396 0.201000
v 0.058890 0.034000 0.197000
v 0.058890 0.034000 0.201000
v 0.062824 0.026022 0.197000
v 0.062824 0.026022 0.201000
v 0.065683 0.017600 0.197000
v 0.065683 0.017600 0.201000
v 0.067418 0.008876 0.197000
v 0.067418 0.008876 0.201000
v 0.068000 0.000000 0.197000
v 0.068000 0.000000 0.201000
v 0.067418 -0.008876 0.197000
v 0.067418 -0.008876 0.201000
v 0.065683 -0.017600 0.197000
v 0.065683 -0.017600 0.201000
v 0.062824 -0.026022 0.197000
v 0.062824 -0.026022 0.201000
v 0.058890 -0.034000 0.197000
v 0.058890 -0.034000 0.201000
v 0.053948 -0.041396 0.197000
v 0.053948 -0.041396 0.201000
v 0.048083 -0.048083 0.197000
v 0.048083 -0.048083 0.201000
v 0.041396 -0.053948 0.197000
v 0.041396 -0.053948 0.201000
v 0.034000 -0.058890 0.197000
v 0.034000 -0.058890 0.201000
v 0.026022 -0.062824 0.197000
v 0.026022 -0.062824 0.201000
v 0.017600 -0.065683 0.197000
v 0.017600 -0.065683 0.201000
v 0.008876 -0.067418 0.197000
v 0.008876 -0.067418 0.201000
v 0.000000 -0.068000 0.197000
v 0.000000 -0.068000 0.201000
v -0.008876 -0.067418 0.197000
v -0.008876 -0.067418 0.201000
v -0.017600 -0.065683 0.197000
v -0.017600 -0.065683 0.201000
v -0.026022 -0.062824 0.197000
v -0.026022 -0.062824 0.201000
v -0.034000 -0.058890 0.197000
v -0.034000 -0.058890 0.201000
v -0.041396 -0.053948 0.197000
v -0.041396 -0.053948 0.201000
v -0.048083 -0.048083 0.197000
v -0.048083 -0.048083 0.201000
v -0.053948 -0.041396 0.197000
v -0.053948 -0.041396 0.201000
v -0.058890 -0.034000 0.197000
v -0.058890 -0.034000 0.201000
v -0.062824 -0.026022 0.197000
v -0.062824 -0.026022 0.201000
v -0.065683 -0.017600 0.197000
v -0.065683 -0.017600 0.201000
v -0.067418 -0.008876 0.197000
v -0.067418 -0.008876 0.201000
v -0.068000 0.000000 0.197000
v -0.068000 0.000000 0.201000
v -0.067418 0.008876 0.197000
v -0.067418 0.008876 0.201000
v -0.065683 0.017600 0.197000
v -0.065683 0.017600 0.201000
v -0.062824 0.026022 0.197000
v -0.062824 0.026022 0.201000
v -0.058890 0.034000 0.197000
v -0.058890 0.034000 0.201000
v -0.053948 0.041396 0.197000
v -0.053948 0.041396 0.201000
v -0.048083 0.048083 0.197000
v -0.048083 0.048083 0.201000
v -0.041396 0.053948 0.197000
v -0.041396 0.053948 0.201000
v -0.034000 0.058890 0.197000
v -0.034000 0.058890 0.201000
v -0.026022 0.062824 0.197000
v -0.026022 0.062824 0.201000
v -0.017600 0.065683 0.197000
v -0.017600 0.065683 0.201000
v -0.008876 0.067418 0.197000
v -0.008876 0.067418 0.201000
vn 0.0654 0.9979 -0.0000
vn 0.1951 0.9808 -0.0000
vn 0.3214 0.9469 -0.0000
vn 0.4423 0.8969 -0.0000
vn 0.5556 0.8315 -0.0000
vn 0.6593 0.7518 -0.0000
vn 0.7518 0.6593 -0.0000
vn 0.8315 0.5556 -0.0000
vn 0.8969 0.4423 -0.0000
vn 0.9469 0.3214 -0.0000
vn 0.9808 0.1951 -0.0000
vn 0.9979 0.0654 -0.0000
vn 0.9979 -0.0654 -0.0000
vn 0.9808 -0.1951 -0.0000
vn 0.9469 -0.3214 -0.0000
vn 0.8969 -0.4423 -0.0000
vn 0.8315 -0.5556 -0.0000
vn 0.7518 -0.6593 -0.0000
vn 0.6593 -0.7518 -0.0000
vn 0.5556 -0.8315 -0.0000
vn 0.4423 -0.8969 -0.0000
vn 0.3214 -0.9469 -0.0000
vn 0.1951 -0.9808 -0.0000
vn 0.0654 -0.9979 -0.0000
vn -0.0654 -0.9979 -0.0000
vn -0.1951 -0.9808 -0.0000
vn -0.3214 -0.9469 -0.0000
vn -0.4423 -0.8969 -0.0000
vn -0.5556 -0.8315 -0.0000
vn -0.6593 -0.7518 -0.0000
vn -0.7518 -0.6593 -0.0000
vn -0.8315 -0.5556 -0.0000
vn -0.8969 -0.4423 -0.0000
vn -0.9469 -0.3214 -0.0000
vn -0.9808 -0.1951 -0.0000
vn -0.9979 -0.0654 -0.0000
vn -0.9979 0.0654 -0.0000
vn -0.9808 0.1951 -0.0000
vn -0.9469 0.3214 -0.0000
vn -0.8969 0.4423 -0.0000
vn -0.8315 0.5556 -0.0000
vn -0.7518 0.6593 -0.0000
vn -0.6593 0.7518 -0.0000
vn -0.5556 0.8315 -0.0000
vn -0.4423 0.8969 -0.0000
vn -0.3214 0.9469 -0.0000
vn -0.0000 -0.0000 1.0000
vn -0.1951 0.9808 -0.0000
vn -0.0654 0.9979 -0.0000
vn -0.0000 -0.0000 -1.0000
vt 1.000000 1.000000
vt 0.979167 0.500000
vt 1.000000 0.500000
vt 0.979167 1.000000
vt 0.958333 0.500000
vt 0.958333 1.000000
vt 0.937500 0.500000
vt 0.937500 1.000000
vt 0.916667 0.500000
vt 0.916667 1.000000
vt 0.895833 0.500000
vt 0.895833 1.000000
vt 0.875000 0.500000
vt 0.875000 1.000000
vt 0.854167 0.500000
vt 0.854167 1.000000
vt 0.833333 0.500000
vt 0.833333 1.000000
vt 0.812500 0.500000
vt 0.812500 1.000000
vt 0.791667 0.500000
vt 0.791667 1.000000
vt 0.770834 0.500000
vt 0.770834 1.000000
vt 0.750000 0.500000
vt 0.750000 1.000000
vt 0.729167 0.500000
vt 0.729167 1.000000
vt 0.708334 0.500000
vt 0.708334 1.000000
vt 0.687500 0.500000
vt 0.687500 1.000000
vt 0.666667 0.500000
vt 0.666667 1.000000
vt 0.645834 0.500000
vt 0.645834 1.000000
vt 0.625000 0.500000
vt 0.625000 1.000000
vt 0.604167 0.500000
vt 0.604167 1.000000
vt 0.583334 0.500000
vt 0.583334 1.000000
vt 0.562500 0.500000
vt 0.562500 1.000000
vt 0.541667 0.500000
vt 0.541667 1.000000
vt 0.520834 0.500000
vt 0.520834 1.000000
vt 0.500000 0.500000
vt 0.500000 1.000000
vt 0.479167 0.500000
vt 0.479167 1.000000
vt 0.458334 0.500000
vt 0.458334 1.000000
vt 0.437500 0.500000
vt 0.437500 1.000000
vt 0.416667 0.500000
vt 0.416667 1.000000
vt 0.395834 0.500000
vt 0.395834 1.000000
vt 0.375000 0.500000
vt 0.375000 1.000000
vt 0.354167 0.500000
vt 0.354167 1.000000
vt 0.333334 0.500000
vt 0.333334 1.000000
vt 0.312500 0.500000
vt 0.312500 1.000000
vt 0.291667 0.500000
vt 0.291667 1.000000
vt 0.270834 0.500000
vt 0.270834 1.000000
vt 0.250000 0.500000
vt 0.250000 1.000000
vt 0.229167 0.500000
vt 0.229167 1.000000
vt 0.208334 0.500000
vt 0.208334 1.000000
vt 0.187500 0.500000
vt 0.187500 1.000000
vt 0.166667 0.500000
vt 0.166667 1.000000
vt 0.145834 0.500000
vt 0.145834 1.000000
vt 0.125000 0.500000
vt 0.125000 1.000000
vt 0.104167 0.500000
vt 0.104167 1.000000
vt 0.083334 0.500000
vt 0.083334 1.000000
vt 0.062500 0.500000
vt 0.062500 1.000000
vt 0.041667 0.500000
vt 0.018178 0.187883
vt 0.419706 0.080294
vt 0.312117 0.481822
vt 0.041667 1.000000
vt 0.020834 0.500000
vt 0.020834 1.000000
vt 0.000000 0.500000
vt 0.971731 0.158156
vt 0.559595 0.103897
vt 0.718674 0.487947
vt 0.281326 0.487947
vt 0.250000 0.490000
vt 0.218674 0.487947
vt 0.187883 0.481822
vt 0.158156 0.471731
vt 0.130000 0.457846
vt 0.103897 0.440405
vt 0.080294 0.419706
vt 0.059595 0.396103
vt 0.042154 0.370000
vt 0.028269 0.341844
vt 0.018178 0.312117
vt 0.012053 0.281326
vt 0.010000 0.250000
vt 0.012053 0.218674
vt 0.028269 0.158156
vt 0.042154 0.130000
vt 0.059595 0.103897
vt 0.080294 0.080294
vt 0.103897 0.059595
vt 0.130000 0.042154
vt 0.158156 0.028269
vt 0.187883 0.018178
vt 0.218674 0.012053
vt 0.250000 0.010000
vt 0.281326 0.012053
vt 0.312117 0.018178
vt 0.341844 0.028269
vt 0.370000 0.042154
vt 0.396103 0.059595
vt 0.440405 0.103897
vt 0.457846 0.130000
vt 0.471731 0.158156
vt 0.481822 0.187883
vt 0.487947 0.218674
vt 0.490000 0.250000
vt 0.487947 0.281326
vt 0.481822 0.312117
vt 0.471731 0.341844
vt 0.457846 0.370000
vt 0.440405 0.396103
vt 0.419706 0.419706
vt 0.396103 0.440405
vt 0.370000 0.457846
vt 0.341844 0.471731
vt 0.000000 1.000000
vt 0.750000 0.490000
vt 0.781326 0.487947
vt 0.812117 0.481822
vt 0.841844 0.471731
vt 0.870000 0.457846
vt 0.896103 0.440405
vt 0.919706 0.419706
vt 0.940405 0.396103
vt 0.957846 0.370000
vt 0.971731 0.341844
vt 0.981822 0.312117
vt 0.987947 0.281326
vt 0.990000 0.250000
vt 0.987947 0.218674
vt 0.981822 0.187883
vt 0.957846 0.130000
vt 0.940405 0.103897
vt 0.919706 0.080294
vt 0.896103 0.059595
vt 0.870000 0.042154
vt 0.841844 0.028269
vt 0.812117 0.018178
vt 0.781326 0.012053
vt 0.750000 0.010000
vt 0.718674 0.012053
vt 0.687883 0.018178
vt 0.658156 0.028269
vt 0.630000 0.042154
vt 0.603897 0.059595
vt 0.580294 0.080294
vt 0.542154 0.130000
vt 0.528269 0.158156
vt 0.518178 0.187883
vt 0.512053 0.218674
vt 0.510000 0.250000
vt 0.512053 0.281326
vt 0.518178 0.312117
vt 0.528269 0.341844
vt 0.542154 0.370000
vt 0.559595 0.396103
vt 0.580294 0.419706
vt 0.603897 0.440405
vt 0.630000 0.457846
vt 0.658156 0.471731
vt 0.687883 0.481822
s 0
usemtl Mat_Lab_Dark_Plastic
f 98/195/51 99/196/51 97/197/51
f 100/198/52 101/199/52 99/196/52
f 102/200/53 103/201/53 101/199/53
f 104/202/54 105/203/54 103/201/54
f 106/204/55 107/205/55 105/203/55
f 108/206/56 109/207/56 107/205/56
f 110/208/57 111/209/57 109/207/57
f 112/210/58 113/211/58 111/209/58
f 114/212/59 115/213/59 113/211/59
f 116/214/60 117/215/60 115/213/60
f 118/216/61 119/217/61 117/215/61
f 120/218/62 121/219/62 119/217/62
f 122/220/63 123/221/63 121/219/63
f 124/222/64 125/223/64 123/221/64
f 126/224/65 127/225/65 125/223/65
f 128/226/66 129/227/66 127/225/66
f 130/228/67 131/229/67 129/227/67
f 132/230/68 133/231/68 131/229/68
f 134/232/69 135/233/69 133/231/69
f 136/234/70 137/235/70 135/233/70
f 138/236/71 139/237/71 137/235/71
f 140/238/72 141/239/72 139/237/72
f 142/240/73 143/241/73 141/239/73
f 144/242/74 145/243/74 143/241/74
f 146/244/75 147/245/75 145/243/75
f 148/246/76 149/247/76 147/245/76
f 150/248/77 151/249/77 149/247/77
f 152/250/78 153/251/78 151/249/78
f 154/252/79 155/253/79 153/251/79
f 156/254/80 157/255/80 155/253/80
f 158/256/81 159/257/81 157/255/81
f 160/258/82 161/259/82 159/257/82
f 162/260/83 163/261/83 161/259/83
f 164/262/84 165/263/84 163/261/84
f 166/264/85 167/265/85 165/263/85
f 168/266/86 169/267/86 167/265/86
f 170/268/87 171/269/87 169/267/87
f 172/270/88 173/271/88 171/269/88
f 174/272/89 175/273/89 173/271/89
f 176/274/90 177/275/90 175/273/90
f 178/276/91 179/277/91 177/275/91
f 180/278/92 181/279/92 179/277/92
f 182/280/93 183/281/93 181/279/93
f 184/282/94 185/283/94 183/281/94
f 186/284/95 187/285/95 185/283/95
f 188/286/96 189/287/96 187/285/96
f 166/288/97 134/289/97 102/290/97
f 190/291/98 191/292/98 189/287/98
f 192/293/99 97/294/99 191/292/99
f 127/295/100 159/296/100 191/297/100
f 98/195/51 100/198/51 99/196/51
f 100/198/52 102/200/52 101/199/52
f 102/200/53 104/202/53 103/201/53
f 104/202/54 106/204/54 105/203/54
f 106/204/55 108/206/55 107/205/55
f 108/206/56 110/208/56 109/207/56
f 110/208/57 112/210/57 111/209/57
f 112/210/58 114/212/58 113/211/58
f 114/212/59 116/214/59 115/213/59
f 116/214/60 118/216/60 117/215/60
f 118/216/61 120/218/61 119/217/61
f 120/218/62 122/220/62 121/219/62
f 122/220/63 124/222/63 123/221/63
f 124/222/64 126/224/64 125/223/64
f 126/224/65 128/226/65 127/225/65
f 128/226/66 130/228/66 129/227/66
f 130/228/67 132/230/67 131/229/67
f 132/230/68 134/232/68 133/231/68
f 134/232/69 136/234/69 135/233/69
f 136/234/70 138/236/70 137/235/70
f 138/236/71 140/238/71 139/237/71
f 140/238/72 142/240/72 141/239/72
f 142/240/73 144/242/73 143/241/73
f 144/242/74 146/244/74 145/243/74
f 146/244/75 148/246/75 147/245/75
f 148/246/76 150/248/76 149/247/76
f 150/248/77 152/250/77 151/249/77
f 152/250/78 154/252/78 153/251/78
f 154/252/79 156/254/79 155/253/79
f 156/254/80 158/256/80 157/255/80
f 158/256/81 160/258/81 159/257/81
f 160/258/82 162/260/82 161/259/82
f 162/260/83 164/262/83 163/261/83
f 164/262/84 166/264/84 165/263/84
f 166/264/85 168/266/85 167/265/85
f 168/266/86 170/268/86 169/267/86
f 170/268/87 172/270/87 171/269/87
f 172/270/88 174/272/88 173/271/88
f 174/272/89 176/274/89 175/273/89
f 176/274/90 178/276/90 177/275/90
f 178/276/91 180/278/91 179/277/91
f 180/278/92 182/280/92 181/279/92
f 182/280/93 184/282/93 183/281/93
f 184/282/94 186/284/94 185/283/94
f 186/284/95 188/286/95 187/285/95
f 188/286/96 190/291/96 189/287/96
f 102/290/97 100/298/97 98/299/97
f 98/299/97 192/300/97 190/301/97
f 190/301/97 188/302/97 186/303/97
f 186/303/97 184/304/97 182/305/97
f 182/305/97 180/306/97 178/307/97
f 178/307/97 176/308/97 174/309/97
f 174/309/97 172/310/97 170/311/97
f 170/311/97 168/312/97 166/288/97
f 166/288/97 164/313/97 162/314/97
f 162/314/97 160/315/97 158/316/97
f 158/316/97 156/317/97 154/318/97
f 154/318/97 152/319/97 150/320/97
f 150/320/97 148/321/97 146/322/97
f 146/322/97 144/323/97 142/324/97
f 142/324/97 140/325/97 138/326/97
f 138/326/97 136/327/97 134/289/97
f 134/289/97 132/328/97 130/329/97
f 130/329/97 128/330/97 126/331/97
f 126/331/97 124/332/97 122/333/97
f 122/333/97 120/334/97 118/335/97
f 118/335/97 116/336/97 114/337/97
f 114/337/97 112/338/97 110/339/97
f 110/339/97 108/340/97 106/341/97
f 106/341/97 104/342/97 102/290/97
f 102/290/97 98/299/97 190/301/97
f 190/301/97 186/303/97 182/305/97
f 182/305/97 178/307/97 174/309/97
f 174/309/97 170/311/97 166/288/97
f 166/288/97 162/314/97 158/316/97
f 158/316/97 154/318/97 150/320/97
f 150/320/97 146/322/97 142/324/97
f 142/324/97 138/326/97 134/289/97
f 134/289/97 130/329/97 126/331/97
f 126/331/97 122/333/97 118/335/97
f 118/335/97 114/337/97 110/339/97
f 110/339/97 106/341/97 102/290/97
f 102/290/97 190/301/97 182/305/97
f 182/305/97 174/309/97 166/288/97
f 166/288/97 158/316/97 150/320/97
f 150/320/97 142/324/97 134/289/97
f 134/289/97 126/331/97 118/335/97
f 118/335/97 110/339/97 102/290/97
f 102/290/97 182/305/97 166/288/97
f 166/288/97 150/320/97 134/289/97
f 134/289/97 118/335/97 102/290/97
f 190/291/98 192/293/98 191/292/98
f 192/293/99 98/343/99 97/294/99
f 191/297/100 97/344/100 99/345/100
f 99/345/100 101/346/100 103/347/100
f 103/347/100 105/348/100 107/349/100
f 107/349/100 109/350/100 111/351/100
f 111/351/100 113/352/100 115/353/100
f 115/353/100 117/354/100 119/355/100
f 119/355/100 121/356/100 123/357/100
f 123/357/100 125/358/100 127/295/100
f 127/295/100 129/359/100 131/360/100
f 131/360/100 133/361/100 135/362/100
f 135/362/100 137/363/100 139/364/100
f 139/364/100 141/365/100 143/366/100
f 143/366/100 145/367/100 147/368/100
f 147/368/100 149/369/100 151/370/100
f 151/370/100 153/371/100 155/372/100
f 155/372/100 157/373/100 159/296/100
f 159/296/100 161/374/100 163/375/100
f 163/375/100 165/376/100 167/377/100
f 167/377/100 169/378/100 171/379/100
f 171/379/100 173/380/100 175/381/100
f 175/381/100 177/382/100 179/383/100
f 179/383/100 181/384/100 183/385/100
f 183/385/100 185/386/100 187/387/100
f 187/387/100 189/388/100 191/297/100
f 191/297/100 99/345/100 103/347/100
f 103/347/100 107/349/100 111/351/100
f 111/351/100 115/353/100 119/355/100
f 119/355/100 123/357/100 127/295/100
f 127/295/100 131/360/100 135/362/100
f 135/362/100 139/364/100 143/366/100
f 143/366/100 147/368/100 151/370/100
f 151/370/100 155/372/100 159/296/100
f 159/296/100 163/375/100 167/377/100
f 167/377/100 171/379/100 175/381/100
f 175/381/100 179/383/100 183/385/100
f 183/385/100 187/387/100 191/297/100
f 191/297/100 103/347/100 111/351/100
f 111/351/100 119/355/100 127/295/100
f 127/295/100 135/362/100 143/366/100
f 143/366/100 151/370/100 159/296/100
f 159/296/100 167/377/100 175/381/100
f 175/381/100 183/385/100 191/297/100
f 191/297/100 111/351/100 127/295/100
f 127/295/100 143/366/100 159/296/100
f 159/296/100 175/381/100 191/297/100
o Waste_Bucket_Rim.001
v 0.078500 0.000000 0.200000
v 0.077736 0.000000 0.202351
v 0.075736 0.000000 0.203804
v 0.073264 0.000000 0.203804
v 0.071264 0.000000 0.202351
v 0.070500 0.000000 0.200000
v 0.071264 0.000000 0.197649
v 0.073264 0.000000 0.196196
v 0.075736 0.000000 0.196196
v 0.077736 0.000000 0.197649
v 0.077828 0.010246 0.200000
v 0.077071 0.010147 0.202351
v 0.075088 0.009886 0.203804
v 0.072637 0.009563 0.203804
v 0.070654 0.009302 0.202351
v 0.069897 0.009202 0.200000
v 0.070654 0.009302 0.197649
v 0.072637 0.009563 0.196196
v 0.075088 0.009886 0.196196
v 0.077071 0.010147 0.197649
v 0.075825 0.020317 0.200000
v 0.075087 0.020120 0.202351
v 0.073155 0.019602 0.203804
v 0.070768 0.018962 0.203804
v 0.068836 0.018444 0.202351
v 0.068098 0.018247 0.200000
v 0.068836 0.018444 0.197649
v 0.070768 0.018962 0.196196
v 0.073155 0.019602 0.196196
v 0.075087 0.020120 0.197649
v 0.072525 0.030041 0.200000
v 0.071819 0.029748 0.202351
v 0.069971 0.028983 0.203804
v 0.067687 0.028037 0.203804
v 0.065839 0.027272 0.202351
v 0.065134 0.026979 0.200000
v 0.065839 0.027272 0.197649
v 0.067687 0.028037 0.196196
v 0.069971 0.028983 0.196196
v 0.071819 0.029748 0.197649
v 0.067983 0.039250 0.200000
v 0.067321 0.038868 0.202351
v 0.065589 0.037868 0.203804
v 0.063448 0.036632 0.203804
v 0.061716 0.035632 0.202351
v 0.061055 0.035250 0.200000
v 0.061716 0.035632 0.197649
v 0.063448 0.036632 0.196196
v 0.065589 0.037868 0.196196
v 0.067321 0.038868 0.197649
v 0.062278 0.047788 0.200000
v 0.061672 0.047323 0.202351
v 0.060085 0.046105 0.203804
v 0.058124 0.044600 0.203804
v 0.056537 0.043383 0.202351
v 0.055931 0.042918 0.200000
v 0.056537 0.043383 0.197649
v 0.058124 0.044600 0.196196
v 0.060085 0.046105 0.196196
v 0.061672 0.047323 0.197649
v 0.055508 0.055508 0.200000
v 0.054968 0.054968 0.202351
v 0.053553 0.053553 0.203804
v 0.051805 0.051805 0.203804
v 0.050391 0.050391 0.202351
v 0.049851 0.049851 0.200000
v 0.050391 0.050391 0.197649
v 0.051805 0.051805 0.196196
v 0.053553 0.053553 0.196196
v 0.054968 0.054968 0.197649
v 0.047788 0.062278 0.200000
v 0.047323 0.061672 0.202351
v 0.046105 0.060085 0.203804
v 0.044600 0.058124 0.203804
v 0.043383 0.056537 0.202351
v 0.042918 0.055931 0.200000
v 0.043383 0.056537 0.197649
v 0.044600 0.058124 0.196196
v 0.046105 0.060085 0.196196
v 0.047323 0.061672 0.197649
v 0.039250 0.067983 0.200000
v 0.038868 0.067321 0.202351
v 0.037868 0.065589 0.203804
v 0.036632 0.063448 0.203804
v 0.035632 0.061716 0.202351
v 0.035250 0.061055 0.200000
v 0.035632 0.061716 0.197649
v 0.036632 0.063448 0.196196
v 0.037868 0.065589 0.196196
v 0.038868 0.067321 0.197649
v 0.030041 0.072525 0.200000
v 0.029748 0.071819 0.202351
v 0.028983 0.069971 0.203804
v 0.028037 0.067687 0.203804
v 0.027272 0.065839 0.202351
v 0.026979 0.065134 0.200000
v 0.027272 0.065839 0.197649
v 0.028037 0.067687 0.196196
v 0.028983 0.069971 0.196196
v 0.029748 0.071819 0.197649
v 0.020317 0.075825 0.200000
v 0.020120 0.075087 0.202351
v 0.019602 0.073155 0.203804
v 0.018962 0.070768 0.203804
v 0.018444 0.068836 0.202351
v 0.018247 0.068098 0.200000
v 0.018444 0.068836 0.197649
v 0.018962 0.070768 0.196196
v 0.019602 0.073155 0.196196
v 0.020120 0.075087 0.197649
v 0.010246 0.077828 0.200000
v 0.010147 0.077071 0.202351
v 0.009886 0.075088 0.203804
v 0.009563 0.072637 0.203804
v 0.009302 0.070654 0.202351
v 0.009202 0.069897 0.200000
v 0.009302 0.070654 0.197649
v 0.009563 0.072637 0.196196
v 0.009886 0.075088 0.196196
v 0.010147 0.077071 0.197649
v 0.000000 0.078500 0.200000
v 0.000000 0.077736 0.202351
v 0.000000 0.075736 0.203804
v 0.000000 0.073264 0.203804
v 0.000000 0.071264 0.202351
v 0.000000 0.070500 0.200000
v 0.000000 0.071264 0.197649
v 0.000000 0.073264 0.196196
v 0.000000 0.075736 0.196196
v 0.000000 0.077736 0.197649
v -0.010246 0.077828 0.200000
v -0.010147 0.077071 0.202351
v -0.009886 0.075088 0.203804
v -0.009563 0.072637 0.203804
v -0.009302 0.070654 0.202351
v -0.009202 0.069897 0.200000
v -0.009302 0.070654 0.197649
v -0.009563 0.072637 0.196196
v -0.009886 0.075088 0.196196
v -0.010147 0.077071 0.197649
v -0.020317 0.075825 0.200000
v -0.020120 0.075087 0.202351
v -0.019602 0.073155 0.203804
v -0.018962 0.070768 0.203804
v -0.018444 0.068836 0.202351
v -0.018247 0.068098 0.200000
v -0.018444 0.068836 0.197649
v -0.018962 0.070768 0.196196
v -0.019602 0.073155 0.196196
v -0.020120 0.075087 0.197649
v -0.030041 0.072525 0.200000
v -0.029748 0.071819 0.202351
v -0.028983 0.069971 0.203804
v -0.028037 0.067687 0.203804
v -0.027272 0.065839 0.202351
v -0.026979 0.065134 0.200000
v -0.027272 0.065839 0.197649
v -0.028037 0.067687 0.196196
v -0.028983 0.069971 0.196196
v -0.029748 0.071819 0.197649
v -0.039250 0.067983 0.200000
v -0.038868 0.067321 0.202351
v -0.037868 0.065589 0.203804
v -0.036632 0.063448 0.203804
v -0.035632 0.061716 0.202351
v -0.035250 0.061055 0.200000
v -0.035632 0.061716 0.197649
v -0.036632 0.063448 0.196196
v -0.037868 0.065589 0.196196
v -0.038868 0.067321 0.197649
v -0.047788 0.062278 0.200000
v -0.047323 0.061672 0.202351
v -0.046105 0.060085 0.203804
v -0.044600 0.058124 0.203804
v -0.043383 0.056537 0.202351
v -0.042918 0.055931 0.200000
v -0.043383 0.056537 0.197649
v -0.044600 0.058124 0.196196
v -0.046105 0.060085 0.196196
v -0.047323 0.061672 0.197649
v -0.055508 0.055508 0.200000
v -0.054968 0.054968 0.202351
v -0.053553 0.053553 0.203804
v -0.051805 0.051805 0.203804
v -0.050391 0.050391 0.202351
v -0.049851 0.049851 0.200000
v -0.050391 0.050391 0.197649
v -0.051805 0.051805 0.196196
v -0.053553 0.053553 0.196196
v -0.054968 0.054968 0.197649
v -0.062278 0.047788 0.200000
v -0.061672 0.047323 0.202351
v -0.060085 0.046105 0.203804
v -0.058124 0.044600 0.203804
v -0.056537 0.043383 0.202351
v -0.055931 0.042918 0.200000
v -0.056537 0.043383 0.197649
v -0.058124 0.044600 0.196196
v -0.060085 0.046105 0.196196
v -0.061672 0.047323 0.197649
v -0.067983 0.039250 0.200000
v -0.067321 0.038868 0.202351
v -0.065589 0.037868 0.203804
v -0.063448 0.036632 0.203804
v -0.061716 0.035632 0.202351
v -0.061055 0.035250 0.200000
v -0.061716 0.035632 0.197649
v -0.063448 0.036632 0.196196
v -0.065589 0.037868 0.196196
v -0.067321 0.038868 0.197649
v -0.072525 0.030041 0.200000
v -0.071819 0.029748 0.202351
v -0.069971 0.028983 0.203804
v -0.067687 0.028037 0.203804
v -0.065839 0.027272 0.202351
v -0.065134 0.026979 0.200000
v -0.065839 0.027272 0.197649
v -0.067687 0.028037 0.196196
v -0.069971 0.028983 0.196196
v -0.071819 0.029748 0.197649
v -0.075825 0.020317 0.200000
v -0.075087 0.020120 0.202351
v -0.073155 0.019602 0.203804
v -0.070768 0.018962 0.203804
v -0.068836 0.018444 0.202351
v -0.068098 0.018247 0.200000
v -0.068836 0.018444 0.197649
v -0.070768 0.018962 0.196196
v -0.073155 0.019602 0.196196
v -0.075087 0.020120 0.197649
v -0.077828 0.010246 0.200000
v -0.077071 0.010147 0.202351
v -0.075088 0.009886 0.203804
v -0.072637 0.009563 0.203804
v -0.070654 0.009302 0.202351
v -0.069897 0.009202 0.200000
v -0.070654 0.009302 0.197649
v -0.072637 0.009563 0.196196
v -0.075088 0.009886 0.196196
v -0.077071 0.010147 0.197649
v -0.078500 0.000000 0.200000
v -0.077736 0.000000 0.202351
v -0.075736 0.000000 0.203804
v -0.073264 0.000000 0.203804
v -0.071264 0.000000 0.202351
v -0.070500 0.000000 0.200000
v -0.071264 0.000000 0.197649
v -0.073264 0.000000 0.196196
v -0.075736 0.000000 0.196196
v -0.077736 0.000000 0.197649
v -0.077828 -0.010246 0.200000
v -0.077071 -0.010147 0.202351
v -0.075088 -0.009886 0.203804
v -0.072637 -0.009563 0.203804
v -0.070654 -0.009302 0.202351
v -0.069897 -0.009202 0.200000
v -0.070654 -0.009302 0.197649
v -0.072637 -0.009563 0.196196
v -0.075088 -0.009886 0.196196
v -0.077071 -0.010147 0.197649
v -0.075825 -0.020317 0.200000
v -0.075087 -0.020120 0.202351
v -0.073155 -0.019602 0.203804
v -0.070768 -0.018962 0.203804
v -0.068836 -0.018444 0.202351
v -0.068098 -0.018247 0.200000
v -0.068836 -0.018444 0.197649
v -0.070768 -0.018962 0.196196
v -0.073155 -0.019602 0.196196
v -0.075087 -0.020120 0.197649
v -0.072525 -0.030041 0.200000
v -0.071819 -0.029748 0.202351
v -0.069971 -0.028983 0.203804
v -0.067687 -0.028037 0.203804
v -0.065839 -0.027271 0.202351
v -0.065134 -0.026979 0.200000
v -0.065839 -0.027271 0.197649
v -0.067687 -0.028037 0.196196
v -0.069971 -0.028983 0.196196
v -0.071819 -0.029748 0.197649
v -0.067983 -0.039250 0.200000
v -0.067321 -0.038868 0.202351
v -0.065589 -0.037868 0.203804
v -0.063448 -0.036632 0.203804
v -0.061716 -0.035632 0.202351
v -0.061055 -0.035250 0.200000
v -0.061716 -0.035632 0.197649
v -0.063448 -0.036632 0.196196
v -0.065589 -0.037868 0.196196
v -0.067321 -0.038868 0.197649
v -0.062278 -0.047788 0.200000
v -0.061672 -0.047323 0.202351
v -0.060085 -0.046105 0.203804
v -0.058124 -0.044600 0.203804
v -0.056537 -0.043383 0.202351
v -0.055931 -0.042918 0.200000
v -0.056537 -0.043383 0.197649
v -0.058124 -0.044600 0.196196
v -0.060085 -0.046105 0.196196
v -0.061672 -0.047323 0.197649
v -0.055508 -0.055508 0.200000
v -0.054968 -0.054968 0.202351
v -0.053553 -0.053553 0.203804
v -0.051805 -0.051805 0.203804
v -0.050391 -0.050391 0.202351
v -0.049851 -0.049851 0.200000
v -0.050391 -0.050391 0.197649
v -0.051805 -0.051805 0.196196
v -0.053553 -0.053553 0.196196
v -0.054968 -0.054968 0.197649
v -0.047788 -0.062278 0.200000
v -0.047323 -0.061672 0.202351
v -0.046105 -0.060085 0.203804
v -0.044600 -0.058124 0.203804
v -0.043383 -0.056537 0.202351
v -0.042918 -0.055931 0.200000
v -0.043383 -0.056537 0.197649
v -0.044600 -0.058124 0.196196
v -0.046105 -0.060085 0.196196
v -0.047323 -0.061672 0.197649
v -0.039250 -0.067983 0.200000
v -0.038868 -0.067321 0.202351
v -0.037868 -0.065589 0.203804
v -0.036632 -0.063448 0.203804
v -0.035632 -0.061716 0.202351
v -0.035250 -0.061055 0.200000
v -0.035632 -0.061716 0.197649
v -0.036632 -0.063448 0.196196
v -0.037868 -0.065589 0.196196
v -0.038868 -0.067321 0.197649
v -0.030041 -0.072525 0.200000
v -0.029748 -0.071819 0.202351
v -0.028983 -0.069971 0.203804
v -0.028037 -0.067687 0.203804
v -0.027272 -0.065839 0.202351
v -0.026979 -0.065134 0.200000
v -0.027272 -0.065839 0.197649
v -0.028037 -0.067687 0.196196
v -0.028983 -0.069971 0.196196
v -0.029748 -0.071819 0.197649
v -0.020317 -0.075825 0.200000
v -0.020120 -0.075087 0.202351
v -0.019602 -0.073155 0.203804
v -0.018962 -0.070768 0.203804
v -0.018444 -0.068836 0.202351
v -0.018247 -0.068098 0.200000
v -0.018444 -0.068836 0.197649
v -0.018962 -0.070768 0.196196
v -0.019602 -0.073155 0.196196
v -0.020120 -0.075087 0.197649
v -0.010246 -0.077828 0.200000
v -0.010147 -0.077071 0.202351
v -0.009886 -0.075088 0.203804
v -0.009563 -0.072637 0.203804
v -0.009302 -0.070654 0.202351
v -0.009202 -0.069897 0.200000
v -0.009302 -0.070654 0.197649
v -0.009563 -0.072637 0.196196
v -0.009886 -0.075088 0.196196
v -0.010147 -0.077071 0.197649
v 0.000000 -0.078500 0.200000
v 0.000000 -0.077736 0.202351
v 0.000000 -0.075736 0.203804
v 0.000000 -0.073264 0.203804
v 0.000000 -0.071264 0.202351
v 0.000000 -0.070500 0.200000
v 0.000000 -0.071264 0.197649
v 0.000000 -0.073264 0.196196
v 0.000000 -0.075736 0.196196
v 0.000000 -0.077736 0.197649
v 0.010246 -0.077828 0.200000
v 0.010147 -0.077071 0.202351
v 0.009886 -0.075088 0.203804
v 0.009563 -0.072637 0.203804
v 0.009302 -0.070654 0.202351
v 0.009202 -0.069897 0.200000
v 0.009302 -0.070654 0.197649
v 0.009563 -0.072637 0.196196
v 0.009886 -0.075088 0.196196
v 0.010147 -0.077071 0.197649
v 0.020317 -0.075825 0.200000
v 0.020120 -0.075087 0.202351
v 0.019602 -0.073155 0.203804
v 0.018962 -0.070768 0.203804
v 0.018444 -0.068836 0.202351
v 0.018247 -0.068098 0.200000
v 0.018444 -0.068836 0.197649
v 0.018962 -0.070768 0.196196
v 0.019602 -0.073155 0.196196
v 0.020120 -0.075087 0.197649
v 0.030041 -0.072525 0.200000
v 0.029748 -0.071819 0.202351
v 0.028983 -0.069971 0.203804
v 0.028037 -0.067687 0.203804
v 0.027272 -0.065839 0.202351
v 0.026979 -0.065134 0.200000
v 0.027272 -0.065839 0.197649
v 0.028037 -0.067687 0.196196
v 0.028983 -0.069971 0.196196
v 0.029748 -0.071819 0.197649
v 0.039250 -0.067983 0.200000
v 0.038868 -0.067321 0.202351
v 0.037868 -0.065589 0.203804
v 0.036632 -0.063448 0.203804
v 0.035632 -0.061716 0.202351
v 0.035250 -0.061055 0.200000
v 0.035632 -0.061716 0.197649
v 0.036632 -0.063448 0.196196
v 0.037868 -0.065589 0.196196
v 0.038868 -0.067321 0.197649
v 0.047788 -0.062278 0.200000
v 0.047323 -0.061672 0.202351
v 0.046105 -0.060085 0.203804
v 0.044600 -0.058124 0.203804
v 0.043383 -0.056537 0.202351
v 0.042918 -0.055931 0.200000
v 0.043383 -0.056537 0.197649
v 0.044600 -0.058124 0.196196
v 0.046105 -0.060085 0.196196
v 0.047323 -0.061672 0.197649
v 0.055508 -0.055508 0.200000
v 0.054968 -0.054968 0.202351
v 0.053553 -0.053554 0.203804
v 0.051805 -0.051805 0.203804
v 0.050391 -0.050391 0.202351
v 0.049851 -0.049851 0.200000
v 0.050391 -0.050391 0.197649
v 0.051805 -0.051805 0.196196
v 0.053553 -0.053554 0.196196
v 0.054968 -0.054968 0.197649
v 0.062278 -0.047788 0.200000
v 0.061672 -0.047323 0.202351
v 0.060085 -0.046105 0.203804
v 0.058124 -0.044600 0.203804
v 0.056537 -0.043383 0.202351
v 0.055931 -0.042918 0.200000
v 0.056537 -0.043383 0.197649
v 0.058124 -0.044600 0.196196
v 0.060085 -0.046105 0.196196
v 0.061672 -0.047323 0.197649
v 0.067983 -0.039250 0.200000
v 0.067321 -0.038868 0.202351
v 0.065589 -0.037868 0.203804
v 0.063448 -0.036632 0.203804
v 0.061716 -0.035632 0.202351
v 0.061055 -0.035250 0.200000
v 0.061716 -0.035632 0.197649
v 0.063448 -0.036632 0.196196
v 0.065589 -0.037868 0.196196
v 0.067321 -0.038868 0.197649
v 0.072525 -0.030041 0.200000
v 0.071819 -0.029748 0.202351
v 0.069971 -0.028983 0.203804
v 0.067687 -0.028037 0.203804
v 0.065839 -0.027272 0.202351
v 0.065133 -0.026979 0.200000
v 0.065839 -0.027272 0.197649
v 0.067687 -0.028037 0.196196
v 0.069971 -0.028983 0.196196
v 0.071819 -0.029748 0.197649
v 0.075825 -0.020317 0.200000
v 0.075087 -0.020120 0.202351
v 0.073155 -0.019602 0.203804
v 0.070768 -0.018962 0.203804
v 0.068836 -0.018444 0.202351
v 0.068098 -0.018247 0.200000
v 0.068836 -0.018444 0.197649
v 0.070768 -0.018962 0.196196
v 0.073155 -0.019602 0.196196
v 0.075087 -0.020120 0.197649
v 0.077828 -0.010246 0.200000
v 0.077071 -0.010147 0.202351
v 0.075088 -0.009886 0.203804
v 0.072637 -0.009563 0.203804
v 0.070654 -0.009302 0.202351
v 0.069897 -0.009202 0.200000
v 0.070654 -0.009302 0.197649
v 0.072637 -0.009563 0.196196
v 0.075088 -0.009886 0.196196
v 0.077071 -0.010147 0.197649
vn 0.9492 0.0622 0.3084
vn 0.5873 0.0385 0.8084
vn -0.0000 -0.0000 1.0000
vn -0.5873 -0.0385 0.8084
vn -0.9492 -0.0622 0.3084
vn -0.9492 -0.0622 -0.3084
vn -0.5873 -0.0385 -0.8084
vn -0.0000 -0.0000 -1.0000
vn 0.5874 0.0385 -0.8084
vn 0.9492 0.0622 -0.3084
vn 0.9330 0.1856 0.3084
vn 0.5773 0.1148 0.8084
vn -0.5773 -0.1148 0.8084
vn -0.9330 -0.1856 0.3084
vn -0.9330 -0.1856 -0.3084
vn -0.5773 -0.1148 -0.8084
vn 0.5773 0.1148 -0.8084
vn 0.9330 0.1856 -0.3084
vn 0.9008 0.3058 0.3084
vn 0.5574 0.1892 0.8084
vn -0.5574 -0.1892 0.8084
vn -0.9008 -0.3058 0.3084
vn -0.9008 -0.3058 -0.3084
vn -0.5574 -0.1892 -0.8084
vn 0.5574 0.1892 -0.8084
vn 0.9008 0.3058 -0.3084
vn 0.8532 0.4207 0.3084
vn 0.5279 0.2603 0.8084
vn -0.5279 -0.2603 0.8084
vn -0.8532 -0.4207 0.3084
vn -0.8532 -0.4207 -0.3084
vn -0.5279 -0.2603 -0.8084
vn 0.5279 0.2603 -0.8084
vn 0.8531 0.4207 -0.3084
vn 0.7909 0.5285 0.3084
vn 0.4894 0.3270 0.8084
vn -0.4894 -0.3270 0.8084
vn -0.7909 -0.5285 0.3084
vn -0.7909 -0.5285 -0.3084
vn -0.4894 -0.3270 -0.8084
vn 0.4894 0.3270 -0.8084
vn 0.7909 0.5285 -0.3084
vn 0.7152 0.6272 0.3084
vn 0.4425 0.3881 0.8084
vn -0.4425 -0.3881 0.8084
vn -0.7152 -0.6272 0.3084
vn -0.7152 -0.6272 -0.3084
vn -0.4425 -0.3881 -0.8084
vn 0.4425 0.3881 -0.8084
vn 0.7152 0.6272 -0.3084
vn 0.6272 0.7152 0.3084
vn 0.3881 0.4425 0.8084
vn -0.3881 -0.4425 0.8084
vn -0.6272 -0.7152 0.3084
vn -0.6272 -0.7152 -0.3084
vn -0.3881 -0.4425 -0.8084
vn 0.3881 0.4425 -0.8084
vn 0.6272 0.7152 -0.3084
vn 0.5285 0.7909 0.3084
vn 0.3270 0.4894 0.8084
vn -0.3270 -0.4894 0.8084
vn -0.5285 -0.7909 0.3084
vn -0.5285 -0.7909 -0.3084
vn -0.3270 -0.4894 -0.8084
vn 0.3270 0.4894 -0.8084
vn 0.5285 0.7909 -0.3084
vn 0.4207 0.8532 0.3084
vn 0.2603 0.5279 0.8084
vn -0.2603 -0.5279 0.8084
vn -0.4207 -0.8532 0.3084
vn -0.4207 -0.8532 -0.3084
vn -0.2603 -0.5279 -0.8084
vn 0.2603 0.5279 -0.8084
vn 0.4207 0.8532 -0.3084
vn 0.3058 0.9008 0.3084
vn 0.1892 0.5574 0.8084
vn -0.1892 -0.5574 0.8084
vn -0.3058 -0.9008 0.3084
vn -0.3058 -0.9008 -0.3084
vn -0.1892 -0.5574 -0.8084
vn 0.1892 0.5574 -0.8084
vn 0.3058 0.9008 -0.3084
vn 0.1856 0.9330 0.3084
vn 0.1148 0.5773 0.8084
vn -0.1148 -0.5773 0.8084
vn -0.1856 -0.9330 0.3084
vn -0.1856 -0.9330 -0.3084
vn -0.1148 -0.5773 -0.8084
vn 0.1148 0.5773 -0.8084
vn 0.1856 0.9330 -0.3084
vn 0.0622 0.9492 0.3084
vn 0.0385 0.5873 0.8084
vn -0.0385 -0.5873 0.8084
vn -0.0622 -0.9492 0.3084
vn -0.0622 -0.9492 -0.3084
vn -0.0385 -0.5873 -0.8084
vn 0.0385 0.5873 -0.8084
vn 0.0622 0.9492 -0.3084
vn -0.0622 0.9492 0.3084
vn -0.0385 0.5873 0.8084
vn 0.0385 -0.5874 0.8084
vn 0.0622 -0.9492 0.3084
vn 0.0622 -0.9492 -0.3084
vn 0.0385 -0.5873 -0.8084
vn -0.0385 0.5874 -0.8084
vn -0.0622 0.9492 -0.3084
vn -0.1856 0.9330 0.3084
vn -0.1148 0.5773 0.8084
vn 0.1148 -0.5773 0.8084
vn 0.1856 -0.9330 0.3084
vn 0.1856 -0.9330 -0.3084
vn 0.1148 -0.5773 -0.8084
vn -0.1148 0.5773 -0.8084
vn -0.1856 0.9330 -0.3084
vn -0.3058 0.9008 0.3084
vn -0.1892 0.5574 0.8084
vn 0.1892 -0.5574 0.8084
vn 0.3058 -0.9008 0.3084
vn 0.3058 -0.9008 -0.3084
vn 0.1892 -0.5574 -0.8084
vn -0.1892 0.5574 -0.8084
vn -0.3058 0.9008 -0.3084
vn -0.4207 0.8531 0.3084
vn -0.2603 0.5279 0.8084
vn 0.2603 -0.5279 0.8084
vn 0.4207 -0.8531 0.3084
vn 0.4207 -0.8532 -0.3084
vn 0.2603 -0.5279 -0.8084
vn -0.2603 0.5279 -0.8084
vn -0.4207 0.8531 -0.3084
vn -0.5285 0.7909 0.3084
vn -0.3270 0.4894 0.8084
vn 0.3270 -0.4894 0.8084
vn 0.5285 -0.7909 0.3084
vn 0.5285 -0.7909 -0.3084
vn 0.3270 -0.4894 -0.8084
vn -0.3270 0.4894 -0.8084
vn -0.5285 0.7909 -0.3084
vn -0.6272 0.7152 0.3084
vn -0.3881 0.4425 0.8084
vn 0.3881 -0.4425 0.8084
vn 0.6272 -0.7152 0.3084
vn 0.6272 -0.7152 -0.3084
vn 0.3881 -0.4425 -0.8084
vn -0.3881 0.4425 -0.8084
vn -0.6272 0.7152 -0.3084
vn -0.7152 0.6272 0.3084
vn -0.4425 0.3881 0.8084
vn 0.4425 -0.3881 0.8084
vn 0.7152 -0.6272 0.3084
vn 0.7152 -0.6272 -0.3084
vn 0.4425 -0.3881 -0.8084
vn -0.4425 0.3881 -0.8084
vn -0.7152 0.6272 -0.3084
vn -0.7909 0.5285 0.3084
vn -0.4894 0.3270 0.8084
vn 0.4894 -0.3270 0.8084
vn 0.7909 -0.5285 0.3084
vn 0.7909 -0.5285 -0.3084
vn 0.4894 -0.3270 -0.8084
vn -0.4894 0.3270 -0.8084
vn -0.7909 0.5285 -0.3084
vn -0.8532 0.4207 0.3084
vn -0.5279 0.2603 0.8084
vn 0.5279 -0.2603 0.8084
vn 0.8532 -0.4207 0.3084
vn 0.8531 -0.4207 -0.3084
vn 0.5279 -0.2603 -0.8084
vn -0.5279 0.2603 -0.8084
vn -0.8531 0.4207 -0.3084
vn -0.9008 0.3058 0.3084
vn -0.5574 0.1892 0.8084
vn 0.5574 -0.1892 0.8084
vn 0.9008 -0.3058 0.3084
vn 0.9008 -0.3058 -0.3084
vn 0.5574 -0.1892 -0.8084
vn -0.5574 0.1892 -0.8084
vn -0.9008 0.3058 -0.3084
vn -0.9330 0.1856 0.3084
vn -0.5773 0.1148 0.8084
vn 0.5773 -0.1148 0.8084
vn 0.9330 -0.1856 0.3084
vn 0.9330 -0.1856 -0.3084
vn 0.5773 -0.1148 -0.8084
vn -0.5773 0.1148 -0.8084
vn -0.9330 0.1856 -0.3084
vn -0.9492 0.0622 0.3084
vn -0.5873 0.0385 0.8084
vn 0.5874 -0.0385 0.8084
vn 0.9492 -0.0622 0.3084
vn 0.9492 -0.0622 -0.3084
vn 0.5873 -0.0385 -0.8084
vn -0.5874 0.0385 -0.8084
vn -0.9492 0.0622 -0.3084
vn 0.5874 0.0385 0.8084
vn -0.5874 -0.0385 -0.8084
vn -0.8531 -0.4207 0.3084
vn 0.8532 0.4207 -0.3084
vn 0.4207 0.8531 0.3084
vn 0.0385 0.5874 -0.8084
vn 0.0385 -0.5873 0.8084
vn -0.0385 0.5873 -0.8084
vn 0.4207 -0.8532 0.3084
vn -0.4207 0.8532 0.3084
vn -0.4207 0.8532 -0.3084
vn 0.8531 -0.4207 0.3084
vn 0.5873 -0.0385 0.8084
vn -0.5874 0.0385 0.8084
vn -0.5874 -0.0385 0.8084
vn 0.5873 0.0385 -0.8084
vn -0.0385 0.5874 0.8084
vn -0.8531 0.4207 0.3084
vn -0.8532 0.4207 -0.3084
vn 0.5874 -0.0385 -0.8084
vn -0.5873 0.0385 -0.8084
vn -0.4207 -0.8531 0.3084
vn -0.0385 -0.5874 0.8084
vn -0.0385 -0.5874 -0.8084
vn 0.8532 -0.4207 -0.3084
vt 0.520833 0.600000
vt 0.500000 0.700000
vt 0.500000 0.600000
vt 0.520833 0.700000
vt 0.500000 0.800000
vt 0.520833 0.800000
vt 0.500000 0.900000
vt 0.520833 1.000000
vt 0.500000 1.000000
vt 0.520833 -0.000000
vt 0.500000 0.100000
vt 0.500000 -0.000000
vt 0.520833 0.100000
vt 0.500000 0.200000
vt 0.520833 0.200000
vt 0.500000 0.300000
vt 0.520833 0.300000
vt 0.500000 0.400000
vt 0.520833 0.400000
vt 0.500000 0.500000
vt 0.520833 0.500000
vt 0.541667 0.600000
vt 0.541667 0.700000
vt 0.541667 0.800000
vt 0.520833 0.900000
vt 0.541667 0.900000
vt 0.541667 -0.000000
vt 0.541667 0.100000
vt 0.541667 0.300000
vt 0.541667 0.400000
vt 0.541667 0.500000
vt 0.562500 0.700000
vt 0.562500 0.800000
vt 0.562500 1.000000
vt 0.541667 1.000000
vt 0.562500 0.100000
vt 0.541667 0.200000
vt 0.562500 0.300000
vt 0.562500 0.400000
vt 0.562500 0.500000
vt 0.583333 0.600000
vt 0.562500 0.600000
vt 0.583333 0.700000
vt 0.583333 0.800000
vt 0.562500 0.900000
vt 0.583333 1.000000
vt 0.562500 -0.000000
vt 0.583333 0.100000
vt 0.562500 0.200000
vt 0.583333 0.200000
vt 0.583333 0.400000
vt 0.583333 0.500000
vt 0.604167 0.600000
vt 0.604167 0.800000
vt 0.583333 0.900000
vt 0.604167 0.900000
vt 0.604167 -0.000000
vt 0.583333 -0.000000
vt 0.604167 0.100000
vt 0.604167 0.200000
vt 0.583333 0.300000
vt 0.604167 0.300000
vt 0.604167 0.400000
vt 0.604167 0.500000
vt 0.625000 0.600000
vt 0.604167 0.700000
vt 0.625000 0.700000
vt 0.625000 0.900000
vt 0.604167 1.000000
vt 0.625000 -0.000000
vt 0.625000 0.200000
vt 0.625000 0.300000
vt 0.625000 0.500000
vt 0.645833 0.600000
vt 0.645833 0.800000
vt 0.625000 0.800000
vt 0.645833 0.900000
vt 0.645833 1.000000
vt 0.625000 1.000000
vt 0.645833 -0.000000
vt 0.625000 0.100000
vt 0.645833 0.200000
vt 0.645833 0.300000
vt 0.625000 0.400000
vt 0.645833 0.400000
vt 0.666667 0.600000
vt 0.645833 0.700000
vt 0.666667 0.800000
vt 0.666667 0.900000
vt 0.666667 0.100000
vt 0.645833 0.100000
vt 0.666667 0.200000
vt 0.666667 0.300000
vt 0.666667 0.400000
vt 0.645833 0.500000
vt 0.687500 0.700000
vt 0.666667 0.700000
vt 0.687500 0.800000
vt 0.687500 1.000000
vt 0.666667 1.000000
vt 0.687500 -0.000000
vt 0.666667 -0.000000
vt 0.687500 0.100000
vt 0.687500 0.200000
vt 0.687500 0.300000
vt 0.687500 0.400000
vt 0.666667 0.500000
vt 0.687500 0.500000
vt 0.708333 0.600000
vt 0.687500 0.600000
vt 0.708333 0.700000
vt 0.708333 0.900000
vt 0.687500 0.900000
vt 0.708333 1.000000
vt 0.708333 -0.000000
vt 0.708333 0.200000
vt 0.708333 0.300000
vt 0.708333 0.400000
vt 0.708333 0.500000
vt 0.729167 0.700000
vt 0.708333 0.800000
vt 0.729167 0.800000
vt 0.729167 1.000000
vt 0.729167 -0.000000
vt 0.708333 0.100000
vt 0.729167 0.100000
vt 0.729167 0.200000
vt 0.729167 0.300000
vt 0.729167 0.400000
vt 0.729167 0.500000
vt 0.750000 0.600000
vt 0.729167 0.600000
vt 0.750000 0.800000
vt 0.729167 0.900000
vt 0.750000 0.900000
vt 0.750000 -0.000000
vt 0.750000 0.100000
vt 0.750000 0.200000
vt 0.750000 0.400000
vt 0.750000 0.500000
vt 0.770833 0.600000
vt 0.750000 0.700000
vt 0.770833 0.700000
vt 0.770833 0.800000
vt 0.770833 0.900000
vt 0.750000 1.000000
vt 0.770833 -0.000000
vt 0.770833 0.100000
vt 0.770833 0.300000
vt 0.750000 0.300000
vt 0.770833 0.400000
vt 0.791667 0.600000
vt 0.791667 0.800000
vt 0.791667 0.900000
vt 0.770833 1.000000
vt 0.791667 -0.000000
vt 0.791667 0.100000
vt 0.770833 0.200000
vt 0.791667 0.200000
vt 0.791667 0.300000
vt 0.791667 0.500000
vt 0.770833 0.500000
vt 0.812500 0.700000
vt 0.791667 0.700000
vt 0.812500 0.900000
vt 0.791667 1.000000
vt 0.812500 -0.000000
vt 0.812500 0.100000
vt 0.812500 0.300000
vt 0.791667 0.400000
vt 0.812500 0.500000
vt 0.812500 0.600000
vt 0.833333 0.700000
vt 0.833333 0.800000
vt 0.812500 0.800000
vt 0.833333 0.900000
vt 0.812500 1.000000
vt 0.833333 -0.000000
vt 0.833333 0.100000
vt 0.812500 0.200000
vt 0.833333 0.300000
vt 0.833333 0.400000
vt 0.812500 0.400000
vt 0.833333 0.500000
vt 0.833333 0.600000
vt 0.854167 0.700000
vt 0.854167 0.800000
vt 0.854167 0.900000
vt 0.833333 1.000000
vt 0.854167 0.100000
vt 0.833333 0.200000
vt 0.854167 0.200000
vt 0.854167 0.300000
vt 0.854167 0.400000
vt 0.854167 0.500000
vt 0.854167 0.600000
vt 0.875000 0.700000
vt 0.875000 0.800000
vt 0.875000 0.900000
vt 0.854167 1.000000
vt 0.875000 -0.000000
vt 0.854167 -0.000000
vt 0.875000 0.100000
vt 0.875000 0.200000
vt 0.875000 0.400000
vt 0.875000 0.500000
vt 0.875000 0.600000
vt 0.895833 0.700000
vt 0.895833 0.900000
vt 0.895833 1.000000
vt 0.875000 1.000000
vt 0.895833 -0.000000
vt 0.895833 0.200000
vt 0.875000 0.300000
vt 0.895833 0.300000
vt 0.895833 0.400000
vt 0.895833 0.500000
vt 0.916667 0.600000
vt 0.895833 0.600000
vt 0.916667 0.800000
vt 0.895833 0.800000
vt 0.916667 1.000000
vt 0.916667 -0.000000
vt 0.895833 0.100000
vt 0.916667 0.200000
vt 0.916667 0.400000
vt 0.916667 0.500000
vt 0.937500 0.600000
vt 0.916667 0.700000
vt 0.937500 0.700000
vt 0.937500 0.800000
vt 0.916667 0.900000
vt 0.937500 0.900000
vt 0.937500 -0.000000
vt 0.916667 0.100000
vt 0.937500 0.200000
vt 0.937500 0.300000
vt 0.916667 0.300000
vt 0.937500 0.400000
vt 0.958333 0.700000
vt 0.958333 0.800000
vt 0.958333 0.900000
vt 0.937500 1.000000
vt 0.958333 -0.000000
vt 0.937500 0.100000
vt 0.958333 0.100000
vt 0.958333 0.200000
vt 0.958333 0.400000
vt 0.937500 0.500000
vt 0.958333 0.500000
vt 0.958333 0.600000
vt 0.979167 0.700000
vt 0.979167 0.800000
vt 0.979167 0.900000
vt 0.958333 1.000000
vt 0.979167 -0.000000
vt 0.979167 0.200000
vt 0.958333 0.300000
vt 0.979167 0.300000
vt 0.979167 0.400000
vt 0.979167 0.500000
vt 1.000000 0.600000
vt 0.979167 0.600000
vt 1.000000 0.700000
vt 1.000000 0.900000
vt 0.979167 1.000000
vt 1.000000 -0.000000
vt 0.979167 0.100000
vt 1.000000 0.200000
vt 1.000000 0.300000
vt 1.000000 0.400000
vt 1.000000 0.500000
vt 0.020833 0.600000
vt 0.000000 0.700000
vt 0.000000 0.600000
vt 0.020833 0.700000
vt 0.000000 0.800000
vt 0.020833 0.800000
vt 0.000000 0.900000
vt 0.020833 0.900000
vt 0.000000 1.000000
vt 0.020833 -0.000000
vt 0.000000 0.100000
vt 0.000000 -0.000000
vt 0.020833 0.100000
vt 0.000000 0.200000
vt 0.020833 0.300000
vt 0.000000 0.300000
vt 0.020833 0.400000
vt 0.000000 0.400000
vt 0.000000 0.500000
vt 0.020833 0.500000
vt 0.041667 0.600000
vt 0.041667 0.700000
vt 0.041667 0.800000
vt 0.041667 0.900000
vt 0.020833 1.000000
vt 0.041667 -0.000000
vt 0.041667 0.100000
vt 0.020833 0.200000
vt 0.041667 0.300000
vt 0.041667 0.400000
vt 0.041667 0.500000
vt 0.062500 0.600000
vt 0.062500 0.700000
vt 0.062500 0.900000
vt 0.041667 1.000000
vt 0.062500 -0.000000
vt 0.062500 0.100000
vt 0.041667 0.200000
vt 0.062500 0.300000
vt 0.062500 0.400000
vt 0.062500 0.500000
vt 0.083333 0.700000
vt 0.062500 0.800000
vt 0.083333 0.800000
vt 0.083333 0.900000
vt 0.062500 1.000000
vt 0.083333 0.100000
vt 0.062500 0.200000
vt 0.083333 0.300000
vt 0.083333 0.400000
vt 0.083333 0.500000
vt 0.104167 0.600000
vt 0.083333 0.600000
vt 0.104167 0.700000
vt 0.104167 0.900000
vt 0.083333 1.000000
vt 0.083333 -0.000000
vt 0.104167 0.100000
vt 0.083333 0.200000
vt 0.104167 0.300000
vt 0.104167 0.400000
vt 0.104167 0.500000
vt 0.125000 0.600000
vt 0.125000 0.800000
vt 0.104167 0.800000
vt 0.125000 0.900000
vt 0.104167 1.000000
vt 0.104167 -0.000000
vt 0.125000 0.100000
vt 0.104167 0.200000
vt 0.125000 0.300000
vt 0.125000 0.400000
vt 0.145833 0.600000
vt 0.125000 0.700000
vt 0.145833 0.800000
vt 0.145833 0.900000
vt 0.125000 1.000000
vt 0.125000 -0.000000
vt 0.145833 0.100000
vt 0.125000 0.200000
vt 0.145833 0.200000
vt 0.145833 0.300000
vt 0.145833 0.400000
vt 0.125000 0.500000
vt 0.145833 0.500000
vt 0.166667 0.600000
vt 0.145833 0.700000
vt 0.166667 0.700000
vt 0.166667 0.900000
vt 0.145833 1.000000
vt 0.166667 -0.000000
vt 0.145833 -0.000000
vt 0.166667 0.200000
vt 0.166667 0.300000
vt 0.166667 0.400000
vt 0.166667 0.500000
vt 0.187500 0.600000
vt 0.187500 0.700000
vt 0.166667 0.800000
vt 0.187500 0.900000
vt 0.187500 1.000000
vt 0.166667 1.000000
vt 0.187500 -0.000000
vt 0.166667 0.100000
vt 0.187500 0.100000
vt 0.187500 0.200000
vt 0.187500 0.300000
vt 0.187500 0.400000
vt 0.187500 0.500000
vt 0.208333 0.700000
vt 0.187500 0.800000
vt 0.208333 0.800000
vt 0.208333 0.900000
vt 0.208333 -0.000000
vt 0.208333 0.200000
vt 0.208333 0.300000
vt 0.208333 0.500000
vt 0.229167 0.600000
vt 0.208333 0.600000
vt 0.229167 0.700000
vt 0.229167 0.800000
vt 0.229167 1.000000
vt 0.208333 1.000000
vt 0.229167 -0.000000
vt 0.208333 0.100000
vt 0.229167 0.100000
vt 0.229167 0.200000
vt 0.229167 0.300000
vt 0.208333 0.400000
vt 0.229167 0.500000
vt 0.250000 0.600000
vt 0.250000 0.700000
vt 0.250000 0.800000
vt 0.229167 0.900000
vt 0.250000 0.900000
vt 0.250000 -0.000000
vt 0.250000 0.200000
vt 0.250000 0.400000
vt 0.229167 0.400000
vt 0.250000 0.500000
vt 0.270833 0.600000
vt 0.270833 0.700000
vt 0.270833 0.800000
vt 0.270833 0.900000
vt 0.250000 1.000000
vt 0.270833 -0.000000
vt 0.250000 0.100000
vt 0.270833 0.100000
vt 0.270833 0.200000
vt 0.250000 0.300000
vt 0.270833 0.300000
vt 0.270833 0.400000
vt 0.270833 0.500000
vt 0.291667 0.600000
vt 0.291667 0.700000
vt 0.291667 0.800000
vt 0.291667 0.900000
vt 0.270833 1.000000
vt 0.291667 -0.000000
vt 0.291667 0.100000
vt 0.291667 0.200000
vt 0.291667 0.300000
vt 0.291667 0.500000
vt 0.312500 0.700000
vt 0.312500 0.900000
vt 0.312500 1.000000
vt 0.291667 1.000000
vt 0.312500 -0.000000
vt 0.312500 0.200000
vt 0.312500 0.300000
vt 0.291667 0.400000
vt 0.312500 0.500000
vt 0.333333 0.600000
vt 0.312500 0.600000
vt 0.333333 0.700000
vt 0.312500 0.800000
vt 0.333333 0.900000
vt 0.333333 -0.000000
vt 0.312500 0.100000
vt 0.333333 0.100000
vt 0.333333 0.300000
vt 0.312500 0.400000
vt 0.333333 0.500000
vt 0.354167 0.600000
vt 0.354167 0.700000
vt 0.333333 0.800000
vt 0.354167 0.800000
vt 0.354167 1.000000
vt 0.333333 1.000000
vt 0.354167 -0.000000
vt 0.354167 0.200000
vt 0.333333 0.200000
vt 0.354167 0.300000
vt 0.333333 0.400000
vt 0.354167 0.400000
vt 0.354167 0.500000
vt 0.375000 0.600000
vt 0.375000 0.700000
vt 0.375000 0.800000
vt 0.354167 0.900000
vt 0.375000 0.900000
vt 0.375000 -0.000000
vt 0.354167 0.100000
vt 0.375000 0.100000
vt 0.375000 0.200000
vt 0.375000 0.300000
vt 0.375000 0.400000
vt 0.375000 0.500000
vt 0.395833 0.600000
vt 0.395833 0.800000
vt 0.395833 0.900000
vt 0.375000 1.000000
vt 0.395833 -0.000000
vt 0.395833 0.200000
vt 0.395833 0.400000
vt 0.416667 0.700000
vt 0.395833 0.700000
vt 0.416667 0.800000
vt 0.416667 0.900000
vt 0.395833 1.000000
vt 0.416667 -0.000000
vt 0.395833 0.100000
vt 0.416667 0.100000
vt 0.416667 0.200000
vt 0.395833 0.300000
vt 0.416667 0.300000
vt 0.416667 0.400000
vt 0.395833 0.500000
vt 0.416667 0.500000
vt 0.437500 0.600000
vt 0.416667 0.600000
vt 0.437500 0.700000
vt 0.437500 0.900000
vt 0.437500 1.000000
vt 0.416667 1.000000
vt 0.437500 -0.000000
vt 0.437500 0.100000
vt 0.437500 0.200000
vt 0.437500 0.300000
vt 0.437500 0.400000
vt 0.437500 0.500000
vt 0.458333 0.600000
vt 0.458333 0.700000
vt 0.437500 0.800000
vt 0.458333 0.800000
vt 0.458333 0.900000
vt 0.458333 -0.000000
vt 0.458333 0.200000
vt 0.458333 0.400000
vt 0.458333 0.500000
vt 0.479167 0.600000
vt 0.479167 0.800000
vt 0.479167 1.000000
vt 0.458333 1.000000
vt 0.479167 -0.000000
vt 0.458333 0.100000
vt 0.479167 0.100000
vt 0.479167 0.200000
vt 0.458333 0.300000
vt 0.479167 0.300000
vt 0.479167 0.400000
vt 0.479167 0.700000
vt 0.479167 0.900000
vt 0.479167 0.500000
vt 1.000000 0.800000
vt 1.000000 1.000000
vt 1.000000 0.100000
s 0
usemtl Mat_Lab_Label_Red
f 203/389/101 194/390/101 193/391/101
f 204/392/102 195/393/102 194/390/102
f 205/394/103 196/395/103 195/393/103
f 196/395/104 207/396/104 197/397/104
f 207/398/105 198/399/105 197/400/105
f 208/401/106 199/402/106 198/399/106
f 209/403/107 200/404/107 199/402/107
f 210/405/108 201/406/108 200/404/108
f 211/407/109 202/408/109 201/406/109
f 212/409/110 193/391/110 202/408/110
f 213/410/111 204/392/111 203/389/111
f 214/411/112 205/394/112 204/392/112
f 215/412/103 206/413/103 205/394/103
f 216/414/113 207/396/113 206/413/113
f 217/415/114 208/401/114 207/398/114
f 218/416/115 209/403/115 208/401/115
f 209/403/116 220/417/116 210/405/116
f 210/405/108 221/418/108 211/407/108
f 211/407/117 222/419/117 212/409/117
f 222/419/118 203/389/118 212/409/118
f 213/410/119 224/420/119 214/411/119
f 224/420/120 215/412/120 214/411/120
f 225/421/103 216/414/103 215/412/103
f 216/414/121 227/422/121 217/423/121
f 217/415/122 228/424/122 218/416/122
f 228/424/123 219/425/123 218/416/123
f 219/425/124 230/426/124 220/417/124
f 220/417/108 231/427/108 221/418/108
f 231/427/125 222/419/125 221/418/125
f 232/428/126 213/410/126 222/419/126
f 233/429/127 224/420/127 223/430/127
f 234/431/128 225/421/128 224/420/128
f 235/432/103 226/433/103 225/421/103
f 226/433/129 237/434/129 227/422/129
f 227/435/130 238/436/130 228/424/130
f 238/436/131 229/437/131 228/424/131
f 239/438/132 230/426/132 229/437/132
f 230/426/108 241/439/108 231/427/108
f 241/439/133 232/428/133 231/427/133
f 242/440/134 223/430/134 232/428/134
f 243/441/135 234/431/135 233/429/135
f 234/431/136 245/442/136 235/432/136
f 245/442/103 236/443/103 235/432/103
f 246/444/137 237/434/137 236/443/137
f 247/445/138 238/436/138 237/446/138
f 248/447/139 239/438/139 238/436/139
f 249/448/140 240/449/140 239/438/140
f 250/450/108 241/439/108 240/449/108
f 251/451/141 242/440/141 241/439/141
f 252/452/142 233/429/142 242/440/142
f 253/453/143 244/454/143 243/441/143
f 254/455/144 245/442/144 244/454/144
f 245/442/103 256/456/103 246/444/103
f 256/456/145 247/457/145 246/444/145
f 257/458/146 248/447/146 247/445/146
f 248/447/147 259/459/147 249/448/147
f 249/448/148 260/460/148 250/450/148
f 260/460/108 251/451/108 250/450/108
f 251/451/149 262/461/149 252/452/149
f 252/452/150 253/453/150 243/441/150
f 263/462/151 254/455/151 253/453/151
f 254/455/152 265/463/152 255/464/152
f 255/464/103 266/465/103 256/456/103
f 256/456/153 267/466/153 257/467/153
f 267/468/154 258/469/154 257/458/154
f 258/469/155 269/470/155 259/459/155
f 259/459/156 270/471/156 260/460/156
f 270/471/108 261/472/108 260/460/108
f 271/473/157 262/461/157 261/472/157
f 262/461/158 263/462/158 253/453/158
f 273/474/159 264/475/159 263/462/159
f 264/475/160 275/476/160 265/463/160
f 275/476/103 266/465/103 265/463/103
f 276/477/161 267/466/161 266/465/161
f 267/468/162 278/478/162 268/479/162
f 278/478/163 269/470/163 268/479/163
f 279/480/164 270/471/164 269/470/164
f 280/481/108 271/473/108 270/471/108
f 281/482/165 272/483/165 271/473/165
f 272/483/166 273/474/166 263/462/166
f 273/474/167 284/484/167 274/485/167
f 284/484/168 275/476/168 274/485/168
f 285/486/103 276/477/103 275/476/103
f 276/477/169 287/487/169 277/488/169
f 287/489/170 278/478/170 277/490/170
f 288/491/171 279/480/171 278/478/171
f 289/492/172 280/481/172 279/480/172
f 290/493/108 281/482/108 280/481/108
f 291/494/173 282/495/173 281/482/173
f 292/496/174 273/474/174 282/495/174
f 293/497/175 284/484/175 283/498/175
f 294/499/176 285/486/176 284/484/176
f 285/486/103 296/500/103 286/501/103
f 286/501/177 297/502/177 287/487/177
f 297/503/178 288/491/178 287/489/178
f 288/491/179 299/504/179 289/492/179
f 299/504/180 290/493/180 289/492/180
f 300/505/108 291/494/108 290/493/108
f 301/506/181 292/496/181 291/494/181
f 302/507/182 283/498/182 292/496/182
f 293/497/183 304/508/183 294/499/183
f 304/508/184 295/509/184 294/499/184
f 305/510/103 296/500/103 295/509/103
f 296/500/185 307/511/185 297/502/185
f 307/512/186 298/513/186 297/503/186
f 308/514/187 299/504/187 298/513/187
f 309/515/188 300/505/188 299/504/188
f 310/516/108 301/506/108 300/505/108
f 311/517/189 302/507/189 301/506/189
f 312/518/190 293/497/190 302/507/190
f 313/519/191 304/508/191 303/520/191
f 304/508/192 315/521/192 305/510/192
f 315/521/103 306/522/103 305/510/103
f 316/523/193 307/511/193 306/522/193
f 317/524/194 308/514/194 307/512/194
f 318/525/195 309/515/195 308/514/195
f 319/526/196 310/516/196 309/515/196
f 310/516/108 321/527/108 311/517/108
f 321/527/197 312/518/197 311/517/197
f 322/528/198 303/520/198 312/518/198
f 323/529/199 314/530/199 313/519/199
f 324/531/200 315/521/200 314/530/200
f 325/532/103 316/523/103 315/521/103
f 326/533/201 317/534/201 316/523/201
f 327/535/202 318/525/202 317/524/202
f 328/536/203 319/526/203 318/525/203
f 319/526/204 330/537/204 320/538/204
f 320/538/108 331/539/108 321/527/108
f 331/539/205 322/528/205 321/527/205
f 322/528/206 323/529/206 313/519/206
f 333/540/207 324/531/207 323/529/207
f 324/531/208 335/541/208 325/532/208
f 325/532/103 336/542/103 326/533/103
f 336/542/209 327/543/209 326/533/209
f 337/544/210 328/536/210 327/535/210
f 338/545/211 329/546/211 328/536/211
f 339/547/212 330/537/212 329/546/212
f 340/548/108 331/539/108 330/537/108
f 331/539/213 342/549/213 332/550/213
f 342/549/214 323/529/214 332/550/214
f 333/540/215 344/551/215 334/552/215
f 344/551/216 335/541/216 334/552/216
f 335/541/103 346/553/103 336/542/103
f 346/553/217 337/554/217 336/542/217
f 347/555/218 338/545/218 337/544/218
f 348/556/219 339/547/219 338/545/219
f 339/547/220 350/557/220 340/548/220
f 350/557/108 341/558/108 340/548/108
f 341/558/221 352/559/221 342/549/221
f 352/559/222 333/540/222 342/549/222
f 343/560/223 354/561/223 344/551/223
f 344/551/224 355/562/224 345/563/224
f 355/562/103 346/553/103 345/563/103
f 356/564/225 347/565/225 346/553/225
f 357/566/226 348/556/226 347/555/226
f 358/567/227 349/568/227 348/556/227
f 349/568/228 360/569/228 350/557/228
f 350/557/108 361/570/108 351/571/108
f 361/570/229 352/559/229 351/571/229
f 362/572/230 343/560/230 352/559/230
f 353/573/231 364/574/231 354/561/231
f 364/574/232 355/562/232 354/561/232
f 365/575/103 356/564/103 355/562/103
f 366/576/233 357/577/233 356/564/233
f 357/566/234 368/578/234 358/567/234
f 368/578/235 359/579/235 358/567/235
f 369/580/236 360/569/236 359/579/236
f 370/581/108 361/570/108 360/569/108
f 371/582/237 362/572/237 361/570/237
f 372/583/238 353/573/238 362/572/238
f 363/584/239 374/585/239 364/574/239
f 374/585/240 365/575/240 364/574/240
f 375/586/103 366/576/103 365/575/103
f 376/587/241 367/588/241 366/576/241
f 377/589/242 368/578/242 367/590/242
f 378/591/243 369/580/243 368/578/243
f 379/592/244 370/581/244 369/580/244
f 370/581/108 381/593/108 371/582/108
f 371/582/245 382/594/245 372/583/245
f 382/594/246 363/584/246 372/583/246
f 373/595/247 384/596/247 374/585/247
f 384/596/248 375/586/248 374/585/248
f 375/586/103 386/597/103 376/587/103
f 376/587/249 387/598/249 377/599/249
f 387/600/250 378/591/250 377/589/250
f 378/591/251 389/601/251 379/592/251
f 389/601/252 380/602/252 379/592/252
f 390/603/108 381/593/108 380/602/108
f 391/604/253 382/594/253 381/593/253
f 392/605/254 373/595/254 382/594/254
f 393/606/255 384/596/255 383/607/255
f 384/596/256 395/608/256 385/609/256
f 395/608/103 386/597/103 385/609/103
f 386/597/257 397/610/257 387/598/257
f 397/611/258 388/612/258 387/600/258
f 388/612/259 399/613/259 389/601/259
f 399/613/260 390/603/260 389/601/260
f 390/603/108 401/614/108 391/604/108
f 401/614/261 392/605/261 391/604/261
f 402/615/262 383/607/262 392/605/262
f 403/616/263 394/617/263 393/606/263
f 404/618/264 395/608/264 394/617/264
f 405/619/103 396/620/103 395/608/103
f 406/621/265 397/610/265 396/620/265
f 407/622/266 398/623/266 397/611/266
f 398/623/267 409/624/267 399/613/267
f 399/613/268 410/625/268 400/626/268
f 410/625/108 401/614/108 400/626/108
f 411/627/269 402/615/269 401/614/269
f 402/615/270 403/616/270 393/606/270
f 403/616/271 414/628/271 404/618/271
f 414/628/272 405/619/272 404/618/272
f 415/629/103 406/621/103 405/619/103
f 416/630/273 407/631/273 406/621/273
f 417/632/274 408/633/274 407/622/274
f 418/634/275 409/624/275 408/633/275
f 419/635/276 410/625/276 409/624/276
f 410/625/108 421/636/108 411/627/108
f 421/636/277 412/637/277 411/627/277
f 422/638/278 403/616/278 412/637/278
f 413/639/279 424/640/279 414/628/279
f 424/640/280 415/629/280 414/628/280
f 425/641/103 416/630/103 415/629/103
f 426/642/281 417/643/281 416/630/281
f 427/644/282 418/634/282 417/632/282
f 418/634/283 429/645/283 419/635/283
f 429/645/284 420/646/284 419/635/284
f 430/647/108 421/636/108 420/646/108
f 431/648/285 422/638/285 421/636/285
f 432/649/286 413/639/286 422/638/286
f 433/650/287 424/640/287 423/651/287
f 434/652/288 425/641/288 424/640/288
f 425/641/103 436/653/103 426/642/103
f 436/653/289 427/654/289 426/642/289
f 437/655/290 428/656/290 427/644/290
f 428/656/291 439/657/291 429/645/291
f 439/657/292 430/647/292 429/645/292
f 440/658/108 431/648/108 430/647/108
f 441/659/293 432/649/293 431/648/293
f 442/660/294 423/651/294 432/649/294
f 443/661/105 434/662/105 433/663/105
f 444/664/104 435/665/104 434/662/104
f 445/666/103 436/667/103 435/665/103
f 446/668/295 437/669/295 436/667/295
f 447/670/101 438/671/101 437/672/101
f 448/673/110 439/674/110 438/671/110
f 439/674/109 450/675/109 440/676/109
f 440/676/108 451/677/108 441/678/108
f 451/677/296 442/679/296 441/678/296
f 452/680/106 433/663/106 442/679/106
f 453/681/114 444/664/114 443/661/114
f 454/682/113 445/666/113 444/664/113
f 455/683/103 446/668/103 445/666/103
f 456/684/112 447/685/112 446/668/112
f 457/686/111 448/673/111 447/670/111
f 458/687/118 449/688/118 448/673/118
f 449/688/117 460/689/117 450/675/117
f 460/689/108 451/677/108 450/675/108
f 461/690/116 452/680/116 451/677/116
f 462/691/115 443/661/115 452/680/115
f 463/692/122 454/682/122 453/681/122
f 464/693/121 455/683/121 454/682/121
f 455/683/103 466/694/103 456/684/103
f 466/694/120 457/695/120 456/684/120
f 467/696/119 458/687/119 457/686/119
f 468/697/126 459/698/126 458/687/126
f 459/698/125 470/699/125 460/689/125
f 470/699/108 461/690/108 460/689/108
f 471/700/124 462/691/124 461/690/124
f 472/701/123 453/681/123 462/691/123
f 463/692/297 474/702/297 464/693/297
f 474/702/129 465/703/129 464/693/129
f 475/704/103 466/694/103 465/703/103
f 476/705/128 467/706/128 466/694/128
f 467/696/127 478/707/127 468/697/127
f 478/707/298 469/708/298 468/697/298
f 469/708/133 480/709/133 470/699/133
f 470/699/108 481/710/108 471/700/108
f 481/710/132 472/701/132 471/700/132
f 482/711/131 463/692/131 472/701/131
f 483/712/138 474/702/138 473/713/138
f 484/714/137 475/704/137 474/702/137
f 475/704/103 486/715/103 476/705/103
f 486/715/136 477/716/136 476/705/136
f 477/717/135 488/718/135 478/707/135
f 488/718/142 479/719/142 478/707/142
f 479/719/141 490/720/141 480/709/141
f 490/720/108 481/710/108 480/709/108
f 491/721/140 482/711/140 481/710/140
f 492/722/139 473/713/139 482/711/139
f 493/723/146 484/714/146 483/712/146
f 484/714/145 495/724/145 485/725/145
f 495/724/103 486/715/103 485/725/103
f 496/726/144 487/727/144 486/715/144
f 487/728/143 498/729/143 488/718/143
f 498/729/150 489/730/150 488/718/150
f 489/730/149 500/731/149 490/720/149
f 490/720/108 501/732/108 491/721/108
f 501/732/148 492/722/148 491/721/148
f 492/722/147 493/723/147 483/712/147
f 503/733/154 494/734/154 493/723/154
f 494/734/153 505/735/153 495/724/153
f 495/724/103 506/736/103 496/726/103
f 506/736/152 497/737/152 496/726/152
f 497/738/151 508/739/151 498/729/151
f 508/739/158 499/740/158 498/729/158
f 509/741/157 500/731/157 499/740/157
f 510/742/108 501/732/108 500/731/108
f 511/743/156 502/744/156 501/732/156
f 512/745/155 493/723/155 502/744/155
f 513/746/162 504/747/162 503/733/162
f 514/748/161 505/735/161 504/747/161
f 505/735/103 516/749/103 506/736/103
f 516/749/160 507/750/160 506/736/160
f 517/751/159 508/739/159 507/752/159
f 508/739/166 519/753/166 509/741/166
f 519/753/165 510/742/165 509/741/165
f 520/754/108 511/743/108 510/742/108
f 521/755/164 512/745/164 511/743/164
f 522/756/163 503/733/163 512/745/163
f 523/757/170 514/748/170 513/746/170
f 524/758/169 515/759/169 514/748/169
f 515/759/103 526/760/103 516/749/103
f 516/749/168 527/761/168 517/762/168
f 527/763/299 518/764/299 517/751/299
f 528/765/174 519/753/174 518/764/174
f 529/766/173 520/754/173 519/753/173
f 530/767/108 521/755/108 520/754/108
f 531/768/172 522/756/172 521/755/172
f 532/769/171 513/746/171 522/756/171
f 523/757/178 534/770/178 524/758/178
f 534/770/177 525/771/177 524/758/177
f 535/772/103 526/760/103 525/771/103
f 536/773/176 527/761/176 526/760/176
f 537/774/175 528/765/175 527/763/175
f 528/765/182 539/775/182 529/766/182
f 539/775/181 530/767/181 529/766/181
f 540/776/108 531/768/108 530/767/108
f 531/768/180 542/777/180 532/769/180
f 542/777/179 523/757/179 532/769/179
f 543/778/186 534/770/186 533/779/186
f 544/780/185 535/772/185 534/770/185
f 545/781/103 536/773/103 535/772/103
f 536/773/184 547/782/184 537/783/184
f 547/784/183 538/785/183 537/774/183
f 548/786/190 539/775/190 538/785/190
f 549/787/189 540/776/189 539/775/189
f 550/788/108 541/789/108 540/776/108
f 541/789/188 552/790/188 542/777/188
f 552/790/187 533/779/187 542/777/187
f 553/791/194 544/780/194 543/778/194
f 554/792/193 545/781/193 544/780/193
f 555/793/103 546/794/103 545/781/103
f 556/795/192 547/782/192 546/794/192
f 557/796/191 548/786/191 547/784/191
f 548/786/198 559/797/198 549/787/198
f 559/797/300 550/788/300 549/787/300
f 550/788/108 561/798/108 551/799/108
f 561/798/196 552/790/196 551/799/196
f 562/800/195 543/778/195 552/790/195
f 563/801/202 554/792/202 553/791/202
f 564/802/301 555/793/301 554/792/301
f 565/803/103 556/795/103 555/793/103
f 566/804/200 557/805/200 556/795/200
f 567/806/199 558/807/199 557/796/199
f 568/808/206 559/797/206 558/807/206
f 569/809/302 560/810/302 559/797/302
f 570/811/108 561/798/108 560/810/108
f 571/812/204 562/800/204 561/798/204
f 572/813/203 553/791/203 562/800/203
f 573/814/210 564/802/210 563/801/210
f 574/815/209 565/803/209 564/802/209
f 575/816/103 566/804/103 565/803/103
f 576/817/208 567/818/208 566/804/208
f 577/819/207 568/808/207 567/806/207
f 578/820/214 569/809/214 568/808/214
f 579/821/213 570/811/213 569/809/213
f 580/822/108 571/812/108 570/811/108
f 571/812/212 582/823/212 572/813/212
f 582/823/211 563/801/211 572/813/211
f 573/814/218 584/824/218 574/815/218
f 584/824/217 575/816/217 574/815/217
f 575/816/103 586/825/103 576/817/103
f 576/817/216 587/826/216 577/827/216
f 587/828/215 578/820/215 577/819/215
f 578/820/222 589/829/222 579/821/222
f 589/829/221 580/822/221 579/821/221
f 590/830/108 581/831/108 580/822/108
f 581/831/220 592/832/220 582/823/220
f 592/832/219 573/814/219 582/823/219
f 593/833/303 584/824/303 583/834/303
f 594/835/225 585/836/225 584/824/225
f 585/836/103 596/837/103 586/825/103
f 596/837/224 587/826/224 586/825/224
f 597/838/304 588/839/304 587/828/304
f 598/840/305 589/829/305 588/839/305
f 589/829/229 600/841/229 590/830/229
f 600/841/108 591/842/108 590/830/108
f 591/842/228 602/843/228 592/832/228
f 592/832/227 593/833/227 583/834/227
f 603/844/234 594/835/234 593/833/234
f 604/845/233 595/846/233 594/835/233
f 605/847/103 596/837/103 595/846/103
f 596/837/232 607/848/232 597/849/232
f 607/850/231 598/840/231 597/838/231
f 598/840/238 609/851/238 599/852/238
f 609/851/237 600/841/237 599/852/237
f 610/853/108 601/854/108 600/841/108
f 611/855/236 602/843/236 601/854/236
f 612/856/235 593/833/235 602/843/235
f 613/857/242 604/845/242 603/844/242
f 614/858/241 605/847/241 604/845/241
f 615/859/103 606/860/103 605/847/103
f 616/861/240 607/848/240 606/860/240
f 617/862/239 608/863/239 607/850/239
f 618/864/246 609/851/246 608/863/246
f 619/865/245 610/853/245 609/851/245
f 620/866/108 611/855/108 610/853/108
f 621/867/244 612/856/244 611/855/244
f 622/868/243 603/844/243 612/856/243
f 623/869/250 614/858/250 613/857/250
f 614/858/249 625/870/249 615/859/249
f 625/870/103 616/861/103 615/859/103
f 626/871/248 617/872/248 616/861/248
f 627/873/247 618/864/247 617/862/247
f 618/864/254 629/874/254 619/865/254
f 629/874/253 620/866/253 619/865/253
f 620/866/108 631/875/108 621/867/108
f 631/875/252 622/868/252 621/867/252
f 622/868/251 623/869/251 613/857/251
f 623/869/258 634/876/258 624/877/258
f 624/877/257 635/878/257 625/870/257
f 635/878/103 626/871/103 625/870/103
f 636/879/256 627/880/256 626/871/256
f 637/881/255 628/882/255 627/873/255
f 638/883/262 629/874/262 628/882/262
f 639/884/261 630/885/261 629/874/261
f 640/886/108 631/875/108 630/885/108
f 641/887/260 632/888/260 631/875/260
f 642/889/259 623/869/259 632/888/259
f 643/890/306 634/876/306 633/891/306
f 644/892/265 635/878/265 634/876/265
f 635/878/103 646/893/103 636/879/103
f 636/879/264 647/894/264 637/895/264
f 647/896/263 638/883/263 637/881/263
f 648/897/270 639/884/270 638/883/270
f 649/898/269 640/886/269 639/884/269
f 650/899/108 641/887/108 640/886/108
f 651/900/268 642/889/268 641/887/268
f 652/901/267 633/891/267 642/889/267
f 653/902/274 644/892/274 643/890/274
f 654/903/273 645/904/273 644/892/273
f 655/905/103 646/893/103 645/904/103
f 656/906/272 647/894/272 646/893/272
f 657/907/271 648/897/271 647/896/271
f 648/897/278 659/908/278 649/898/278
f 659/908/277 650/899/277 649/898/277
f 650/899/108 661/909/108 651/900/108
f 651/900/276 662/910/276 652/901/276
f 662/910/275 643/890/275 652/901/275
f 663/911/282 654/903/282 653/902/282
f 654/903/281 665/912/281 655/905/281
f 665/912/103 656/906/103 655/905/103
f 656/906/280 667/913/280 657/914/280
f 667/915/279 658/916/279 657/907/279
f 668/917/286 659/908/286 658/916/286
f 669/918/285 660/919/285 659/908/285
f 670/920/108 661/909/108 660/919/108
f 671/921/284 662/910/284 661/909/284
f 662/910/283 663/911/283 653/902/283
f 193/391/290 664/922/290 663/911/290
f 194/390/307 665/912/307 664/922/307
f 195/393/103 666/923/103 665/912/103
f 196/395/308 667/913/308 666/923/308
f 197/400/287 668/917/287 667/915/287
f 198/399/294 669/918/294 668/917/294
f 669/918/293 200/404/293 670/920/293
f 200/404/108 671/921/108 670/920/108
f 671/921/292 202/408/292 672/924/292
f 202/408/291 663/911/291 672/924/291
f 203/389/101 204/392/101 194/390/101
f 204/392/295 205/394/295 195/393/295
f 205/394/103 206/413/103 196/395/103
f 196/395/309 206/413/309 207/396/309
f 207/398/105 208/401/105 198/399/105
f 208/401/106 209/403/106 199/402/106
f 209/403/296 210/405/296 200/404/296
f 210/405/108 211/407/108 201/406/108
f 211/407/310 212/409/310 202/408/310
f 212/409/110 203/389/110 193/391/110
f 213/410/111 214/411/111 204/392/111
f 214/411/112 215/412/112 205/394/112
f 215/412/103 216/414/103 206/413/103
f 216/414/113 217/423/113 207/396/113
f 217/415/114 218/416/114 208/401/114
f 218/416/115 219/425/115 209/403/115
f 209/403/116 219/425/116 220/417/116
f 210/405/108 220/417/108 221/418/108
f 211/407/117 221/418/117 222/419/117
f 222/419/118 213/410/118 203/389/118
f 213/410/119 223/430/119 224/420/119
f 224/420/120 225/421/120 215/412/120
f 225/421/103 226/433/103 216/414/103
f 216/414/121 226/433/121 227/422/121
f 217/415/122 227/435/122 228/424/122
f 228/424/123 229/437/123 219/425/123
f 219/425/124 229/437/124 230/426/124
f 220/417/108 230/426/108 231/427/108
f 231/427/125 232/428/125 222/419/125
f 232/428/126 223/430/126 213/410/126
f 233/429/127 234/431/127 224/420/127
f 234/431/128 235/432/128 225/421/128
f 235/432/103 236/443/103 226/433/103
f 226/433/129 236/443/129 237/434/129
f 227/435/297 237/446/297 238/436/297
f 238/436/131 239/438/131 229/437/131
f 239/438/132 240/449/132 230/426/132
f 230/426/108 240/449/108 241/439/108
f 241/439/133 242/440/133 232/428/133
f 242/440/298 233/429/298 223/430/298
f 243/441/135 244/454/135 234/431/135
f 234/431/136 244/454/136 245/442/136
f 245/442/103 246/444/103 236/443/103
f 246/444/137 247/457/137 237/434/137
f 247/445/138 248/447/138 238/436/138
f 248/447/139 249/448/139 239/438/139
f 249/448/140 250/450/140 240/449/140
f 250/450/108 251/451/108 241/439/108
f 251/451/141 252/452/141 242/440/141
f 252/452/142 243/441/142 233/429/142
f 253/453/143 254/455/143 244/454/143
f 254/455/144 255/464/144 245/442/144
f 245/442/103 255/464/103 256/456/103
f 256/456/145 257/467/145 247/457/145
f 257/458/146 258/469/146 248/447/146
f 248/447/147 258/469/147 259/459/147
f 249/448/148 259/459/148 260/460/148
f 260/460/108 261/472/108 251/451/108
f 251/451/149 261/472/149 262/461/149
f 252/452/150 262/461/150 253/453/150
f 263/462/151 264/475/151 254/455/151
f 254/455/152 264/475/152 265/463/152
f 255/464/103 265/463/103 266/465/103
f 256/456/153 266/465/153 267/466/153
f 267/468/154 268/479/154 258/469/154
f 258/469/155 268/479/155 269/470/155
f 259/459/156 269/470/156 270/471/156
f 270/471/108 271/473/108 261/472/108
f 271/473/157 272/483/157 262/461/157
f 262/461/158 272/483/158 263/462/158
f 273/474/159 274/485/159 264/475/159
f 264/475/160 274/485/160 275/476/160
f 275/476/103 276/477/103 266/465/103
f 276/477/161 277/488/161 267/466/161
f 267/468/162 277/490/162 278/478/162
f 278/478/163 279/480/163 269/470/163
f 279/480/164 280/481/164 270/471/164
f 280/481/108 281/482/108 271/473/108
f 281/482/165 282/495/165 272/483/165
f 272/483/166 282/495/166 273/474/166
f 273/474/167 283/498/167 284/484/167
f 284/484/168 285/486/168 275/476/168
f 285/486/103 286/501/103 276/477/103
f 276/477/169 286/501/169 287/487/169
f 287/489/170 288/491/170 278/478/170
f 288/491/171 289/492/171 279/480/171
f 289/492/172 290/493/172 280/481/172
f 290/493/108 291/494/108 281/482/108
f 291/494/173 292/496/173 282/495/173
f 292/496/174 283/498/174 273/474/174
f 293/497/175 294/499/175 284/484/175
f 294/499/176 295/509/176 285/486/176
f 285/486/103 295/509/103 296/500/103
f 286/501/177 296/500/177 297/502/177
f 297/503/178 298/513/178 288/491/178
f 288/491/179 298/513/179 299/504/179
f 299/504/180 300/505/180 290/493/180
f 300/505/108 301/506/108 291/494/108
f 301/506/181 302/507/181 292/496/181
f 302/507/182 293/497/182 283/498/182
f 293/497/183 303/520/183 304/508/183
f 304/508/184 305/510/184 295/509/184
f 305/510/103 306/522/103 296/500/103
f 296/500/185 306/522/185 307/511/185
f 307/512/186 308/514/186 298/513/186
f 308/514/187 309/515/187 299/504/187
f 309/515/188 310/516/188 300/505/188
f 310/516/108 311/517/108 301/506/108
f 311/517/189 312/518/189 302/507/189
f 312/518/190 303/520/190 293/497/190
f 313/519/191 314/530/191 304/508/191
f 304/508/192 314/530/192 315/521/192
f 315/521/103 316/523/103 306/522/103
f 316/523/193 317/534/193 307/511/193
f 317/524/194 318/525/194 308/514/194
f 318/525/195 319/526/195 309/515/195
f 319/526/196 320/538/196 310/516/196
f 310/516/108 320/538/108 321/527/108
f 321/527/197 322/528/197 312/518/197
f 322/528/198 313/519/198 303/520/198
f 323/529/199 324/531/199 314/530/199
f 324/531/311 325/532/311 315/521/311
f 325/532/103 326/533/103 316/523/103
f 326/533/301 327/543/301 317/534/301
f 327/535/202 328/536/202 318/525/202
f 328/536/203 329/546/203 319/526/203
f 319/526/204 329/546/204 330/537/204
f 320/538/108 330/537/108 331/539/108
f 331/539/205 332/550/205 322/528/205
f 322/528/206 332/550/206 323/529/206
f 333/540/207 334/552/207 324/531/207
f 324/531/208 334/552/208 335/541/208
f 325/532/103 335/541/103 336/542/103
f 336/542/209 337/554/209 327/543/209
f 337/544/210 338/545/210 328/536/210
f 338/545/211 339/547/211 329/546/211
f 339/547/212 340/548/212 330/537/212
f 340/548/108 341/558/108 331/539/108
f 331/539/213 341/558/213 342/549/213
f 342/549/214 333/540/214 323/529/214
f 333/540/215 343/560/215 344/551/215
f 344/551/216 345/563/216 335/541/216
f 335/541/103 345/563/103 346/553/103
f 346/553/217 347/565/217 337/554/217
f 347/555/218 348/556/218 338/545/218
f 348/556/219 349/568/219 339/547/219
f 339/547/220 349/568/220 350/557/220
f 350/557/108 351/571/108 341/558/108
f 341/558/221 351/571/221 352/559/221
f 352/559/222 343/560/222 333/540/222
f 343/560/304 353/573/304 354/561/304
f 344/551/224 354/561/224 355/562/224
f 355/562/103 356/564/103 346/553/103
f 356/564/225 357/577/225 347/565/225
f 357/566/303 358/567/303 348/556/303
f 358/567/227 359/579/227 349/568/227
f 349/568/228 359/579/228 360/569/228
f 350/557/108 360/569/108 361/570/108
f 361/570/229 362/572/229 352/559/229
f 362/572/305 353/573/305 343/560/305
f 353/573/231 363/584/231 364/574/231
f 364/574/232 365/575/232 355/562/232
f 365/575/103 366/576/103 356/564/103
f 366/576/233 367/588/233 357/577/233
f 357/566/234 367/590/234 368/578/234
f 368/578/235 369/580/235 359/579/235
f 369/580/236 370/581/236 360/569/236
f 370/581/108 371/582/108 361/570/108
f 371/582/237 372/583/237 362/572/237
f 372/583/238 363/584/238 353/573/238
f 363/584/239 373/595/239 374/585/239
f 374/585/240 375/586/240 365/575/240
f 375/586/103 376/587/103 366/576/103
f 376/587/241 377/599/241 367/588/241
f 377/589/242 378/591/242 368/578/242
f 378/591/243 379/592/243 369/580/243
f 379/592/244 380/602/244 370/581/244
f 370/581/108 380/602/108 381/593/108
f 371/582/245 381/593/245 382/594/245
f 382/594/246 373/595/246 363/584/246
f 373/595/247 383/607/247 384/596/247
f 384/596/248 385/609/248 375/586/248
f 375/586/103 385/609/103 386/597/103
f 376/587/249 386/597/249 387/598/249
f 387/600/250 388/612/250 378/591/250
f 378/591/251 388/612/251 389/601/251
f 389/601/252 390/603/252 380/602/252
f 390/603/108 391/604/108 381/593/108
f 391/604/253 392/605/253 382/594/253
f 392/605/254 383/607/254 373/595/254
f 393/606/255 394/617/255 384/596/255
f 384/596/256 394/617/256 395/608/256
f 395/608/103 396/620/103 386/597/103
f 386/597/257 396/620/257 397/610/257
f 397/611/258 398/623/258 388/612/258
f 388/612/259 398/623/259 399/613/259
f 399/613/260 400/626/260 390/603/260
f 390/603/108 400/626/108 401/614/108
f 401/614/261 402/615/261 392/605/261
f 402/615/262 393/606/262 383/607/262
f 403/616/312 404/618/312 394/617/312
f 404/618/264 405/619/264 395/608/264
f 405/619/103 406/621/103 396/620/103
f 406/621/265 407/631/265 397/610/265
f 407/622/266 408/633/266 398/623/266
f 398/623/267 408/633/267 409/624/267
f 399/613/268 409/624/268 410/625/268
f 410/625/108 411/627/108 401/614/108
f 411/627/269 412/637/269 402/615/269
f 402/615/313 412/637/313 403/616/313
f 403/616/271 413/639/271 414/628/271
f 414/628/272 415/629/272 405/619/272
f 415/629/103 416/630/103 406/621/103
f 416/630/273 417/643/273 407/631/273
f 417/632/274 418/634/274 408/633/274
f 418/634/275 419/635/275 409/624/275
f 419/635/276 420/646/276 410/625/276
f 410/625/108 420/646/108 421/636/108
f 421/636/277 422/638/277 412/637/277
f 422/638/278 413/639/278 403/616/278
f 413/639/279 423/651/279 424/640/279
f 424/640/280 425/641/280 415/629/280
f 425/641/103 426/642/103 416/630/103
f 426/642/281 427/654/281 417/643/281
f 427/644/282 428/656/282 418/634/282
f 418/634/283 428/656/283 429/645/283
f 429/645/284 430/647/284 420/646/284
f 430/647/108 431/648/108 421/636/108
f 431/648/285 432/649/285 422/638/285
f 432/649/286 423/651/286 413/639/286
f 433/650/287 434/652/287 424/640/287
f 434/652/308 435/925/308 425/641/308
f 425/641/103 435/925/103 436/653/103
f 436/653/307 437/926/307 427/654/307
f 437/655/290 438/927/290 428/656/290
f 428/656/291 438/927/291 439/657/291
f 439/657/314 440/658/314 430/647/314
f 440/658/108 441/659/108 431/648/108
f 441/659/315 442/660/315 432/649/315
f 442/660/294 433/650/294 423/651/294
f 443/661/105 444/664/105 434/662/105
f 444/664/309 445/666/309 435/665/309
f 445/666/103 446/668/103 436/667/103
f 446/668/102 447/685/102 437/669/102
f 447/670/101 448/673/101 438/671/101
f 448/673/110 449/688/110 439/674/110
f 439/674/310 449/688/310 450/675/310
f 440/676/108 450/675/108 451/677/108
f 451/677/107 452/680/107 442/679/107
f 452/680/106 443/661/106 433/663/106
f 453/681/114 454/682/114 444/664/114
f 454/682/113 455/683/113 445/666/113
f 455/683/103 456/684/103 446/668/103
f 456/684/112 457/695/112 447/685/112
f 457/686/111 458/687/111 448/673/111
f 458/687/118 459/698/118 449/688/118
f 449/688/117 459/698/117 460/689/117
f 460/689/108 461/690/108 451/677/108
f 461/690/116 462/691/116 452/680/116
f 462/691/115 453/681/115 443/661/115
f 463/692/122 464/693/122 454/682/122
f 464/693/121 465/703/121 455/683/121
f 455/683/103 465/703/103 466/694/103
f 466/694/120 467/706/120 457/695/120
f 467/696/119 468/697/119 458/687/119
f 468/697/126 469/708/126 459/698/126
f 459/698/125 469/708/125 470/699/125
f 470/699/108 471/700/108 461/690/108
f 471/700/124 472/701/124 462/691/124
f 472/701/123 463/692/123 453/681/123
f 463/692/130 473/713/130 474/702/130
f 474/702/129 475/704/129 465/703/129
f 475/704/103 476/705/103 466/694/103
f 476/705/128 477/716/128 467/706/128
f 467/696/127 477/717/127 478/707/127
f 478/707/134 479/719/134 469/708/134
f 469/708/133 479/719/133 480/709/133
f 470/699/108 480/709/108 481/710/108
f 481/710/132 482/711/132 472/701/132
f 482/711/131 473/713/131 463/692/131
f 483/712/138 484/714/138 474/702/138
f 484/714/137 485/725/137 475/704/137
f 475/704/103 485/725/103 486/715/103
f 486/715/136 487/727/136 477/716/136
f 477/717/135 487/728/135 488/718/135
f 488/718/142 489/730/142 479/719/142
f 479/719/141 489/730/141 490/720/141
f 490/720/108 491/721/108 481/710/108
f 491/721/140 492/722/140 482/711/140
f 492/722/139 483/712/139 473/713/139
f 493/723/146 494/734/146 484/714/146
f 484/714/145 494/734/145 495/724/145
f 495/724/103 496/726/103 486/715/103
f 496/726/144 497/737/144 487/727/144
f 487/728/143 497/738/143 498/729/143
f 498/729/150 499/740/150 489/730/150
f 489/730/149 499/740/149 500/731/149
f 490/720/108 500/731/108 501/732/108
f 501/732/148 502/744/148 492/722/148
f 492/722/147 502/744/147 493/723/147
f 503/733/154 504/747/154 494/734/154
f 494/734/153 504/747/153 505/735/153
f 495/724/103 505/735/103 506/736/103
f 506/736/152 507/750/152 497/737/152
f 497/738/151 507/752/151 508/739/151
f 508/739/158 509/741/158 499/740/158
f 509/741/157 510/742/157 500/731/157
f 510/742/108 511/743/108 501/732/108
f 511/743/156 512/745/156 502/744/156
f 512/745/155 503/733/155 493/723/155
f 513/746/162 514/748/162 504/747/162
f 514/748/161 515/759/161 505/735/161
f 505/735/103 515/759/103 516/749/103
f 516/749/160 517/762/160 507/750/160
f 517/751/159 518/764/159 508/739/159
f 508/739/166 518/764/166 519/753/166
f 519/753/165 520/754/165 510/742/165
f 520/754/108 521/755/108 511/743/108
f 521/755/164 522/756/164 512/745/164
f 522/756/163 513/746/163 503/733/163
f 523/757/316 524/758/316 514/748/316
f 524/758/169 525/771/169 515/759/169
f 515/759/103 525/771/103 526/760/103
f 516/749/168 526/760/168 527/761/168
f 527/763/167 528/765/167 518/764/167
f 528/765/174 529/766/174 519/753/174
f 529/766/173 530/767/173 520/754/173
f 530/767/108 531/768/108 521/755/108
f 531/768/172 532/769/172 522/756/172
f 532/769/171 523/757/171 513/746/171
f 523/757/178 533/779/178 534/770/178
f 534/770/177 535/772/177 525/771/177
f 535/772/103 536/773/103 526/760/103
f 536/773/176 537/783/176 527/761/176
f 537/774/175 538/785/175 528/765/175
f 528/765/182 538/785/182 539/775/182
f 539/775/181 540/776/181 530/767/181
f 540/776/108 541/789/108 531/768/108
f 531/768/180 541/789/180 542/777/180
f 542/777/179 533/779/179 523/757/179
f 543/778/186 544/780/186 534/770/186
f 544/780/185 545/781/185 535/772/185
f 545/781/103 546/794/103 536/773/103
f 536/773/184 546/794/184 547/782/184
f 547/784/183 548/786/183 538/785/183
f 548/786/190 549/787/190 539/775/190
f 549/787/189 550/788/189 540/776/189
f 550/788/108 551/799/108 541/789/108
f 541/789/188 551/799/188 552/790/188
f 552/790/187 543/778/187 533/779/187
f 553/791/194 554/792/194 544/780/194
f 554/792/317 555/793/317 545/781/317
f 555/793/103 556/795/103 546/794/103
f 556/795/192 557/805/192 547/782/192
f 557/796/191 558/807/191 548/786/191
f 548/786/198 558/807/198 559/797/198
f 559/797/197 560/810/197 550/788/197
f 550/788/108 560/810/108 561/798/108
f 561/798/318 562/800/318 552/790/318
f 562/800/195 553/791/195 543/778/195
f 563/801/202 564/802/202 554/792/202
f 564/802/301 565/803/301 555/793/301
f 565/803/103 566/804/103 556/795/103
f 566/804/200 567/818/200 557/805/200
f 567/806/199 568/808/199 558/807/199
f 568/808/206 569/809/206 559/797/206
f 569/809/302 570/811/302 560/810/302
f 570/811/108 571/812/108 561/798/108
f 571/812/204 572/813/204 562/800/204
f 572/813/203 563/801/203 553/791/203
f 573/814/210 574/815/210 564/802/210
f 574/815/209 575/816/209 565/803/209
f 575/816/103 576/817/103 566/804/103
f 576/817/208 577/827/208 567/818/208
f 577/819/207 578/820/207 568/808/207
f 578/820/214 579/821/214 569/809/214
f 579/821/213 580/822/213 570/811/213
f 580/822/108 581/831/108 571/812/108
f 571/812/212 581/831/212 582/823/212
f 582/823/211 573/814/211 563/801/211
f 573/814/218 583/834/218 584/824/218
f 584/824/217 585/836/217 575/816/217
f 575/816/103 585/836/103 586/825/103
f 576/817/216 586/825/216 587/826/216
f 587/828/215 588/839/215 578/820/215
f 578/820/222 588/839/222 589/829/222
f 589/829/221 590/830/221 580/822/221
f 590/830/108 591/842/108 581/831/108
f 581/831/220 591/842/220 592/832/220
f 592/832/219 583/834/219 573/814/219
f 593/833/303 594/835/303 584/824/303
f 594/835/225 595/846/225 585/836/225
f 585/836/103 595/846/103 596/837/103
f 596/837/224 597/849/224 587/826/224
f 597/838/304 598/840/304 588/839/304
f 598/840/305 599/852/305 589/829/305
f 589/829/229 599/852/229 600/841/229
f 600/841/108 601/854/108 591/842/108
f 591/842/228 601/854/228 602/843/228
f 592/832/227 602/843/227 593/833/227
f 603/844/234 604/845/234 594/835/234
f 604/845/233 605/847/233 595/846/233
f 605/847/103 606/860/103 596/837/103
f 596/837/232 606/860/232 607/848/232
f 607/850/231 608/863/231 598/840/231
f 598/840/238 608/863/238 609/851/238
f 609/851/237 610/853/237 600/841/237
f 610/853/108 611/855/108 601/854/108
f 611/855/236 612/856/236 602/843/236
f 612/856/235 603/844/235 593/833/235
f 613/857/242 614/858/242 604/845/242
f 614/858/241 615/859/241 605/847/241
f 615/859/103 616/861/103 606/860/103
f 616/861/240 617/872/240 607/848/240
f 617/862/239 618/864/239 608/863/239
f 618/864/246 619/865/246 609/851/246
f 619/865/245 620/866/245 610/853/245
f 620/866/108 621/867/108 611/855/108
f 621/867/244 622/868/244 612/856/244
f 622/868/243 613/857/243 603/844/243
f 623/869/250 624/877/250 614/858/250
f 614/858/249 624/877/249 625/870/249
f 625/870/103 626/871/103 616/861/103
f 626/871/248 627/880/248 617/872/248
f 627/873/247 628/882/247 618/864/247
f 618/864/254 628/882/254 629/874/254
f 629/874/253 630/885/253 620/866/253
f 620/866/108 630/885/108 631/875/108
f 631/875/252 632/888/252 622/868/252
f 622/868/251 632/888/251 623/869/251
f 623/869/258 633/891/258 634/876/258
f 624/877/257 634/876/257 635/878/257
f 635/878/103 636/879/103 626/871/103
f 636/879/256 637/895/256 627/880/256
f 637/881/255 638/883/255 628/882/255
f 638/883/262 639/884/262 629/874/262
f 639/884/261 640/886/261 630/885/261
f 640/886/108 641/887/108 631/875/108
f 641/887/260 642/889/260 632/888/260
f 642/889/259 633/891/259 623/869/259
f 643/890/266 644/892/266 634/876/266
f 644/892/265 645/904/265 635/878/265
f 635/878/103 645/904/103 646/893/103
f 636/879/264 646/893/264 647/894/264
f 647/896/263 648/897/263 638/883/263
f 648/897/313 649/898/313 639/884/313
f 649/898/269 650/899/269 640/886/269
f 650/899/108 651/900/108 641/887/108
f 651/900/268 652/901/268 642/889/268
f 652/901/319 643/890/319 633/891/319
f 653/902/274 654/903/274 644/892/274
f 654/903/273 655/905/273 645/904/273
f 655/905/103 656/906/103 646/893/103
f 656/906/272 657/914/272 647/894/272
f 657/907/271 658/916/271 648/897/271
f 648/897/278 658/916/278 659/908/278
f 659/908/277 660/919/277 650/899/277
f 650/899/108 660/919/108 661/909/108
f 651/900/276 661/909/276 662/910/276
f 662/910/275 653/902/275 643/890/275
f 663/911/282 664/922/282 654/903/282
f 654/903/281 664/922/281 665/912/281
f 665/912/103 666/923/103 656/906/103
f 656/906/280 666/923/280 667/913/280
f 667/915/279 668/917/279 658/916/279
f 668/917/286 669/918/286 659/908/286
f 669/918/285 670/920/285 660/919/285
f 670/920/108 671/921/108 661/909/108
f 671/921/284 672/924/284 662/910/284
f 662/910/283 672/924/283 663/911/283
f 193/391/290 194/390/290 664/922/290
f 194/390/289 195/393/289 665/912/289
f 195/393/103 196/395/103 666/923/103
f 196/395/288 197/397/288 667/913/288
f 197/400/287 198/399/287 668/917/287
f 198/399/294 199/402/294 669/918/294
f 669/918/315 199/402/315 200/404/315
f 200/404/108 201/406/108 671/921/108
f 671/921/314 201/406/314 202/408/314
f 202/408/291 193/391/291 663/911/291
