# Blender 5.1.2
# www.blender.org
mtllib cylinder_holder.mtl
o rack_01.001
v -0.082500 -0.025000 0.000000
v -0.082500 -0.025000 0.008000
v -0.082500 0.025000 0.000000
v -0.082500 0.025000 0.008000
v 0.082500 -0.025000 0.000000
v 0.082500 -0.025000 0.008000
v 0.082500 0.025000 0.000000
v 0.082500 0.025000 0.008000
v -0.082500 -0.025000 0.068000
v -0.082500 -0.025000 0.080000
v -0.082500 0.025000 0.068000
v -0.082500 0.025000 0.080000
v 0.082500 -0.025000 0.068000
v 0.082500 -0.025000 0.080000
v 0.082500 0.025000 0.068000
v 0.082500 0.025000 0.080000
v -0.082500 -0.025000 0.008000
v -0.082500 -0.025000 0.068000
v -0.082500 0.025000 0.008000
v -0.082500 0.025000 0.068000
v -0.074500 -0.025000 0.008000
v -0.074500 -0.025000 0.068000
v -0.074500 0.025000 0.008000
v -0.074500 0.025000 0.068000
v 0.074500 -0.025000 0.008000
v 0.074500 -0.025000 0.068000
v 0.074500 0.025000 0.008000
v 0.074500 0.025000 0.068000
v 0.082500 -0.025000 0.008000
v 0.082500 -0.025000 0.068000
v 0.082500 0.025000 0.008000
v 0.082500 0.025000 0.068000
v -0.018864 0.006364 0.068000
v -0.014829 0.008693 0.068000
v -0.017000 0.007794 0.068000
v -0.012500 0.009000 0.068000
v -0.010171 0.008693 0.068000
v -0.004706 0.004500 0.068000
v -0.006136 0.006364 0.068000
v -0.008000 0.007794 0.068000
v 0.003645 -0.001105 0.068000
v 0.003807 0.002329 0.068000
v 0.003500 0.000000 0.068000
v -0.003645 0.001105 0.068000
v -0.003807 0.002329 0.068000
v 0.008000 0.007794 0.068000
v 0.006136 0.006364 0.068000
v 0.012500 0.009000 0.068000
v 0.010171 0.008693 0.068000
v 0.004706 0.004500 0.068000
v 0.017000 0.007794 0.068000
v 0.018864 0.006364 0.068000
v 0.021193 0.002329 0.068000
v 0.031074 0.000561 0.068000
v 0.031000 0.000000 0.068000
v 0.021398 -0.000776 0.068000
v 0.021500 0.000000 0.068000
v 0.021193 -0.002329 0.068000
v 0.020294 -0.004500 0.068000
v 0.020294 0.004500 0.068000
v 0.031871 -0.003250 0.068000
v 0.031871 0.003250 0.068000
v 0.035818 0.006279 0.068000
v 0.034250 -0.005629 0.068000
v 0.034250 0.005629 0.068000
v 0.032904 -0.004596 0.068000
v 0.032904 0.004596 0.068000
v 0.035818 -0.006279 0.068000
v 0.031221 -0.001682 0.068000
v 0.031221 0.001682 0.068000
v 0.014829 0.008693 0.068000
v 0.039182 -0.006279 0.068000
v 0.037500 -0.006500 0.068000
v 0.039182 0.006279 0.068000
v 0.042096 -0.004596 0.068000
v 0.042096 0.004596 0.068000
v 0.040750 -0.005629 0.068000
v 0.040750 0.005629 0.068000
v 0.044000 0.000000 0.068000
v 0.056000 0.000000 0.068000
v 0.056074 0.000561 0.068000
v 0.043926 -0.000561 0.068000
v 0.043779 -0.001682 0.068000
v 0.043779 0.001682 0.068000
v 0.056221 -0.001682 0.068000
v 0.056871 -0.003250 0.068000
v 0.056871 0.003250 0.068000
v 0.056221 0.001682 0.068000
v 0.057904 -0.004596 0.068000
v 0.043129 -0.003250 0.068000
v 0.043129 0.003250 0.068000
v 0.059250 -0.005629 0.068000
v 0.059250 0.005629 0.068000
v 0.062500 0.006500 0.068000
v 0.064182 -0.006279 0.068000
v 0.062500 -0.006500 0.068000
v 0.064182 0.006279 0.068000
v 0.060818 -0.006279 0.068000
v 0.060818 0.006279 0.068000
v 0.067096 -0.004596 0.068000
v 0.067096 0.004596 0.068000
v 0.069000 0.000000 0.068000
v 0.068779 -0.001682 0.068000
v 0.068779 0.001682 0.068000
v 0.068129 0.003250 0.068000
v 0.065750 -0.005629 0.068000
v 0.068129 -0.003250 0.068000
v 0.065750 0.005629 0.068000
v 0.057904 0.004596 0.068000
v 0.037500 0.006500 0.068000
v -0.071500 0.000000 0.068000
v -0.071193 -0.002329 0.068000
v -0.071193 0.002329 0.068000
v -0.068864 -0.006364 0.068000
v -0.068243 0.006841 0.068000
v -0.068864 0.006364 0.068000
v -0.067000 -0.007794 0.068000
v -0.070294 -0.004500 0.068000
v -0.070294 0.004500 0.068000
v -0.064829 -0.008693 0.068000
v -0.064829 0.008693 0.068000
v -0.060171 0.008693 0.068000
v -0.058000 -0.007794 0.068000
v -0.060171 -0.008693 0.068000
v -0.058000 0.007794 0.068000
v -0.062500 -0.009000 0.068000
v -0.062500 0.009000 0.068000
v -0.067000 0.007794 0.068000
v -0.054706 -0.004500 0.068000
v -0.054706 0.004500 0.068000
v -0.053500 0.000000 0.068000
v -0.053602 -0.000776 0.068000
v -0.046500 0.000000 0.068000
v -0.046398 0.000776 0.068000
v -0.046193 0.002329 0.068000
v -0.053807 0.002329 0.068000
v -0.053807 -0.002329 0.068000
v -0.046193 -0.002329 0.068000
v -0.043864 -0.006364 0.068000
v -0.045294 -0.004500 0.068000
v -0.043864 0.006364 0.068000
v -0.039829 -0.008693 0.068000
v -0.039829 0.008693 0.068000
v -0.042000 -0.007794 0.068000
v -0.042000 0.007794 0.068000
v -0.056136 -0.006364 0.068000
v -0.045294 0.004500 0.068000
v -0.056136 0.006364 0.068000
v -0.037500 -0.009000 0.068000
v -0.037500 0.009000 0.068000
v -0.033000 0.007794 0.068000
v -0.035171 -0.008693 0.068000
v -0.035171 0.008693 0.068000
v -0.031136 -0.006364 0.068000
v -0.029706 -0.004500 0.068000
v -0.029706 0.004500 0.068000
v -0.033000 -0.007794 0.068000
v -0.031136 0.006364 0.068000
v -0.028602 -0.000776 0.068000
v -0.028500 0.000000 0.068000
v -0.021398 0.000776 0.068000
v -0.021500 0.000000 0.068000
v -0.021193 0.002329 0.068000
v -0.028807 0.002329 0.068000
v -0.020294 0.004500 0.068000
v -0.018864 -0.006364 0.068000
v -0.020294 -0.004500 0.068000
v -0.021193 -0.002329 0.068000
v -0.017000 -0.007794 0.068000
v -0.028807 -0.002329 0.068000
v -0.014829 -0.008693 0.068000
v -0.008000 -0.007794 0.068000
v -0.010171 -0.008693 0.068000
v -0.012500 -0.009000 0.068000
v -0.004706 -0.004500 0.068000
v -0.003500 0.000000 0.068000
v -0.003807 -0.002329 0.068000
v -0.006136 -0.006364 0.068000
v 0.004706 -0.004500 0.068000
v 0.008000 -0.007794 0.068000
v 0.006136 -0.006364 0.068000
v 0.014829 -0.008693 0.068000
v 0.012500 -0.009000 0.068000
v 0.018864 -0.006364 0.068000
v 0.017000 -0.007794 0.068000
v 0.010171 -0.008693 0.068000
v 0.003807 -0.002329 0.068000
v -0.071500 0.000000 0.080000
v -0.071193 0.002329 0.080000
v -0.071193 -0.002329 0.080000
v -0.068864 -0.006364 0.080000
v -0.068243 -0.006841 0.080000
v -0.068864 0.006364 0.080000
v -0.067000 -0.007794 0.080000
v -0.070294 -0.004500 0.080000
v -0.070294 0.004500 0.080000
v -0.064829 -0.008693 0.080000
v -0.064829 0.008693 0.080000
v -0.060171 -0.008693 0.080000
v -0.058000 0.007794 0.080000
v -0.058000 -0.007794 0.080000
v -0.060171 0.008693 0.080000
v -0.062500 -0.009000 0.080000
v -0.062500 0.009000 0.080000
v -0.067000 0.007794 0.080000
v -0.054706 -0.004500 0.080000
v -0.054706 0.004500 0.080000
v -0.053602 0.000776 0.080000
v -0.053500 0.000000 0.080000
v -0.046500 0.000000 0.080000
v -0.046193 -0.002329 0.080000
v -0.046398 -0.000776 0.080000
v -0.053807 0.002329 0.080000
v -0.046193 0.002329 0.080000
v -0.053807 -0.002329 0.080000
v -0.043864 0.006364 0.080000
v -0.043864 -0.006364 0.080000
v -0.045294 0.004500 0.080000
v -0.039829 -0.008693 0.080000
v -0.039829 0.008693 0.080000
v -0.042000 -0.007794 0.080000
v -0.042000 0.007794 0.080000
v -0.056136 -0.006364 0.080000
v -0.045294 -0.004500 0.080000
v -0.056136 0.006364 0.080000
v -0.037500 -0.009000 0.080000
v -0.037500 0.009000 0.080000
v -0.033000 -0.007794 0.080000
v -0.035171 -0.008693 0.080000
v -0.035171 0.008693 0.080000
v -0.031136 0.006364 0.080000
v -0.029706 -0.004500 0.080000
v -0.029706 0.004500 0.080000
v -0.031136 -0.006364 0.080000
v -0.033000 0.007794 0.080000
v -0.028500 0.000000 0.080000
v -0.028602 0.000776 0.080000
v -0.021500 0.000000 0.080000
v -0.021398 -0.000776 0.080000
v -0.021193 -0.002329 0.080000
v -0.028807 0.002329 0.080000
v -0.021193 0.002329 0.080000
v -0.020294 -0.004500 0.080000
v -0.018864 0.006364 0.080000
v -0.020294 0.004500 0.080000
v -0.028807 -0.002329 0.080000
v -0.017000 0.007794 0.080000
v -0.014829 0.008693 0.080000
v -0.008000 0.007794 0.080000
v -0.010171 0.008693 0.080000
v -0.012500 0.009000 0.080000
v -0.004706 0.004500 0.080000
v 0.003645 0.001105 0.080000
v -0.003500 0.000000 0.080000
v -0.003645 -0.001105 0.080000
v -0.003807 0.002329 0.080000
v -0.006136 0.006364 0.080000
v 0.004706 0.004500 0.080000
v 0.008000 0.007794 0.080000
v 0.006136 0.006364 0.080000
v 0.014829 0.008693 0.080000
v 0.012500 0.009000 0.080000
v 0.018864 0.006364 0.080000
v 0.017000 0.007794 0.080000
v 0.010171 0.008693 0.080000
v 0.003807 0.002329 0.080000
v -0.018864 -0.006364 0.080000
v -0.014829 -0.008693 0.080000
v -0.012500 -0.009000 0.080000
v -0.017000 -0.007794 0.080000
v -0.010171 -0.008693 0.080000
v -0.004706 -0.004500 0.080000
v -0.006136 -0.006364 0.080000
v -0.008000 -0.007794 0.080000
v 0.003807 -0.002329 0.080000
v -0.003807 -0.002329 0.080000
v 0.003500 0.000000 0.080000
v 0.008000 -0.007794 0.080000
v 0.006136 -0.006364 0.080000
v 0.012500 -0.009000 0.080000
v 0.010171 -0.008693 0.080000
v 0.004706 -0.004500 0.080000
v 0.017000 -0.007794 0.080000
v 0.018864 -0.006364 0.080000
v 0.021193 -0.002329 0.080000
v 0.031000 0.000000 0.080000
v 0.031074 -0.000561 0.080000
v 0.021500 0.000000 0.080000
v 0.021398 0.000776 0.080000
v 0.021193 0.002329 0.080000
v 0.020294 -0.004500 0.080000
v 0.020294 0.004500 0.080000
v 0.031871 -0.003250 0.080000
v 0.031871 0.003250 0.080000
v 0.035818 -0.006279 0.080000
v 0.034250 -0.005629 0.080000
v 0.034250 0.005629 0.080000
v 0.032904 -0.004596 0.080000
v 0.032904 0.004596 0.080000
v 0.031221 -0.001682 0.080000
v 0.031221 0.001682 0.080000
v 0.035818 0.006279 0.080000
v 0.014829 -0.008693 0.080000
v 0.039182 0.006279 0.080000
v 0.039182 -0.006279 0.080000
v 0.037500 0.006500 0.080000
v 0.042096 -0.004596 0.080000
v 0.042096 0.004596 0.080000
v 0.040750 -0.005629 0.080000
v 0.040750 0.005629 0.080000
v 0.056000 0.000000 0.080000
v 0.044000 0.000000 0.080000
v 0.056074 -0.000561 0.080000
v 0.043926 0.000561 0.080000
v 0.043779 -0.001682 0.080000
v 0.043779 0.001682 0.080000
v 0.056221 0.001682 0.080000
v 0.056871 -0.003250 0.080000
v 0.056871 0.003250 0.080000
v 0.056221 -0.001682 0.080000
v 0.057904 -0.004596 0.080000
v 0.043129 -0.003250 0.080000
v 0.043129 0.003250 0.080000
v 0.059250 -0.005629 0.080000
v 0.059250 0.005629 0.080000
v 0.062500 -0.006500 0.080000
v 0.064182 0.006279 0.080000
v 0.064182 -0.006279 0.080000
v 0.062500 0.006500 0.080000
v 0.060818 -0.006279 0.080000
v 0.060818 0.006279 0.080000
v 0.067096 -0.004596 0.080000
v 0.067096 0.004596 0.080000
v 0.069000 0.000000 0.080000
v 0.068779 -0.001682 0.080000
v 0.068779 0.001682 0.080000
v 0.068129 0.003250 0.080000
v 0.065750 -0.005629 0.080000
v 0.068129 -0.003250 0.080000
v 0.065750 0.005629 0.080000
v 0.037500 -0.006500 0.080000
v 0.057904 0.004596 0.080000
vn -1.0000 -0.0000 -0.0000
vn -0.0000 1.0000 -0.0000
vn 1.0000 -0.0000 -0.0000
vn -0.0000 -1.0000 -0.0000
vn -0.0000 -0.0000 -1.0000
vn -0.0000 -0.0000 1.0000
vn -0.1305 -0.9914 -0.0000
vn -0.3827 -0.9239 -0.0000
vn -0.6088 -0.7934 -0.0000
vn -0.7934 -0.6088 -0.0000
vn -0.9239 -0.3827 -0.0000
vn -0.9914 -0.1305 -0.0000
vn -0.9914 0.1305 -0.0000
vn -0.9239 0.3827 -0.0000
vn -0.7934 0.6088 -0.0000
vn -0.6088 0.7934 -0.0000
vn -0.3827 0.9239 -0.0000
vn -0.1305 0.9914 -0.0000
vn 0.1305 0.9914 -0.0000
vn 0.3827 0.9239 -0.0000
vn 0.6088 0.7934 -0.0000
vn 0.7934 0.6088 -0.0000
vn 0.9239 0.3827 -0.0000
vn 0.9914 0.1305 -0.0000
vn 0.9914 -0.1305 -0.0000
vn 0.9239 -0.3827 -0.0000
vn 0.7934 -0.6088 -0.0000
vn 0.6088 -0.7934 -0.0000
vn 0.3827 -0.9239 -0.0000
vn 0.1305 -0.9914 -0.0000
vn -0.7933 -0.6088 -0.0000
vt 0.625000 0.000000
vt 0.375000 0.250000
vt 0.375000 0.000000
vt 0.625000 0.250000
vt 0.375000 0.500000
vt 0.625000 0.500000
vt 0.375000 0.750000
vt 0.625000 0.750000
vt 0.375000 1.000000
vt 0.125000 0.750000
vt 0.125000 0.500000
vt 0.875000 0.500000
vt 0.255303 0.625000
vt 0.244697 0.625000
vt 0.244477 0.619477
vt 0.296970 0.625000
vt 0.282576 0.625000
vt 0.297082 0.622196
vt 0.334849 0.625000
vt 0.316667 0.625000
vt 0.334960 0.622196
vt 0.142131 0.613353
vt 0.168939 0.625000
vt 0.179545 0.625000
vt 0.168785 0.628882
vt 0.206818 0.625000
vt 0.217424 0.625000
vt 0.206663 0.628882
vt 0.297305 0.616588
vt 0.282111 0.613353
vt 0.280749 0.602500
vt 0.875000 0.750000
vt 0.857869 0.636647
vt 0.831061 0.625000
vt 0.820454 0.625000
vt 0.831216 0.621118
vt 0.793182 0.625000
vt 0.782576 0.625000
vt 0.793337 0.621118
vt 0.684653 0.608750
vt 0.683669 0.616588
vt 0.664816 0.616588
vt 0.744697 0.625000
vt 0.755303 0.625000
vt 0.755523 0.630523
vt 0.703030 0.625000
vt 0.717424 0.625000
vt 0.702918 0.627804
vt 0.665152 0.625000
vt 0.683333 0.625000
vt 0.665040 0.627804
vt 1.000000 0.666667
vt 0.958333 0.833333
vt 1.000000 0.833333
vt 0.958333 0.666667
vt 0.916667 0.833333
vt 0.916667 0.666667
vt 0.875000 0.833333
vt 0.833333 0.666667
vt 0.875000 0.666667
vt 0.791667 0.666667
vt 0.833333 0.833333
vt 0.750000 0.666667
vt 0.763889 0.833333
vt 0.791667 0.833333
vt 0.736111 0.666667
vt 0.708333 0.833333
vt 0.750000 0.833333
vt 0.666667 0.666667
vt 0.708333 0.666667
vt 0.625000 0.666667
vt 0.666667 0.833333
vt 0.583333 0.666667
vt 0.625000 0.833333
vt 0.541667 0.666667
vt 0.583333 0.833333
vt 0.500000 0.666667
vt 0.541666 0.833333
vt 0.458333 0.666667
vt 0.500000 0.833333
vt 0.416667 0.666667
vt 0.458333 0.833333
vt 0.375000 0.666667
vt 0.388889 0.833333
vt 0.416666 0.833333
vt 0.333333 0.833333
vt 0.375000 0.833333
vt 0.333333 0.666667
vt 0.291667 0.833333
vt 0.291667 0.666667
vt 0.250000 0.833333
vt 0.250000 0.666667
vt 0.208333 0.833333
vt 0.208333 0.666667
vt 0.166666 0.833333
vt 0.166666 0.666667
vt 0.125000 0.833333
vt 0.125000 0.666667
vt 0.111111 0.666667
vt 0.083333 0.833333
vt 0.083333 0.666667
vt 0.041666 0.833333
vt 0.041666 0.666667
vt -0.000000 0.833333
vt 0.763889 0.833333
vt 0.736111 0.666667
vt 0.375000 0.666667
vt 0.263889 0.833333
vt 0.250000 0.666667
vt 0.236111 0.666667
vt 0.769760 0.666667
vt 0.730240 0.833333
vt 0.236111 0.666667
vt 0.763889 0.833333
vt 0.736111 0.666667
vt 0.269760 0.666667
vt 0.230240 0.833333
vt 0.736111 0.666667
vt 0.263889 0.833333
vt 0.750000 0.666667
vt 0.263889 0.833333
vt 0.625000 1.000000
vt 0.255523 0.630523
vt 0.282421 0.628882
vt 0.316555 0.627804
vt 0.143494 0.647500
vt 0.145661 0.656820
vt 0.146602 0.590796
vt 0.145661 0.593180
vt 0.143494 0.602500
vt 0.142131 0.636647
vt 0.141667 0.625000
vt 0.179700 0.621118
vt 0.217579 0.621118
vt 0.255768 0.636647
vt 0.257130 0.647500
vt 0.244232 0.636647
vt 0.259297 0.656820
vt 0.242870 0.647500
vt 0.262121 0.663971
vt 0.240703 0.656820
vt 0.265410 0.668467
vt 0.237879 0.663971
vt 0.268939 0.670000
vt 0.234590 0.668467
vt 0.231061 0.670000
vt 0.282111 0.636647
vt 0.297305 0.633412
vt 0.280749 0.647500
vt 0.298289 0.641250
vt 0.278582 0.656820
vt 0.299854 0.647981
vt 0.275758 0.663971
vt 0.301894 0.653146
vt 0.272469 0.668467
vt 0.304269 0.656393
vt 0.306818 0.657500
vt 0.316331 0.633412
vt 0.335184 0.633412
vt 0.315347 0.641250
vt 0.336168 0.641250
vt 0.313782 0.647981
vt 0.337733 0.647981
vt 0.311742 0.653146
vt 0.339773 0.653146
vt 0.309367 0.656393
vt 0.342148 0.656393
vt 0.344697 0.657500
vt 0.217889 0.636647
vt 0.206354 0.636647
vt 0.219251 0.647500
vt 0.204991 0.647500
vt 0.221418 0.656820
vt 0.202824 0.656820
vt 0.224242 0.663971
vt 0.200000 0.663971
vt 0.227531 0.668467
vt 0.196711 0.668467
vt 0.193182 0.670000
vt 0.180010 0.636647
vt 0.168475 0.636647
vt 0.181372 0.647500
vt 0.167112 0.647500
vt 0.183539 0.656820
vt 0.164945 0.656820
vt 0.186364 0.663971
vt 0.162121 0.663971
vt 0.189652 0.668467
vt 0.158832 0.668467
vt 0.155303 0.670000
vt 0.148485 0.663971
vt 0.148485 0.586029
vt 0.151774 0.581533
vt 0.151774 0.668467
vt 0.155303 0.580000
vt 0.158832 0.581533
vt 0.162121 0.586029
vt 0.168475 0.613353
vt 0.180010 0.613353
vt 0.167112 0.602500
vt 0.181372 0.602500
vt 0.164945 0.593180
vt 0.183539 0.593180
vt 0.347246 0.656393
vt 0.186364 0.586029
vt 0.349621 0.653146
vt 0.351661 0.647981
vt 0.189652 0.581533
vt 0.193182 0.580000
vt 0.353226 0.641250
vt 0.354210 0.633412
vt 0.196711 0.581533
vt 0.354545 0.625000
vt 0.200000 0.586029
vt 0.202824 0.593180
vt 0.354210 0.616588
vt 0.353226 0.608750
vt 0.206354 0.613353
vt 0.217889 0.613353
vt 0.204991 0.602500
vt 0.219251 0.602500
vt 0.351661 0.602019
vt 0.349621 0.596854
vt 0.221418 0.593180
vt 0.347246 0.593607
vt 0.344697 0.592500
vt 0.224242 0.586029
vt 0.227531 0.581533
vt 0.342148 0.593607
vt 0.339773 0.596854
vt 0.231061 0.580000
vt 0.337733 0.602019
vt 0.234590 0.581533
vt 0.237879 0.586029
vt 0.240703 0.593180
vt 0.335184 0.616588
vt 0.316331 0.616588
vt 0.336168 0.608750
vt 0.315347 0.608750
vt 0.313782 0.602019
vt 0.244232 0.613353
vt 0.255768 0.613353
vt 0.242870 0.602500
vt 0.257130 0.602500
vt 0.311742 0.596854
vt 0.259297 0.593180
vt 0.309367 0.593607
vt 0.306818 0.592500
vt 0.262121 0.586029
vt 0.265410 0.581533
vt 0.304269 0.593607
vt 0.268939 0.580000
vt 0.272469 0.581533
vt 0.301894 0.596854
vt 0.275758 0.586029
vt 0.299854 0.602019
vt 0.278582 0.593180
vt 0.298289 0.608750
vt 0.856506 0.602500
vt 0.854339 0.593180
vt 0.853398 0.659204
vt 0.854339 0.656820
vt 0.856506 0.647500
vt 0.857869 0.613353
vt 0.858333 0.625000
vt 0.820300 0.628882
vt 0.782421 0.628882
vt 0.744232 0.636647
vt 0.755768 0.636647
vt 0.742870 0.647500
vt 0.757130 0.647500
vt 0.740703 0.656820
vt 0.759297 0.656820
vt 0.737879 0.663971
vt 0.762121 0.663971
vt 0.734590 0.668467
vt 0.765410 0.668467
vt 0.731061 0.670000
vt 0.768939 0.670000
vt 0.782111 0.636647
vt 0.793647 0.636647
vt 0.780749 0.647500
vt 0.795009 0.647500
vt 0.778582 0.656820
vt 0.797176 0.656820
vt 0.775758 0.663971
vt 0.800000 0.663971
vt 0.772469 0.668467
vt 0.803289 0.668467
vt 0.806818 0.670000
vt 0.819990 0.636647
vt 0.831525 0.636647
vt 0.818628 0.647500
vt 0.832888 0.647500
vt 0.816461 0.656820
vt 0.835055 0.656820
vt 0.813636 0.663971
vt 0.837879 0.663971
vt 0.810348 0.668467
vt 0.841168 0.668467
vt 0.844697 0.670000
vt 0.851515 0.663971
vt 0.851515 0.586029
vt 0.848226 0.581533
vt 0.848226 0.668467
vt 0.844697 0.580000
vt 0.841168 0.581533
vt 0.837879 0.586029
vt 0.831525 0.613353
vt 0.819990 0.613353
vt 0.832888 0.602500
vt 0.818628 0.602500
vt 0.835055 0.593180
vt 0.816461 0.593180
vt 0.727531 0.668467
vt 0.724242 0.663971
vt 0.813636 0.586029
vt 0.721418 0.656820
vt 0.719251 0.647500
vt 0.810348 0.581533
vt 0.806818 0.580000
vt 0.717889 0.636647
vt 0.702695 0.633412
vt 0.803289 0.581533
vt 0.701711 0.641250
vt 0.700146 0.647981
vt 0.800000 0.586029
vt 0.797176 0.593180
vt 0.698106 0.653146
vt 0.695731 0.656393
vt 0.793647 0.613353
vt 0.782111 0.613353
vt 0.795009 0.602500
vt 0.780749 0.602500
vt 0.693182 0.657500
vt 0.778582 0.593180
vt 0.690633 0.656393
vt 0.688258 0.653146
vt 0.775758 0.586029
vt 0.772469 0.581533
vt 0.686218 0.647981
vt 0.684653 0.641250
vt 0.768939 0.580000
vt 0.683669 0.633412
vt 0.664816 0.633412
vt 0.765410 0.581533
vt 0.762121 0.586029
vt 0.663832 0.641250
vt 0.662267 0.647981
vt 0.759297 0.593180
vt 0.660227 0.653146
vt 0.755768 0.613353
vt 0.744477 0.619477
vt 0.744232 0.613353
vt 0.757130 0.602500
vt 0.742870 0.602500
vt 0.657852 0.656393
vt 0.655303 0.657500
vt 0.740703 0.593180
vt 0.652754 0.656393
vt 0.650379 0.653146
vt 0.737879 0.586029
vt 0.734590 0.581533
vt 0.648339 0.647981
vt 0.646774 0.641250
vt 0.731061 0.580000
vt 0.645790 0.633412
vt 0.727531 0.581533
vt 0.724242 0.586029
vt 0.645455 0.625000
vt 0.645790 0.616588
vt 0.721418 0.593180
vt 0.719251 0.602500
vt 0.646774 0.608750
vt 0.648339 0.602019
vt 0.717889 0.613353
vt 0.717579 0.621118
vt 0.702695 0.616588
vt 0.650379 0.596854
vt 0.652754 0.593607
vt 0.701711 0.608750
vt 0.700146 0.602019
vt 0.655303 0.592500
vt 0.657852 0.593607
vt 0.698106 0.596854
vt 0.695731 0.593607
vt 0.660227 0.596854
vt 0.662267 0.602019
vt 0.693182 0.592500
vt 0.690633 0.593607
vt 0.663832 0.608750
vt 0.688258 0.596854
vt 0.683445 0.622196
vt 0.686218 0.602019
vt -0.000000 0.666667
s 0
usemtl lab_acrylic
f 2/1/1 3/2/1 1/3/1
f 4/4/2 7/5/2 3/2/2
f 8/6/3 5/7/3 7/5/3
f 6/8/4 1/9/4 5/7/4
f 7/5/5 1/10/5 3/11/5
f 4/12/6 6/8/6 8/6/6
f 10/1/1 11/2/1 9/3/1
f 12/4/2 15/5/2 11/2/2
f 16/6/3 13/7/3 15/5/3
f 14/8/4 9/9/4 13/7/4
f 43/13/5 176/14/5 44/15/5
f 55/16/5 57/17/5 54/18/5
f 80/19/5 79/20/5 81/21/5
f 9/10/5 11/11/5 113/22/5
f 131/23/5 133/24/5 132/25/5
f 160/26/5 162/27/5 159/28/5
f 70/29/5 53/30/5 60/31/5
f 12/12/6 10/32/6 190/33/6
f 209/34/6 210/35/6 208/36/6
f 236/37/6 238/38/6 237/39/6
f 323/40/6 316/41/6 317/42/6
f 277/43/6 254/44/6 255/45/6
f 286/46/6 288/47/6 287/48/6
f 311/49/6 312/50/6 313/51/6
f 18/1/1 19/2/1 17/3/1
f 20/4/2 23/5/2 19/2/2
f 24/6/3 21/7/3 23/5/3
f 22/8/4 17/9/4 21/7/4
f 23/5/5 17/10/5 19/11/5
f 20/12/6 22/8/6 24/6/6
f 26/1/1 27/2/1 25/3/1
f 28/4/2 31/5/2 27/2/2
f 32/6/3 29/7/3 31/5/3
f 30/8/4 25/9/4 29/7/4
f 31/5/5 25/10/5 27/11/5
f 28/12/6 30/8/6 32/6/6
f 127/52/7 202/53/7 204/54/7
f 122/55/8 200/56/8 202/53/8
f 125/57/9 225/58/9 200/56/9
f 130/59/10 225/58/10 148/60/10
f 136/61/11 207/62/11 130/59/11
f 131/63/12 208/64/12 213/65/12
f 132/66/13 215/67/13 209/68/13
f 129/69/14 215/67/14 137/70/14
f 146/71/15 206/72/15 129/69/15
f 123/73/16 223/74/16 146/71/16
f 124/75/17 201/76/17 123/73/17
f 126/77/18 199/78/18 124/75/18
f 120/79/19 203/80/19 126/77/19
f 117/81/20 197/82/20 120/79/20
f 114/83/21 192/84/21 194/85/21
f 114/83/22 195/86/22 191/87/22
f 118/88/23 190/89/23 195/86/23
f 112/90/24 188/91/24 190/89/24
f 111/92/25 189/93/25 188/91/25
f 113/94/26 196/95/26 189/93/26
f 119/96/27 193/97/27 196/95/27
f 116/98/28 115/99/28 205/100/28
f 128/101/29 198/102/29 205/100/29
f 121/103/30 204/104/30 198/102/30
f 150/52/7 230/53/7 227/54/7
f 153/55/8 235/56/8 230/53/8
f 151/57/9 231/58/9 235/56/9
f 156/59/10 231/58/10 158/60/10
f 164/61/11 233/62/11 156/59/11
f 160/63/12 237/105/12 241/65/12
f 159/106/13 246/67/13 236/68/13
f 155/69/14 246/67/14 170/70/14
f 154/71/15 232/72/15 155/69/15
f 157/73/16 234/74/16 154/71/16
f 152/75/17 228/76/17 157/73/17
f 149/77/18 229/78/18 152/75/18
f 142/79/19 226/80/19 149/77/19
f 144/81/20 219/82/20 142/79/20
f 139/107/21 221/85/21 144/81/21
f 139/107/22 224/86/22 217/87/22
f 140/88/23 211/89/23 224/86/23
f 138/90/24 210/91/24 212/108/24
f 133/109/25 134/110/25 214/93/25
f 135/94/26 218/95/26 214/93/26
f 147/96/27 216/97/27 218/95/27
f 141/98/28 222/100/28 216/97/28
f 145/101/29 220/102/29 222/100/29
f 143/103/30 227/104/30 220/102/30
f 36/52/7 250/53/7 251/54/7
f 37/55/8 249/56/8 250/53/8
f 40/57/9 257/58/9 249/56/9
f 38/59/10 257/58/10 39/60/10
f 45/61/11 252/62/11 38/59/11
f 44/111/12 254/68/12 256/65/12
f 177/70/13 255/112/13 254/68/13
f 175/69/14 276/67/14 177/70/14
f 178/71/15 272/72/15 175/69/15
f 172/73/16 273/74/16 178/71/16
f 173/75/17 274/76/17 172/73/17
f 174/77/18 271/78/18 173/75/18
f 171/79/19 269/80/19 174/77/19
f 169/81/20 268/82/20 171/79/20
f 166/107/21 270/85/21 169/81/21
f 166/107/22 243/86/22 267/87/22
f 167/88/23 240/89/23 243/86/23
f 168/90/24 238/91/24 239/108/24
f 162/109/25 161/113/25 242/93/25
f 163/94/26 245/95/26 242/93/26
f 165/96/27 244/97/27 245/95/27
f 33/98/28 247/100/28 244/97/28
f 35/101/29 248/102/29 247/100/29
f 34/103/30 251/104/30 248/102/30
f 48/52/7 261/53/7 262/54/7
f 71/55/8 264/56/8 261/53/8
f 51/57/9 263/58/9 264/56/9
f 60/59/10 263/58/10 52/60/10
f 53/61/11 292/62/11 60/59/11
f 57/63/12 289/114/12 290/65/12
f 56/115/13 285/67/13 288/68/13
f 59/69/14 285/67/14 58/70/14
f 184/71/15 291/72/15 59/69/15
f 185/73/16 284/74/16 184/71/16
f 182/75/17 283/76/17 185/73/17
f 183/77/18 303/78/18 182/75/18
f 186/79/19 280/80/19 183/77/19
f 180/81/20 281/82/20 186/79/20
f 181/107/21 278/85/21 180/81/21
f 181/107/22 282/86/22 279/87/22
f 179/88/23 275/89/23 282/86/23
f 187/90/24 41/116/24 277/91/24
f 43/109/25 266/93/25 253/117/25
f 42/94/26 258/95/26 266/93/26
f 50/96/27 260/97/27 258/95/27
f 47/98/28 259/100/28 260/97/28
f 46/101/29 265/102/29 259/100/29
f 49/103/30 262/104/30 265/102/30
f 110/52/7 304/53/7 306/54/7
f 74/55/8 310/56/8 304/53/8
f 78/57/9 308/58/9 310/56/9
f 91/59/10 308/58/10 76/60/10
f 84/61/11 323/62/11 91/59/11
f 79/63/12 314/105/12 316/65/12
f 82/118/13 315/67/13 312/68/13
f 90/69/14 315/67/14 83/70/14
f 75/71/15 322/72/15 90/69/15
f 77/73/16 307/74/16 75/71/16
f 72/75/17 309/76/17 77/73/17
f 73/77/18 305/78/18 72/75/18
f 68/79/19 341/80/19 73/77/19
f 64/81/20 295/82/20 68/79/20
f 66/107/21 296/85/21 64/81/21
f 66/107/22 293/86/22 298/87/22
f 61/88/23 300/89/23 293/86/23
f 69/90/24 286/91/24 287/119/24
f 55/109/25 54/113/25 301/93/25
f 70/94/26 294/95/26 301/93/26
f 62/96/27 299/97/27 294/95/27
f 67/98/28 297/100/28 299/97/28
f 65/101/29 302/102/29 297/100/29
f 63/103/30 306/104/30 302/102/30
f 94/52/7 327/53/7 329/54/7
f 97/55/8 340/56/8 327/53/8
f 108/57/9 333/58/9 340/56/9
f 105/59/10 333/58/10 101/60/10
f 104/61/11 337/62/11 105/59/11
f 102/120/12 336/65/12 104/61/12
f 103/70/13 334/68/13 102/120/13
f 107/69/14 335/67/14 103/70/14
f 100/71/15 339/72/15 107/69/15
f 106/73/16 332/74/16 100/71/16
f 95/75/17 338/76/17 106/73/17
f 96/77/18 328/78/18 95/75/18
f 98/79/19 326/80/19 96/77/19
f 92/81/20 330/82/20 98/79/20
f 89/107/21 324/85/21 92/81/21
f 89/107/22 318/86/22 321/87/22
f 86/88/23 320/89/23 318/86/23
f 85/90/24 311/91/24 313/121/24
f 80/109/25 81/113/25 317/93/25
f 88/94/26 319/95/26 317/93/26
f 87/96/27 342/97/27 319/95/27
f 109/98/28 325/100/28 342/97/28
f 93/101/29 331/102/29 325/100/29
f 99/103/30 329/104/30 331/102/30
f 2/1/1 4/4/1 3/2/1
f 4/4/2 8/6/2 7/5/2
f 8/6/3 6/8/3 5/7/3
f 6/8/4 2/122/4 1/9/4
f 7/5/5 5/7/5 1/10/5
f 4/12/6 2/32/6 6/8/6
f 10/1/1 12/4/1 11/2/1
f 12/4/2 16/6/2 15/5/2
f 16/6/3 14/8/3 13/7/3
f 14/8/4 10/122/4 9/9/4
f 43/13/5 41/123/5 176/14/5
f 55/16/5 56/124/5 57/17/5
f 80/19/5 82/125/5 79/20/5
f 118/126/5 114/127/5 9/10/5
f 11/11/5 115/128/5 116/129/5
f 11/11/5 116/129/5 119/130/5
f 112/131/5 118/126/5 9/10/5
f 111/132/5 112/131/5 9/10/5
f 11/11/5 119/130/5 113/22/5
f 113/22/5 111/132/5 9/10/5
f 131/23/5 134/133/5 133/24/5
f 160/26/5 161/134/5 162/27/5
f 176/14/5 41/123/5 187/135/5
f 176/14/5 187/135/5 179/136/5
f 177/137/5 176/14/5 179/136/5
f 177/137/5 179/136/5 181/138/5
f 175/139/5 177/137/5 181/138/5
f 175/139/5 181/138/5 180/140/5
f 178/141/5 175/139/5 180/140/5
f 178/141/5 180/140/5 186/142/5
f 172/143/5 178/141/5 186/142/5
f 172/143/5 186/142/5 183/144/5
f 173/145/5 172/143/5 183/144/5
f 174/146/5 173/145/5 183/144/5
f 58/147/5 56/124/5 55/16/5
f 58/147/5 55/16/5 69/148/5
f 59/149/5 58/147/5 69/148/5
f 59/149/5 69/148/5 61/150/5
f 184/151/5 59/149/5 61/150/5
f 184/151/5 61/150/5 66/152/5
f 185/153/5 184/151/5 66/152/5
f 185/153/5 66/152/5 64/154/5
f 182/155/5 185/153/5 64/154/5
f 182/155/5 64/154/5 68/156/5
f 183/144/5 182/155/5 68/156/5
f 183/144/5 68/156/5 73/157/5
f 83/158/5 82/125/5 80/19/5
f 83/158/5 80/19/5 85/159/5
f 90/160/5 83/158/5 85/159/5
f 90/160/5 85/159/5 86/161/5
f 75/162/5 90/160/5 86/161/5
f 75/162/5 86/161/5 89/163/5
f 77/164/5 75/162/5 89/163/5
f 77/164/5 89/163/5 92/165/5
f 72/166/5 77/164/5 92/165/5
f 72/166/5 92/165/5 98/167/5
f 73/157/5 72/166/5 98/167/5
f 73/157/5 98/167/5 96/168/5
f 183/144/5 73/157/5 96/168/5
f 159/28/5 162/27/5 168/169/5
f 170/170/5 159/28/5 168/169/5
f 170/170/5 168/169/5 167/171/5
f 155/172/5 170/170/5 167/171/5
f 155/172/5 167/171/5 166/173/5
f 154/174/5 155/172/5 166/173/5
f 154/174/5 166/173/5 169/175/5
f 157/176/5 154/174/5 169/175/5
f 157/176/5 169/175/5 171/177/5
f 152/178/5 157/176/5 171/177/5
f 152/178/5 171/177/5 174/146/5
f 149/179/5 152/178/5 174/146/5
f 132/25/5 133/24/5 138/180/5
f 137/181/5 132/25/5 138/180/5
f 137/181/5 138/180/5 140/182/5
f 129/183/5 137/181/5 140/182/5
f 129/183/5 140/182/5 139/184/5
f 146/185/5 129/183/5 139/184/5
f 146/185/5 139/184/5 144/186/5
f 123/187/5 146/185/5 144/186/5
f 123/187/5 144/186/5 142/188/5
f 124/189/5 123/187/5 142/188/5
f 124/189/5 142/188/5 149/179/5
f 126/190/5 124/189/5 149/179/5
f 9/10/5 114/127/5 117/191/5
f 128/192/5 115/128/5 11/11/5
f 121/193/5 128/192/5 11/11/5
f 9/10/5 117/191/5 120/194/5
f 9/10/5 120/194/5 126/190/5
f 127/195/5 121/193/5 11/11/5
f 122/196/5 127/195/5 11/11/5
f 13/7/5 9/10/5 126/190/5
f 13/7/5 126/190/5 149/179/5
f 122/196/5 11/11/5 15/5/5
f 125/197/5 122/196/5 15/5/5
f 13/7/5 149/179/5 174/146/5
f 13/7/5 174/146/5 183/144/5
f 134/133/5 131/23/5 136/198/5
f 135/199/5 134/133/5 136/198/5
f 135/199/5 136/198/5 130/200/5
f 147/201/5 135/199/5 130/200/5
f 147/201/5 130/200/5 148/202/5
f 141/203/5 147/201/5 148/202/5
f 13/7/5 183/144/5 96/168/5
f 13/7/5 96/168/5 95/204/5
f 141/203/5 148/202/5 125/197/5
f 145/205/5 141/203/5 125/197/5
f 13/7/5 95/204/5 106/206/5
f 13/7/5 106/206/5 100/207/5
f 143/208/5 145/205/5 125/197/5
f 150/209/5 143/208/5 125/197/5
f 13/7/5 100/207/5 107/210/5
f 13/7/5 107/210/5 103/211/5
f 150/209/5 125/197/5 15/5/5
f 153/212/5 150/209/5 15/5/5
f 15/5/5 13/7/5 103/211/5
f 15/5/5 103/211/5 102/213/5
f 151/214/5 153/212/5 15/5/5
f 158/215/5 151/214/5 15/5/5
f 15/5/5 102/213/5 104/216/5
f 15/5/5 104/216/5 105/217/5
f 161/134/5 160/26/5 164/218/5
f 163/219/5 161/134/5 164/218/5
f 163/219/5 164/218/5 156/220/5
f 165/221/5 163/219/5 156/220/5
f 15/5/5 105/217/5 101/222/5
f 15/5/5 101/222/5 108/223/5
f 165/221/5 156/220/5 158/215/5
f 33/224/5 165/221/5 158/215/5
f 15/5/5 108/223/5 97/225/5
f 15/5/5 97/225/5 94/226/5
f 35/227/5 33/224/5 158/215/5
f 34/228/5 35/227/5 158/215/5
f 15/5/5 94/226/5 99/229/5
f 15/5/5 99/229/5 93/230/5
f 34/228/5 158/215/5 15/5/5
f 36/231/5 34/228/5 15/5/5
f 15/5/5 93/230/5 109/232/5
f 37/233/5 36/231/5 15/5/5
f 40/234/5 37/233/5 15/5/5
f 39/235/5 40/234/5 15/5/5
f 88/236/5 81/21/5 79/20/5
f 88/236/5 79/20/5 84/237/5
f 87/238/5 88/236/5 84/237/5
f 87/238/5 84/237/5 91/239/5
f 109/232/5 87/238/5 91/239/5
f 109/232/5 91/239/5 76/240/5
f 43/13/5 44/15/5 45/241/5
f 42/242/5 43/13/5 45/241/5
f 42/242/5 45/241/5 38/243/5
f 50/244/5 42/242/5 38/243/5
f 15/5/5 109/232/5 76/240/5
f 15/5/5 76/240/5 78/245/5
f 50/244/5 38/243/5 39/235/5
f 47/246/5 50/244/5 39/235/5
f 15/5/5 78/245/5 74/247/5
f 15/5/5 74/247/5 110/248/5
f 46/249/5 47/246/5 39/235/5
f 49/250/5 46/249/5 39/235/5
f 15/5/5 110/248/5 63/251/5
f 49/250/5 39/235/5 15/5/5
f 48/252/5 49/250/5 15/5/5
f 48/252/5 15/5/5 63/251/5
f 71/253/5 48/252/5 63/251/5
f 71/253/5 63/251/5 65/254/5
f 51/255/5 71/253/5 65/254/5
f 51/255/5 65/254/5 67/256/5
f 52/257/5 51/255/5 67/256/5
f 52/257/5 67/256/5 62/258/5
f 60/31/5 52/257/5 62/258/5
f 70/29/5 54/18/5 57/17/5
f 60/31/5 62/258/5 70/29/5
f 70/29/5 57/17/5 53/30/5
f 196/259/6 193/260/6 12/12/6
f 10/32/6 192/261/6 191/262/6
f 10/32/6 191/262/6 195/263/6
f 189/264/6 196/259/6 12/12/6
f 188/265/6 189/264/6 12/12/6
f 10/32/6 195/263/6 190/33/6
f 190/33/6 188/265/6 12/12/6
f 209/34/6 212/266/6 210/35/6
f 236/37/6 239/267/6 238/38/6
f 275/268/6 277/43/6 255/45/6
f 275/268/6 255/45/6 276/269/6
f 282/270/6 275/268/6 276/269/6
f 282/270/6 276/269/6 272/271/6
f 279/272/6 282/270/6 272/271/6
f 279/272/6 272/271/6 273/273/6
f 278/274/6 279/272/6 273/273/6
f 278/274/6 273/273/6 274/275/6
f 281/276/6 278/274/6 274/275/6
f 281/276/6 274/275/6 271/277/6
f 280/278/6 281/276/6 271/277/6
f 280/278/6 271/277/6 269/279/6
f 240/280/6 239/267/6 236/37/6
f 240/280/6 236/37/6 246/281/6
f 243/282/6 240/280/6 246/281/6
f 243/282/6 246/281/6 232/283/6
f 267/284/6 243/282/6 232/283/6
f 267/284/6 232/283/6 234/285/6
f 270/286/6 267/284/6 234/285/6
f 270/286/6 234/285/6 228/287/6
f 268/288/6 270/286/6 228/287/6
f 268/288/6 228/287/6 229/289/6
f 269/279/6 268/288/6 229/289/6
f 269/279/6 229/289/6 226/290/6
f 211/291/6 212/266/6 209/34/6
f 211/291/6 209/34/6 215/292/6
f 224/293/6 211/291/6 215/292/6
f 224/293/6 215/292/6 206/294/6
f 217/295/6 224/293/6 206/294/6
f 217/295/6 206/294/6 223/296/6
f 221/297/6 217/295/6 223/296/6
f 221/297/6 223/296/6 201/298/6
f 219/299/6 221/297/6 201/298/6
f 219/299/6 201/298/6 199/300/6
f 226/290/6 219/299/6 199/300/6
f 226/290/6 199/300/6 203/301/6
f 194/302/6 192/261/6 10/32/6
f 12/12/6 193/260/6 205/303/6
f 12/12/6 205/303/6 198/304/6
f 197/305/6 194/302/6 10/32/6
f 203/301/6 197/305/6 10/32/6
f 12/12/6 198/304/6 204/306/6
f 12/12/6 204/306/6 202/307/6
f 203/301/6 10/32/6 14/8/6
f 226/290/6 203/301/6 14/8/6
f 16/6/6 12/12/6 202/307/6
f 16/6/6 202/307/6 200/308/6
f 269/279/6 226/290/6 14/8/6
f 280/278/6 269/279/6 14/8/6
f 213/309/6 208/36/6 210/35/6
f 213/309/6 210/35/6 214/310/6
f 207/311/6 213/309/6 214/310/6
f 207/311/6 214/310/6 218/312/6
f 225/313/6 207/311/6 218/312/6
f 225/313/6 218/312/6 216/314/6
f 303/315/6 280/278/6 14/8/6
f 283/316/6 303/315/6 14/8/6
f 200/308/6 225/313/6 216/314/6
f 200/308/6 216/314/6 222/317/6
f 284/318/6 283/316/6 14/8/6
f 291/319/6 284/318/6 14/8/6
f 200/308/6 222/317/6 220/320/6
f 200/308/6 220/320/6 227/321/6
f 285/322/6 291/319/6 14/8/6
f 287/48/6 288/47/6 285/322/6
f 300/323/6 287/48/6 285/322/6
f 16/6/6 200/308/6 227/321/6
f 16/6/6 227/321/6 230/324/6
f 293/325/6 300/323/6 285/322/6
f 298/326/6 293/325/6 285/322/6
f 16/6/6 230/324/6 235/327/6
f 16/6/6 235/327/6 231/328/6
f 296/329/6 298/326/6 285/322/6
f 295/330/6 296/329/6 285/322/6
f 241/331/6 237/39/6 238/38/6
f 241/331/6 238/38/6 242/332/6
f 233/333/6 241/331/6 242/332/6
f 233/333/6 242/332/6 245/334/6
f 295/330/6 285/322/6 14/8/6
f 341/335/6 295/330/6 14/8/6
f 231/328/6 233/333/6 245/334/6
f 231/328/6 245/334/6 244/336/6
f 305/337/6 341/335/6 14/8/6
f 309/338/6 305/337/6 14/8/6
f 231/328/6 244/336/6 247/339/6
f 231/328/6 247/339/6 248/340/6
f 307/341/6 309/338/6 14/8/6
f 322/342/6 307/341/6 14/8/6
f 16/6/6 231/328/6 248/340/6
f 16/6/6 248/340/6 251/343/6
f 315/344/6 322/342/6 14/8/6
f 313/51/6 312/50/6 315/344/6
f 320/345/6 313/51/6 315/344/6
f 16/6/6 251/343/6 250/346/6
f 16/6/6 250/346/6 249/347/6
f 318/348/6 320/345/6 315/344/6
f 321/349/6 318/348/6 315/344/6
f 16/6/6 249/347/6 257/350/6
f 321/349/6 315/344/6 14/8/6
f 324/351/6 321/349/6 14/8/6
f 256/352/6 254/44/6 253/353/6
f 256/352/6 253/353/6 266/354/6
f 252/355/6 256/352/6 266/354/6
f 252/355/6 266/354/6 258/356/6
f 330/357/6 324/351/6 14/8/6
f 326/358/6 330/357/6 14/8/6
f 257/350/6 252/355/6 258/356/6
f 257/350/6 258/356/6 260/359/6
f 328/360/6 326/358/6 14/8/6
f 338/361/6 328/360/6 14/8/6
f 257/350/6 260/359/6 259/362/6
f 257/350/6 259/362/6 265/363/6
f 332/364/6 338/361/6 14/8/6
f 339/365/6 332/364/6 14/8/6
f 16/6/6 257/350/6 265/363/6
f 16/6/6 265/363/6 262/366/6
f 339/365/6 14/8/6 16/6/6
f 335/367/6 339/365/6 16/6/6
f 16/6/6 262/366/6 261/368/6
f 16/6/6 261/368/6 264/369/6
f 334/370/6 335/367/6 16/6/6
f 336/371/6 334/370/6 16/6/6
f 16/6/6 264/369/6 263/372/6
f 16/6/6 263/372/6 292/373/6
f 337/374/6 336/371/6 16/6/6
f 333/375/6 337/374/6 16/6/6
f 16/6/6 292/373/6 290/376/6
f 290/376/6 289/377/6 286/46/6
f 290/376/6 286/46/6 301/378/6
f 340/379/6 333/375/6 16/6/6
f 327/380/6 340/379/6 16/6/6
f 290/376/6 301/378/6 294/381/6
f 290/376/6 294/381/6 299/382/6
f 329/383/6 327/380/6 16/6/6
f 331/384/6 329/383/6 16/6/6
f 290/376/6 299/382/6 297/385/6
f 290/376/6 297/385/6 302/386/6
f 325/387/6 331/384/6 16/6/6
f 342/388/6 325/387/6 16/6/6
f 16/6/6 290/376/6 302/386/6
f 16/6/6 302/386/6 306/389/6
f 342/388/6 16/6/6 306/389/6
f 342/388/6 306/389/6 304/390/6
f 319/391/6 342/388/6 304/390/6
f 319/391/6 304/390/6 310/392/6
f 314/393/6 311/49/6 317/42/6
f 317/42/6 319/391/6 310/392/6
f 317/42/6 310/392/6 308/394/6
f 316/41/6 314/393/6 317/42/6
f 317/42/6 308/394/6 323/40/6
f 277/43/6 253/353/6 254/44/6
f 286/46/6 289/377/6 288/47/6
f 311/49/6 314/393/6 312/50/6
f 18/1/1 20/4/1 19/2/1
f 20/4/2 24/6/2 23/5/2
f 24/6/3 22/8/3 21/7/3
f 22/8/4 18/122/4 17/9/4
f 23/5/5 21/7/5 17/10/5
f 20/12/6 18/32/6 22/8/6
f 26/1/1 28/4/1 27/2/1
f 28/4/2 32/6/2 31/5/2
f 32/6/3 30/8/3 29/7/3
f 30/8/4 26/122/4 25/9/4
f 31/5/5 29/7/5 25/10/5
f 28/12/6 26/32/6 30/8/6
f 127/52/7 122/55/7 202/53/7
f 122/55/8 125/57/8 200/56/8
f 125/57/9 148/60/9 225/58/9
f 130/59/10 207/62/10 225/58/10
f 136/61/11 213/65/11 207/62/11
f 213/65/12 136/61/12 131/63/12
f 131/63/12 209/68/12 208/64/12
f 209/68/13 131/63/13 132/66/13
f 132/66/13 137/70/13 215/67/13
f 129/69/14 206/72/14 215/67/14
f 146/71/15 223/74/15 206/72/15
f 123/73/16 201/76/16 223/74/16
f 124/75/17 199/78/17 201/76/17
f 126/77/18 203/80/18 199/78/18
f 120/79/19 197/82/19 203/80/19
f 117/81/20 194/85/20 197/82/20
f 194/85/21 117/81/21 114/83/21
f 114/83/21 191/87/21 192/84/21
f 114/83/22 118/88/22 195/86/22
f 118/88/23 112/90/23 190/89/23
f 112/90/24 111/92/24 188/91/24
f 111/92/25 113/94/25 189/93/25
f 113/94/26 119/96/26 196/95/26
f 119/96/27 116/98/27 193/97/27
f 205/100/28 193/97/28 116/98/28
f 115/99/28 128/101/28 205/100/28
f 128/101/29 121/103/29 198/102/29
f 121/103/30 127/395/30 204/104/30
f 150/52/7 153/55/7 230/53/7
f 153/55/8 151/57/8 235/56/8
f 151/57/9 158/60/9 231/58/9
f 156/59/10 233/62/10 231/58/10
f 164/61/11 241/65/11 233/62/11
f 241/65/12 164/61/12 160/63/12
f 160/63/12 236/68/12 237/105/12
f 236/68/13 160/63/13 159/106/13
f 159/106/13 170/70/13 246/67/13
f 155/69/14 232/72/14 246/67/14
f 154/71/15 234/74/15 232/72/15
f 157/73/16 228/76/16 234/74/16
f 152/75/17 229/78/17 228/76/17
f 149/77/18 226/80/18 229/78/18
f 142/79/19 219/82/19 226/80/19
f 144/81/20 221/85/20 219/82/20
f 139/107/21 217/87/21 221/85/21
f 139/107/22 140/88/22 224/86/22
f 140/88/23 138/90/23 211/89/23
f 212/108/24 211/89/24 138/90/24
f 138/90/24 133/109/24 210/91/24
f 214/93/25 210/91/25 133/109/25
f 134/110/25 135/94/25 214/93/25
f 135/94/26 147/96/26 218/95/26
f 147/96/27 141/98/27 216/97/27
f 141/98/28 145/101/28 222/100/28
f 145/101/29 143/103/29 220/102/29
f 143/103/30 150/395/30 227/104/30
f 36/52/7 37/55/7 250/53/7
f 37/55/8 40/57/8 249/56/8
f 40/57/9 39/60/9 257/58/9
f 38/59/10 252/62/10 257/58/10
f 45/61/11 256/65/11 252/62/11
f 256/65/12 45/61/12 44/111/12
f 44/111/12 176/63/12 254/68/12
f 254/68/13 176/63/13 177/70/13
f 177/70/13 276/67/13 255/112/13
f 175/69/14 272/72/14 276/67/14
f 178/71/15 273/74/15 272/72/15
f 172/73/16 274/76/16 273/74/16
f 173/75/17 271/78/17 274/76/17
f 174/77/18 269/80/18 271/78/18
f 171/79/19 268/82/19 269/80/19
f 169/81/20 270/85/20 268/82/20
f 166/107/21 267/87/21 270/85/21
f 166/107/22 167/88/22 243/86/22
f 167/88/23 168/90/23 240/89/23
f 239/108/24 240/89/24 168/90/24
f 168/90/24 162/109/24 238/91/24
f 242/93/25 238/91/25 162/109/25
f 161/113/25 163/94/25 242/93/25
f 163/94/26 165/96/26 245/95/26
f 165/96/27 33/98/27 244/97/27
f 33/98/28 35/101/28 247/100/28
f 35/101/29 34/103/29 248/102/29
f 34/103/30 36/395/30 251/104/30
f 48/52/7 71/55/7 261/53/7
f 71/55/8 51/57/8 264/56/8
f 51/57/9 52/60/9 263/58/9
f 60/59/10 292/62/10 263/58/10
f 53/61/11 290/65/11 292/62/11
f 290/65/12 53/61/12 57/63/12
f 57/63/12 288/68/12 289/114/12
f 288/68/13 57/63/13 56/115/13
f 56/115/13 58/70/13 285/67/13
f 59/69/14 291/72/14 285/67/14
f 184/71/15 284/74/15 291/72/15
f 185/73/16 283/76/16 284/74/16
f 182/75/17 303/78/17 283/76/17
f 183/77/18 280/80/18 303/78/18
f 186/79/19 281/82/19 280/80/19
f 180/81/20 278/85/20 281/82/20
f 181/107/21 279/87/21 278/85/21
f 181/107/22 179/88/22 282/86/22
f 179/88/23 187/90/23 275/89/23
f 277/91/24 275/89/24 187/90/24
f 41/116/24 43/109/24 277/91/24
f 253/117/25 277/91/25 43/109/25
f 43/109/25 42/94/25 266/93/25
f 42/94/26 50/96/26 258/95/26
f 50/96/27 47/98/27 260/97/27
f 47/98/28 46/101/28 259/100/28
f 46/101/29 49/103/29 265/102/29
f 49/103/30 48/395/30 262/104/30
f 110/52/7 74/55/7 304/53/7
f 74/55/8 78/57/8 310/56/8
f 78/57/9 76/60/9 308/58/9
f 91/59/10 323/62/10 308/58/10
f 84/61/11 316/65/11 323/62/11
f 316/65/12 84/61/12 79/63/12
f 79/63/12 312/68/12 314/105/12
f 312/68/13 79/63/13 82/118/13
f 82/118/13 83/70/13 315/67/13
f 90/69/14 322/72/14 315/67/14
f 75/71/15 307/74/15 322/72/15
f 77/73/16 309/76/16 307/74/16
f 72/75/17 305/78/17 309/76/17
f 73/77/18 341/80/18 305/78/18
f 68/79/19 295/82/19 341/80/19
f 64/81/20 296/85/20 295/82/20
f 66/107/21 298/87/21 296/85/21
f 66/107/22 61/88/22 293/86/22
f 61/88/23 69/90/23 300/89/23
f 287/119/24 300/89/24 69/90/24
f 69/90/24 55/109/24 286/91/24
f 301/93/25 286/91/25 55/109/25
f 54/113/25 70/94/25 301/93/25
f 70/94/26 62/96/26 294/95/26
f 62/96/27 67/98/27 299/97/27
f 67/98/28 65/101/28 297/100/28
f 65/101/29 63/103/29 302/102/29
f 63/103/30 110/395/30 306/104/30
f 94/52/7 97/55/7 327/53/7
f 97/55/8 108/57/8 340/56/8
f 108/57/9 101/60/9 333/58/9
f 105/59/31 337/62/31 333/58/31
f 104/61/11 336/65/11 337/62/11
f 102/120/12 334/68/12 336/65/12
f 103/70/13 335/67/13 334/68/13
f 107/69/14 339/72/14 335/67/14
f 100/71/15 332/74/15 339/72/15
f 106/73/16 338/76/16 332/74/16
f 95/75/17 328/78/17 338/76/17
f 96/77/18 326/80/18 328/78/18
f 98/79/19 330/82/19 326/80/19
f 92/81/20 324/85/20 330/82/20
f 89/107/21 321/87/21 324/85/21
f 89/107/22 86/88/22 318/86/22
f 86/88/23 85/90/23 320/89/23
f 313/121/24 320/89/24 85/90/24
f 85/90/24 80/109/24 311/91/24
f 317/93/25 311/91/25 80/109/25
f 81/113/25 88/94/25 317/93/25
f 88/94/26 87/96/26 319/95/26
f 87/96/27 109/98/27 342/97/27
f 109/98/28 93/101/28 325/100/28
f 93/101/29 99/103/29 331/102/29
f 99/103/30 94/395/30 329/104/30
