# Blender 5.1.2
# www.blender.org
mtllib beaker.mtl
o beaker_01.001
v 0.000000 0.035000 0.000000
v 0.000000 0.033000 0.002000
v 0.000000 0.035000 0.095000
v 0.006828 0.034327 0.000000
v 0.006438 0.032366 0.002000
v 0.006828 0.034327 0.095000
v 0.013394 0.032336 0.000000
v 0.012629 0.030488 0.002000
v 0.013394 0.032336 0.095000
v 0.019445 0.029101 0.000000
v 0.018334 0.027438 0.002000
v 0.019445 0.029101 0.095000
v 0.024749 0.024749 0.000000
v 0.023335 0.023335 0.002000
v 0.024749 0.024749 0.095000
v 0.029101 0.019445 0.000000
v 0.027438 0.018334 0.002000
v 0.029101 0.019445 0.095000
v 0.032336 0.013394 0.000000
v 0.030488 0.012629 0.002000
v 0.032336 0.013394 0.095000
v 0.034327 0.006828 0.000000
v 0.032366 0.006438 0.002000
v 0.034327 0.006828 0.095000
v 0.035000 0.000000 0.000000
v 0.033000 0.000000 0.002000
v 0.035000 0.000000 0.095000
v 0.034327 -0.006828 0.000000
v 0.032366 -0.006438 0.002000
v 0.034327 -0.006828 0.095000
v 0.030488 -0.012629 0.002000
v 0.032336 -0.013394 0.000000
v 0.032336 -0.013394 0.095000
v 0.029101 -0.019445 0.000000
v 0.027438 -0.018334 0.002000
v 0.029101 -0.019445 0.095000
v 0.024749 -0.024749 0.000000
v 0.023335 -0.023335 0.002000
v 0.024749 -0.024749 0.095000
v 0.019445 -0.029101 0.000000
v 0.018334 -0.027438 0.002000
v 0.019445 -0.029101 0.095000
v 0.013394 -0.032336 0.000000
v 0.012629 -0.030488 0.002000
v 0.013394 -0.032336 0.095000
v 0.006438 -0.032366 0.002000
v 0.006828 -0.034327 0.000000
v 0.006828 -0.034327 0.095000
v 0.000000 -0.035000 0.000000
v 0.000000 -0.033000 0.002000
v 0.000000 -0.035000 0.095000
v -0.006828 -0.034327 0.000000
v -0.006438 -0.032366 0.002000
v -0.006828 -0.034327 0.095000
v -0.013394 -0.032336 0.000000
v -0.012629 -0.030488 0.002000
v -0.013394 -0.032336 0.095000
v -0.019445 -0.029101 0.000000
v -0.018334 -0.027438 0.002000
v -0.019445 -0.029101 0.095000
v -0.024749 -0.024749 0.000000
v -0.023335 -0.023335 0.002000
v -0.024749 -0.024749 0.095000
v -0.029101 -0.019445 0.000000
v -0.027438 -0.018334 0.002000
v -0.029101 -0.019445 0.095000
v -0.032336 -0.013394 0.000000
v -0.030488 -0.012629 0.002000
v -0.032336 -0.013394 0.095000
v -0.034327 -0.006828 0.000000
v -0.032366 -0.006438 0.002000
v -0.034327 -0.006828 0.095000
v -0.035000 0.000000 0.000000
v -0.033000 0.000000 0.002000
v -0.035000 0.000000 0.095000
v -0.034327 0.006828 0.000000
v -0.032366 0.006438 0.002000
v -0.034327 0.006828 0.095000
v -0.032336 0.013394 0.000000
v -0.030488 0.012629 0.002000
v -0.032336 0.013394 0.095000
v -0.029101 0.019445 0.000000
v -0.027438 0.018334 0.002000
v -0.029101 0.019445 0.095000
v -0.024749 0.024749 0.000000
v -0.023335 0.023335 0.002000
v -0.024749 0.024749 0.095000
v -0.019445 0.029101 0.000000
v -0.018334 0.027438 0.002000
v -0.019445 0.029101 0.095000
v -0.013394 0.032336 0.000000
v -0.012629 0.030488 0.002000
v -0.013394 0.032336 0.095000
v -0.006828 0.034327 0.000000
v -0.006438 0.032366 0.002000
v -0.006828 0.034327 0.095000
v -0.006438 0.032366 0.095000
v 0.006438 0.032366 0.095000
v 0.000000 0.033000 0.095000
v -0.027438 0.018334 0.095000
v -0.018334 0.027438 0.095000
v -0.023335 0.023335 0.095000
v -0.032366 -0.006438 0.095000
v -0.033000 0.000000 0.095000
v -0.032366 0.006438 0.095000
v -0.027438 -0.018334 0.095000
v -0.018334 -0.027438 0.095000
v -0.023335 -0.023335 0.095000
v -0.006438 -0.032366 0.095000
v 0.006438 -0.032366 0.095000
v 0.000000 -0.033000 0.095000
v 0.018334 -0.027438 0.095000
v 0.027438 -0.018334 0.095000
v 0.023335 -0.023335 0.095000
v 0.032366 -0.006438 0.095000
v 0.033000 0.000000 0.095000
v 0.032366 0.006438 0.095000
v 0.018334 0.027438 0.095000
v 0.027438 0.018334 0.095000
v 0.023335 0.023335 0.095000
v -0.012629 0.030488 0.095000
v -0.030488 -0.012629 0.095000
v 0.012629 -0.030488 0.095000
v 0.030488 0.012629 0.095000
v -0.030488 0.012629 0.095000
v -0.012629 -0.030488 0.095000
v 0.030488 -0.012629 0.095000
v 0.012629 0.030488 0.095000
vn 0.0980 0.9952 -0.0000
vn 0.2903 0.9569 -0.0000
vn 0.4714 0.8819 -0.0000
vn 0.6344 0.7730 -0.0000
vn 0.7730 0.6344 -0.0000
vn 0.8819 0.4714 -0.0000
vn 0.9569 0.2903 -0.0000
vn 0.9952 0.0980 -0.0000
vn 0.9952 -0.0980 -0.0000
vn 0.9569 -0.2903 -0.0000
vn 0.8819 -0.4714 -0.0000
vn 0.7730 -0.6344 -0.0000
vn 0.6344 -0.7730 -0.0000
vn 0.4714 -0.8819 -0.0000
vn 0.2903 -0.9569 -0.0000
vn 0.0980 -0.9952 -0.0000
vn -0.0980 -0.9952 -0.0000
vn -0.2903 -0.9569 -0.0000
vn -0.4714 -0.8819 -0.0000
vn -0.6344 -0.7730 -0.0000
vn -0.7730 -0.6344 -0.0000
vn -0.8819 -0.4714 -0.0000
vn -0.9569 -0.2903 -0.0000
vn -0.9952 -0.0980 -0.0000
vn -0.9952 0.0980 -0.0000
vn -0.9569 0.2903 -0.0000
vn -0.8819 0.4714 -0.0000
vn -0.7730 0.6344 -0.0000
vn -0.6344 0.7730 -0.0000
vn -0.4714 0.8819 -0.0000
vn -0.0000 -0.0000 1.0000
vn -0.2903 0.9569 -0.0000
vn -0.0980 0.9952 -0.0000
vn -0.0000 -0.0000 -1.0000
vt 1.000000 1.000000
vt 0.968750 0.500000
vt 1.000000 0.500000
vt 0.968750 1.000000
vt 0.937500 0.500000
vt 0.937500 1.000000
vt 0.906250 0.500000
vt 0.906250 1.000000
vt 0.875000 0.500000
vt 0.875000 1.000000
vt 0.843750 0.500000
vt 0.843750 1.000000
vt 0.812500 0.500000
vt 0.812500 1.000000
vt 0.781250 0.500000
vt 0.781250 1.000000
vt 0.750000 0.500000
vt 0.750000 1.000000
vt 0.718750 0.500000
vt 0.718750 1.000000
vt 0.687500 0.500000
vt 0.687500 1.000000
vt 0.656250 0.500000
vt 0.656250 1.000000
vt 0.625000 0.500000
vt 0.625000 1.000000
vt 0.593750 0.500000
vt 0.593750 1.000000
vt 0.562500 0.500000
vt 0.562500 1.000000
vt 0.531250 0.500000
vt 0.531250 1.000000
vt 0.500000 0.500000
vt 0.500000 1.000000
vt 0.468750 0.500000
vt 0.468750 1.000000
vt 0.437500 0.500000
vt 0.437500 1.000000
vt 0.406250 0.500000
vt 0.406250 1.000000
vt 0.375000 0.500000
vt 0.375000 1.000000
vt 0.343750 0.500000
vt 0.343750 1.000000
vt 0.312500 0.500000
vt 0.312500 1.000000
vt 0.281250 0.500000
vt 0.281250 1.000000
vt 0.250000 0.500000
vt 0.250000 1.000000
vt 0.218750 0.500000
vt 0.218750 1.000000
vt 0.187500 0.500000
vt 0.187500 1.000000
vt 0.156250 0.500000
vt 0.156250 1.000000
vt 0.125000 0.500000
vt 0.125000 1.000000
vt 0.093750 0.500000
vt 0.093750 1.000000
vt 0.062500 0.500000
vt 0.485388 0.203178
vt 0.485388 0.296822
vt 0.476286 0.250000
vt 0.010000 0.250000
vt 0.028062 0.205854
vt 0.023714 0.250000
vt 0.062500 1.000000
vt 0.031250 0.500000
vt 0.031250 1.000000
vt 0.000000 0.500000
vt 0.841844 0.028269
vt 0.528269 0.158156
vt 0.658156 0.471731
vt 0.968750 0.989474
vt 1.000000 0.989474
vt 0.937500 0.989474
vt 0.906250 0.989474
vt 0.875000 0.989474
vt 0.843750 0.989474
vt 0.812500 0.989474
vt 0.781250 0.989474
vt 0.750000 0.989474
vt 0.687500 0.989474
vt 0.718750 0.989474
vt 0.656250 0.989474
vt 0.625000 0.989474
vt 0.593750 0.989474
vt 0.562500 0.989474
vt 0.531250 0.989474
vt 0.500000 0.989474
vt 0.437500 0.989474
vt 0.468750 0.989474
vt 0.406250 0.989474
vt 0.343750 0.989474
vt 0.375000 0.989474
vt 0.312500 0.989474
vt 0.281250 0.989474
vt 0.250000 0.989474
vt 0.218750 0.989474
vt 0.187500 0.989474
vt 0.156250 0.989474
vt 0.125000 0.989474
vt 0.093750 0.989474
vt 0.062500 0.989474
vt 0.031250 0.989474
vt 0.000000 0.989474
vt 0.883337 0.050447
vt 0.949553 0.383337
vt 0.616663 0.449553
vt 0.410008 0.089992
vt 0.419706 0.080294
vt 0.449553 0.116663
vt 0.471731 0.158156
vt 0.490000 0.250000
vt 0.471731 0.341844
vt 0.449553 0.383337
vt 0.419706 0.419706
vt 0.410008 0.410008
vt 0.438150 0.375718
vt 0.438150 0.124282
vt 0.459061 0.163404
vt 0.459061 0.336596
vt 0.471938 0.205854
vt 0.471938 0.294146
vt 0.375718 0.438150
vt 0.383337 0.449553
vt 0.341844 0.471731
vt 0.296822 0.485388
vt 0.250000 0.490000
vt 0.203178 0.485388
vt 0.158156 0.471731
vt 0.116663 0.449553
vt 0.080294 0.419706
vt 0.050447 0.383337
vt 0.028269 0.341844
vt 0.014612 0.296822
vt 0.014612 0.203178
vt 0.028269 0.158156
vt 0.050447 0.116663
vt 0.080294 0.080294
vt 0.116663 0.050447
vt 0.158156 0.028269
vt 0.203178 0.014612
vt 0.250000 0.010000
vt 0.296822 0.014612
vt 0.341844 0.028269
vt 0.383337 0.050447
vt 0.375718 0.061850
vt 0.336596 0.040939
vt 0.336596 0.459061
vt 0.294146 0.028062
vt 0.294146 0.471938
vt 0.250000 0.023714
vt 0.250000 0.476286
vt 0.205854 0.471938
vt 0.205854 0.028062
vt 0.163404 0.459061
vt 0.163404 0.040939
vt 0.124282 0.061850
vt 0.124282 0.438150
vt 0.089992 0.089992
vt 0.089992 0.410008
vt 0.061850 0.375718
vt 0.061850 0.124282
vt 0.040939 0.336596
vt 0.040939 0.163404
vt 0.028062 0.294146
vt 0.000000 1.000000
vt 0.703178 0.485388
vt 0.750000 0.490000
vt 0.796822 0.485388
vt 0.841844 0.471731
vt 0.883337 0.449553
vt 0.919706 0.419706
vt 0.949553 0.383337
vt 0.971731 0.341844
vt 0.985388 0.296822
vt 0.990000 0.250000
vt 0.985388 0.203178
vt 0.971731 0.158156
vt 0.949553 0.116663
vt 0.919706 0.080294
vt 0.883337 0.050447
vt 0.796822 0.014612
vt 0.750000 0.010000
vt 0.703178 0.014612
vt 0.658156 0.028269
vt 0.616663 0.050447
vt 0.580294 0.080294
vt 0.550447 0.116663
vt 0.514612 0.203178
vt 0.510000 0.250000
vt 0.514612 0.296822
vt 0.528269 0.341844
vt 0.550447 0.383337
vt 0.580294 0.419706
vt 0.616663 0.449553
vt 0.550447 0.383337
vt 0.550447 0.116663
vt 0.616663 0.050447
vt 0.658156 0.028269
vt 0.750000 0.010000
vt 0.841844 0.028269
vt 0.949553 0.116663
vt 0.883337 0.449553
vt 0.750000 0.490000
s 0
usemtl lab_glass
f 3/1/1 4/2/1 1/3/1
f 6/4/2 7/5/2 4/2/2
f 9/6/3 10/7/3 7/5/3
f 12/8/4 13/9/4 10/7/4
f 15/10/5 16/11/5 13/9/5
f 18/12/6 19/13/6 16/11/6
f 21/14/7 22/15/7 19/13/7
f 24/16/8 25/17/8 22/15/8
f 27/18/9 28/19/9 25/17/9
f 30/20/10 32/21/10 28/19/10
f 33/22/11 34/23/11 32/21/11
f 36/24/12 37/25/12 34/23/12
f 39/26/13 40/27/13 37/25/13
f 42/28/14 43/29/14 40/27/14
f 45/30/15 47/31/15 43/29/15
f 48/32/16 49/33/16 47/31/16
f 51/34/17 52/35/17 49/33/17
f 54/36/18 55/37/18 52/35/18
f 57/38/19 58/39/19 55/37/19
f 60/40/20 61/41/20 58/39/20
f 63/42/21 64/43/21 61/41/21
f 66/44/22 67/45/22 64/43/22
f 69/46/23 70/47/23 67/45/23
f 72/48/24 73/49/24 70/47/24
f 75/50/25 76/51/25 73/49/25
f 78/52/26 79/53/26 76/51/26
f 81/54/27 82/55/27 79/53/27
f 84/56/28 85/57/28 82/55/28
f 87/58/29 88/59/29 85/57/29
f 90/60/30 91/61/30 88/59/30
f 30/62/31 24/63/31 116/64/31
f 75/65/31 103/66/31 104/67/31
f 93/68/32 94/69/32 91/61/32
f 96/70/33 1/71/33 94/69/33
f 43/72/34 67/73/34 91/74/34
f 2/3/17 98/75/17 99/76/17
f 5/2/18 128/77/18 98/75/18
f 8/5/19 118/78/19 128/77/19
f 11/7/20 120/79/20 118/78/20
f 17/11/21 120/79/21 14/9/21
f 20/13/22 119/80/22 17/11/22
f 23/15/23 124/81/23 20/13/23
f 26/17/24 117/82/24 23/15/24
f 29/19/25 116/83/25 26/17/25
f 29/19/26 127/84/26 115/85/26
f 35/23/27 127/84/27 31/21/27
f 38/25/28 113/86/28 35/23/28
f 41/27/29 114/87/29 38/25/29
f 44/29/30 112/88/30 41/27/30
f 46/31/32 123/89/32 44/29/32
f 50/33/33 110/90/33 46/31/33
f 53/35/1 111/91/1 50/33/1
f 53/35/2 126/92/2 109/93/2
f 59/39/3 126/92/3 56/37/3
f 62/41/4 107/94/4 59/39/4
f 62/41/5 106/95/5 108/96/5
f 65/43/6 122/97/6 106/95/6
f 68/45/7 103/98/7 122/97/7
f 71/47/8 104/99/8 103/98/8
f 74/49/9 105/100/9 104/99/9
f 77/51/10 125/101/10 105/100/10
f 80/53/11 100/102/11 125/101/11
f 83/55/12 102/103/12 100/102/12
f 86/57/13 101/104/13 102/103/13
f 89/59/14 121/105/14 101/104/14
f 92/61/15 97/106/15 121/105/15
f 95/69/16 99/107/16 97/106/16
f 41/108/31 17/109/31 89/110/31
f 3/1/1 6/4/1 4/2/1
f 6/4/2 9/6/2 7/5/2
f 9/6/3 12/8/3 10/7/3
f 12/8/4 15/10/4 13/9/4
f 15/10/5 18/12/5 16/11/5
f 18/12/6 21/14/6 19/13/6
f 21/14/7 24/16/7 22/15/7
f 24/16/8 27/18/8 25/17/8
f 27/18/9 30/20/9 28/19/9
f 30/20/10 33/22/10 32/21/10
f 33/22/11 36/24/11 34/23/11
f 36/24/12 39/26/12 37/25/12
f 39/26/13 42/28/13 40/27/13
f 42/28/14 45/30/14 43/29/14
f 45/30/15 48/32/15 47/31/15
f 48/32/16 51/34/16 49/33/16
f 51/34/17 54/36/17 52/35/17
f 54/36/18 57/38/18 55/37/18
f 57/38/19 60/40/19 58/39/19
f 60/40/20 63/42/20 61/41/20
f 63/42/21 66/44/21 64/43/21
f 66/44/22 69/46/22 67/45/22
f 69/46/23 72/48/23 70/47/23
f 72/48/24 75/50/24 73/49/24
f 75/50/25 78/52/25 76/51/25
f 78/52/26 81/54/26 79/53/26
f 81/54/27 84/56/27 82/55/27
f 84/56/28 87/58/28 85/57/28
f 87/58/29 90/60/29 88/59/29
f 90/60/30 93/68/30 91/61/30
f 114/111/31 39/112/31 36/113/31
f 36/113/31 33/114/31 30/62/31
f 30/62/31 27/115/31 24/63/31
f 24/63/31 21/116/31 18/117/31
f 18/117/31 15/118/31 120/119/31
f 18/117/31 120/119/31 119/120/31
f 113/121/31 114/111/31 36/113/31
f 127/122/31 113/121/31 36/113/31
f 24/63/31 18/117/31 119/120/31
f 24/63/31 119/120/31 124/123/31
f 127/122/31 36/113/31 30/62/31
f 115/124/31 127/122/31 30/62/31
f 24/63/31 124/123/31 117/125/31
f 116/64/31 115/124/31 30/62/31
f 24/63/31 117/125/31 116/64/31
f 118/126/31 120/119/31 15/118/31
f 15/118/31 12/127/31 9/128/31
f 9/128/31 6/129/31 3/130/31
f 3/130/31 96/131/31 93/132/31
f 93/132/31 90/133/31 87/134/31
f 87/134/31 84/135/31 81/136/31
f 81/136/31 78/137/31 75/65/31
f 75/65/31 72/138/31 69/139/31
f 69/139/31 66/140/31 63/141/31
f 63/141/31 60/142/31 57/143/31
f 57/143/31 54/144/31 51/145/31
f 51/145/31 48/146/31 45/147/31
f 45/147/31 42/148/31 39/112/31
f 39/112/31 114/111/31 112/149/31
f 39/112/31 112/149/31 123/150/31
f 118/126/31 15/118/31 9/128/31
f 128/151/31 118/126/31 9/128/31
f 45/147/31 39/112/31 123/150/31
f 45/147/31 123/150/31 110/152/31
f 128/151/31 9/128/31 3/130/31
f 98/153/31 128/151/31 3/130/31
f 51/145/31 45/147/31 110/152/31
f 51/145/31 110/152/31 111/154/31
f 99/155/31 98/153/31 3/130/31
f 97/156/31 99/155/31 3/130/31
f 57/143/31 51/145/31 111/154/31
f 57/143/31 111/154/31 109/157/31
f 97/156/31 3/130/31 93/132/31
f 121/158/31 97/156/31 93/132/31
f 57/143/31 109/157/31 126/159/31
f 57/143/31 126/159/31 107/160/31
f 121/158/31 93/132/31 87/134/31
f 101/161/31 121/158/31 87/134/31
f 63/141/31 57/143/31 107/160/31
f 63/141/31 107/160/31 108/162/31
f 102/163/31 101/161/31 87/134/31
f 100/164/31 102/163/31 87/134/31
f 69/139/31 63/141/31 108/162/31
f 69/139/31 108/162/31 106/165/31
f 100/164/31 87/134/31 81/136/31
f 125/166/31 100/164/31 81/136/31
f 69/139/31 106/165/31 122/167/31
f 69/139/31 122/167/31 103/66/31
f 125/166/31 81/136/31 75/65/31
f 105/168/31 125/166/31 75/65/31
f 75/65/31 69/139/31 103/66/31
f 104/67/31 105/168/31 75/65/31
f 93/68/32 96/70/32 94/69/32
f 96/70/33 3/169/33 1/71/33
f 91/74/34 94/170/34 1/171/34
f 1/171/34 4/172/34 7/173/34
f 7/173/34 10/174/34 13/175/34
f 13/175/34 16/176/34 19/177/34
f 19/177/34 22/178/34 25/179/34
f 25/179/34 28/180/34 32/181/34
f 32/181/34 34/182/34 37/183/34
f 37/183/34 40/184/34 43/72/34
f 43/72/34 47/185/34 49/186/34
f 49/186/34 52/187/34 55/188/34
f 55/188/34 58/189/34 61/190/34
f 61/190/34 64/191/34 67/73/34
f 67/73/34 70/192/34 73/193/34
f 73/193/34 76/194/34 79/195/34
f 79/195/34 82/196/34 85/197/34
f 85/197/34 88/198/34 91/74/34
f 91/74/34 1/171/34 7/173/34
f 7/173/34 13/175/34 19/177/34
f 19/177/34 25/179/34 32/181/34
f 32/181/34 37/183/34 43/72/34
f 43/72/34 49/186/34 55/188/34
f 55/188/34 61/190/34 67/73/34
f 67/73/34 73/193/34 79/195/34
f 79/195/34 85/197/34 91/74/34
f 91/74/34 7/173/34 19/177/34
f 19/177/34 32/181/34 43/72/34
f 43/72/34 55/188/34 67/73/34
f 67/73/34 79/195/34 91/74/34
f 91/74/34 19/177/34 43/72/34
f 2/3/17 5/2/17 98/75/17
f 5/2/18 8/5/18 128/77/18
f 8/5/19 11/7/19 118/78/19
f 11/7/20 14/9/20 120/79/20
f 17/11/21 119/80/21 120/79/21
f 20/13/22 124/81/22 119/80/22
f 23/15/23 117/82/23 124/81/23
f 26/17/24 116/83/24 117/82/24
f 29/19/25 115/85/25 116/83/25
f 29/19/26 31/21/26 127/84/26
f 35/23/27 113/86/27 127/84/27
f 38/25/28 114/87/28 113/86/28
f 41/27/29 112/88/29 114/87/29
f 44/29/30 123/89/30 112/88/30
f 46/31/32 110/90/32 123/89/32
f 50/33/33 111/91/33 110/90/33
f 53/35/1 109/93/1 111/91/1
f 53/35/2 56/37/2 126/92/2
f 59/39/3 107/94/3 126/92/3
f 62/41/4 108/96/4 107/94/4
f 62/41/5 65/43/5 106/95/5
f 65/43/6 68/45/6 122/97/6
f 68/45/7 71/47/7 103/98/7
f 71/47/8 74/49/8 104/99/8
f 74/49/9 77/51/9 105/100/9
f 77/51/10 80/53/10 125/101/10
f 80/53/11 83/55/11 100/102/11
f 83/55/12 86/57/12 102/103/12
f 86/57/13 89/59/13 101/104/13
f 89/59/14 92/61/14 121/105/14
f 92/61/15 95/69/15 97/106/15
f 95/69/16 2/71/16 99/107/16
f 89/110/31 86/197/31 83/199/31
f 83/199/31 80/195/31 77/194/31
f 77/194/31 74/193/31 71/192/31
f 71/192/31 68/73/31 65/200/31
f 65/200/31 62/190/31 59/201/31
f 59/201/31 56/202/31 53/187/31
f 53/187/31 50/203/31 46/185/31
f 46/185/31 44/204/31 41/108/31
f 41/108/31 38/183/31 35/205/31
f 35/205/31 31/181/31 29/180/31
f 29/180/31 26/179/31 23/178/31
f 23/178/31 20/177/31 17/109/31
f 17/109/31 14/175/31 11/206/31
f 11/206/31 8/173/31 5/172/31
f 5/172/31 2/207/31 95/170/31
f 95/170/31 92/74/31 89/110/31
f 89/110/31 83/199/31 77/194/31
f 77/194/31 71/192/31 65/200/31
f 65/200/31 59/201/31 53/187/31
f 53/187/31 46/185/31 41/108/31
f 41/108/31 35/205/31 29/180/31
f 29/180/31 23/178/31 17/109/31
f 17/109/31 11/206/31 5/172/31
f 5/172/31 95/170/31 89/110/31
f 89/110/31 77/194/31 65/200/31
f 65/200/31 53/187/31 41/108/31
f 41/108/31 29/180/31 17/109/31
f 17/109/31 5/172/31 89/110/31
f 89/110/31 65/200/31 41/108/31
