# Blender 5.1.2
# www.blender.org
mtllib rail_carriage.mtl
o Carriage_Base.001
v -0.036300 -0.020330 0.010000
v -0.036300 -0.021530 0.011200
v -0.037500 -0.020330 0.011200
v -0.036300 -0.020929 0.010160
v -0.036899 -0.020330 0.010160
v -0.036874 -0.020904 0.010316
v -0.036899 -0.021369 0.011200
v -0.036300 -0.021369 0.010601
v -0.036874 -0.021214 0.010626
v -0.037340 -0.020330 0.010601
v -0.037340 -0.020929 0.011200
v -0.037184 -0.020904 0.010626
v -0.036300 -0.021530 0.016800
v -0.036300 -0.020330 0.018000
v -0.037500 -0.020330 0.016800
v -0.036300 -0.021369 0.017399
v -0.036899 -0.021369 0.016800
v -0.036874 -0.021214 0.017374
v -0.036899 -0.020330 0.017840
v -0.036300 -0.020929 0.017840
v -0.036874 -0.020904 0.017684
v -0.037340 -0.020929 0.016800
v -0.037340 -0.020330 0.017399
v -0.037184 -0.020904 0.017374
v -0.036300 0.020270 0.010000
v -0.037500 0.020270 0.011200
v -0.036300 0.021470 0.011200
v -0.036899 0.020270 0.010160
v -0.036300 0.020870 0.010160
v -0.036874 0.020844 0.010316
v -0.037340 0.020870 0.011200
v -0.037340 0.020270 0.010601
v -0.037184 0.020844 0.010626
v -0.036300 0.021310 0.010601
v -0.036899 0.021310 0.011200
v -0.036874 0.021154 0.010626
v -0.036300 0.020270 0.018000
v -0.036300 0.021470 0.016800
v -0.037500 0.020270 0.016800
v -0.036300 0.020870 0.017840
v -0.036899 0.020270 0.017840
v -0.036874 0.020844 0.017684
v -0.036899 0.021310 0.016800
v -0.036300 0.021310 0.017399
v -0.036874 0.021154 0.017374
v -0.037340 0.020270 0.017399
v -0.037340 0.020870 0.016800
v -0.037184 0.020844 0.017374
v 0.036300 -0.020330 0.010000
v 0.037500 -0.020330 0.011200
v 0.036300 -0.021530 0.011200
v 0.036899 -0.020330 0.010160
v 0.036300 -0.020929 0.010160
v 0.036874 -0.020904 0.010316
v 0.037340 -0.020929 0.011200
v 0.037340 -0.020330 0.010601
v 0.037184 -0.020904 0.010626
v 0.036300 -0.021369 0.010601
v 0.036899 -0.021369 0.011200
v 0.036874 -0.021214 0.010626
v 0.036300 -0.020330 0.018000
v 0.036300 -0.021530 0.016800
v 0.037500 -0.020330 0.016800
v 0.036300 -0.020929 0.017840
v 0.036899 -0.020330 0.017840
v 0.036874 -0.020904 0.017684
v 0.036899 -0.021369 0.016800
v 0.036300 -0.021369 0.017399
v 0.036874 -0.021214 0.017374
v 0.037340 -0.020330 0.017399
v 0.037340 -0.020929 0.016800
v 0.037184 -0.020904 0.017374
v 0.036300 0.020270 0.010000
v 0.036300 0.021470 0.011200
v 0.037500 0.020270 0.011200
v 0.036300 0.020870 0.010160
v 0.036899 0.020270 0.010160
v 0.036874 0.020844 0.010316
v 0.036899 0.021310 0.011200
v 0.036300 0.021310 0.010601
v 0.036874 0.021154 0.010626
v 0.037340 0.020270 0.010601
v 0.037340 0.020870 0.011200
v 0.037184 0.020844 0.010626
v 0.036300 0.020270 0.018000
v 0.037500 0.020270 0.016800
v 0.036300 0.021470 0.016800
v 0.036899 0.020270 0.017840
v 0.036300 0.020870 0.017840
v 0.036874 0.020844 0.017684
v 0.037340 0.020870 0.016800
v 0.037340 0.020270 0.017399
v 0.037184 0.020844 0.017374
v 0.036300 0.021310 0.017399
v 0.036899 0.021310 0.016800
v 0.036874 0.021154 0.017374
vn -0.2502 -0.2502 -0.9353
vn -0.2178 -0.6901 -0.6901
vn -0.2502 -0.9353 -0.2502
vn -0.6901 -0.6901 -0.2178
vn -0.9353 -0.2502 -0.2502
vn -0.6901 -0.2178 -0.6901
vn -0.5773 -0.5774 -0.5773
vn -0.2502 -0.9353 0.2502
vn -0.2178 -0.6901 0.6901
vn -0.2502 -0.2502 0.9353
vn -0.6901 -0.2178 0.6901
vn -0.9353 -0.2502 0.2502
vn -0.6901 -0.6901 0.2178
vn -0.5773 -0.5774 0.5773
vn -0.2502 0.2502 -0.9353
vn -0.6901 0.2178 -0.6901
vn -0.9353 0.2502 -0.2502
vn -0.6901 0.6901 -0.2178
vn -0.2502 0.9353 -0.2502
vn -0.2178 0.6901 -0.6901
vn -0.5773 0.5774 -0.5773
vn -0.2502 0.2502 0.9353
vn -0.2178 0.6901 0.6901
vn -0.2502 0.9353 0.2502
vn -0.6901 0.6901 0.2178
vn -0.9353 0.2502 0.2502
vn -0.6901 0.2178 0.6901
vn -0.5773 0.5774 0.5773
vn 0.2502 -0.2502 -0.9353
vn 0.6901 -0.2178 -0.6901
vn 0.9353 -0.2502 -0.2502
vn 0.6901 -0.6901 -0.2178
vn 0.2502 -0.9353 -0.2502
vn 0.2178 -0.6901 -0.6901
vn 0.5773 -0.5774 -0.5773
vn 0.2502 -0.2502 0.9353
vn 0.2178 -0.6901 0.6901
vn 0.2502 -0.9353 0.2502
vn 0.6901 -0.6901 0.2178
vn 0.9353 -0.2502 0.2502
vn 0.6901 -0.2178 0.6901
vn 0.5773 -0.5774 0.5773
vn 0.2502 0.2502 -0.9353
vn 0.2178 0.6901 -0.6901
vn 0.2502 0.9353 -0.2502
vn 0.6901 0.6901 -0.2178
vn 0.9353 0.2502 -0.2502
vn 0.6901 0.2178 -0.6901
vn 0.5773 0.5774 -0.5773
vn 0.2502 0.2502 0.9353
vn 0.6901 0.2178 0.6901
vn 0.9353 0.2502 0.2502
vn 0.6901 0.6901 0.2178
vn 0.2502 0.9353 0.2502
vn 0.2178 0.6901 0.6901
vn 0.5773 0.5774 0.5773
vn -0.2585 -0.0000 -0.9660
vn -0.7071 -0.0000 -0.7071
vn -0.9660 -0.0000 -0.2585
vn -0.2585 -0.9660 -0.0000
vn -0.7071 -0.7071 -0.0000
vn -0.9660 -0.2585 -0.0000
vn -0.2585 -0.0000 0.9660
vn -0.7071 -0.0000 0.7071
vn -0.9660 -0.0000 0.2585
vn -0.2585 0.9660 -0.0000
vn -0.7071 0.7071 -0.0000
vn -0.9660 0.2585 -0.0000
vn -0.0000 0.2585 -0.9660
vn -0.0000 0.7071 -0.7071
vn -0.0000 0.9660 -0.2585
vn -0.0000 0.2585 0.9660
vn -0.0000 0.7071 0.7071
vn -0.0000 0.9660 0.2585
vn 0.9660 0.2585 -0.0000
vn 0.7071 0.7071 -0.0000
vn 0.2585 0.9660 -0.0000
vn 0.2585 -0.0000 -0.9660
vn 0.7071 -0.0000 -0.7071
vn 0.9660 -0.0000 -0.2585
vn 0.2585 -0.0000 0.9660
vn 0.7071 -0.0000 0.7071
vn 0.9660 -0.0000 0.2585
vn 0.2585 -0.9660 -0.0000
vn 0.7071 -0.7071 -0.0000
vn 0.9660 -0.2585 -0.0000
vn -0.0000 -0.2585 -0.9660
vn -0.0000 -0.7071 -0.7071
vn -0.0000 -0.9660 -0.2584
vn -0.0000 -0.2585 0.9660
vn -0.0000 -0.7071 0.7071
vn -0.0000 -0.9660 0.2584
vn -0.0000 -0.0000 -1.0000
vn -1.0000 -0.0000 -0.0000
vn -0.0000 -1.0000 -0.0000
vn -0.0000 -0.0000 1.0000
vn -0.0000 1.0000 -0.0000
vn 1.0000 -0.0000 -0.0000
vn -0.2635 -0.2635 -0.9280
vn -0.2635 -0.9280 -0.2635
vn -0.9280 -0.2635 -0.2635
vn -0.2635 -0.9280 0.2635
vn -0.2635 -0.2635 0.9280
vn -0.9280 -0.2635 0.2635
vn -0.2635 0.2635 -0.9280
vn -0.9280 0.2635 -0.2635
vn -0.2635 0.9280 -0.2635
vn -0.2635 0.2635 0.9280
vn -0.2635 0.9280 0.2635
vn -0.9280 0.2635 0.2635
vn 0.2635 -0.2635 -0.9280
vn 0.9280 -0.2635 -0.2635
vn 0.2635 -0.9280 -0.2635
vn 0.2635 -0.2635 0.9280
vn 0.2635 -0.9280 0.2635
vn 0.9280 -0.2635 0.2635
vn 0.2635 0.2635 -0.9280
vn 0.2635 0.9280 -0.2635
vn 0.9280 0.2635 -0.2635
vn 0.2635 0.2635 0.9280
vn 0.9280 0.2635 0.2635
vn 0.2635 0.9280 0.2635
vn -0.0000 -0.9660 -0.2585
vn -0.0000 -0.9660 0.2585
vt 0.129000 0.746507
vt 0.127003 0.743023
vt 0.129000 0.743023
vt 0.127087 0.750000
vt 0.127087 0.746360
vt 0.412500 1.000000
vt 0.375000 0.996000
vt 0.412500 0.996000
vt 0.412500 0.000000
vt 0.375000 0.003640
vt 0.375000 0.000000
vt 0.375000 0.006977
vt 0.412500 0.003493
vt 0.412500 0.006977
vt 0.125000 0.746360
vt 0.125000 0.743023
vt 0.606225 0.996000
vt 0.587500 1.000000
vt 0.587500 0.996000
vt 0.625000 0.996000
vt 0.605433 0.997913
vt 0.875000 0.743023
vt 0.871000 0.750000
vt 0.871000 0.743023
vt 0.625000 0.006977
vt 0.605433 0.003640
vt 0.625000 0.000000
vt 0.587500 0.003493
vt 0.606225 0.006977
vt 0.587500 0.006977
vt 0.587500 0.000000
vt 0.625000 0.997913
vt 0.605433 0.998946
vt 0.127003 0.506977
vt 0.129000 0.503493
vt 0.129000 0.506977
vt 0.125000 0.503640
vt 0.127087 0.503640
vt 0.412500 0.246507
vt 0.375000 0.243023
vt 0.412500 0.243023
vt 0.375000 0.252087
vt 0.375000 0.246360
vt 0.375000 0.254000
vt 0.412500 0.252003
vt 0.412500 0.254000
vt 0.127087 0.500000
vt 0.129000 0.500000
vt 0.871000 0.500000
vt 0.875000 0.506977
vt 0.871000 0.506977
vt 0.625000 0.254000
vt 0.605433 0.252087
vt 0.625000 0.251391
vt 0.587500 0.252003
vt 0.606225 0.254000
vt 0.587500 0.254000
vt 0.605433 0.247533
vt 0.606225 0.243023
vt 0.587500 0.246507
vt 0.587500 0.243023
vt 0.372997 0.743023
vt 0.371000 0.746507
vt 0.371000 0.743023
vt 0.389412 0.746360
vt 0.372913 0.746360
vt 0.412500 0.746507
vt 0.393775 0.743023
vt 0.412500 0.743023
vt 0.412500 0.752003
vt 0.373000 0.752000
vt 0.412500 0.754000
vt 0.373956 0.751044
vt 0.627000 0.752000
vt 0.627003 0.743023
vt 0.629000 0.743023
vt 0.605433 0.752087
vt 0.626044 0.751044
vt 0.587500 0.752003
vt 0.606225 0.754000
vt 0.587500 0.754000
vt 0.605433 0.747533
vt 0.606225 0.743023
vt 0.587500 0.746507
vt 0.587500 0.743023
vt 0.371000 0.503493
vt 0.372997 0.506977
vt 0.371000 0.506977
vt 0.373956 0.498956
vt 0.372913 0.503640
vt 0.412500 0.497997
vt 0.373000 0.498000
vt 0.412500 0.496000
vt 0.412500 0.503493
vt 0.393775 0.506977
vt 0.412500 0.506977
vt 0.389412 0.503640
vt 0.627003 0.506977
vt 0.627000 0.498000
vt 0.629000 0.506977
vt 0.606225 0.506977
vt 0.621105 0.502209
vt 0.587500 0.503493
vt 0.587500 0.506977
vt 0.587500 0.497997
vt 0.605433 0.503640
vt 0.606225 0.496000
vt 0.587500 0.496000
vt 0.605433 0.498894
vt 0.125000 0.506977
vt 0.625000 0.243023
vt 0.129000 0.750000
vt 0.375000 0.997913
vt 0.872913 0.750000
vt 0.605433 0.001837
vt 0.872913 0.500000
s 0
usemtl Mat_Light_Metal
f 4/1/1 5/2/1 1/3/1
f 4/1/2 9/4/2 6/5/2
f 7/6/3 8/7/3 2/8/3
f 7/9/4 12/10/4 9/11/4
f 10/12/5 11/13/5 3/14/5
f 5/2/6 12/15/6 10/16/6
f 6/5/7 9/4/7 12/15/7
f 16/17/8 17/18/8 13/19/8
f 20/20/9 18/21/9 16/17/9
f 19/22/10 20/23/10 14/24/10
f 19/25/11 24/26/11 21/27/11
f 22/28/12 23/29/12 15/30/12
f 17/31/13 24/26/13 22/28/13
f 18/21/14 21/32/14 24/33/14
f 28/34/15 29/35/15 25/36/15
f 28/34/16 33/37/16 30/38/16
f 31/39/17 32/40/17 26/41/17
f 31/39/18 36/42/18 33/43/18
f 34/44/19 35/45/19 27/46/19
f 29/35/20 36/47/20 34/48/20
f 30/38/21 33/37/21 36/47/21
f 40/49/22 41/50/22 37/51/22
f 40/52/23 45/53/23 42/54/23
f 43/55/24 44/56/24 38/57/24
f 43/55/25 48/58/25 45/53/25
f 46/59/26 47/60/26 39/61/26
f 46/59/27 42/54/27 48/58/27
f 42/54/28 45/53/28 48/58/28
f 52/62/29 53/63/29 49/64/29
f 52/62/30 57/65/30 54/66/30
f 55/67/31 56/68/31 50/69/31
f 59/70/32 57/65/32 55/67/32
f 58/71/33 59/70/33 51/72/33
f 53/63/34 60/73/34 58/71/34
f 54/66/35 57/65/35 60/73/35
f 64/74/36 65/75/36 61/76/36
f 64/74/37 69/77/37 66/78/37
f 67/79/38 68/80/38 62/81/38
f 67/79/39 72/82/39 69/77/39
f 70/83/40 71/84/40 63/85/40
f 65/75/41 72/82/41 70/83/41
f 66/78/42 69/77/42 72/82/42
f 76/86/43 77/87/43 73/88/43
f 76/86/44 81/89/44 78/90/44
f 79/91/45 80/92/45 74/93/45
f 83/94/46 81/89/46 79/91/46
f 82/95/47 83/94/47 75/96/47
f 77/87/48 84/97/48 82/95/48
f 78/90/49 81/89/49 84/97/49
f 88/98/50 89/99/50 85/100/50
f 92/101/51 90/102/51 88/98/51
f 91/103/52 92/101/52 86/104/52
f 95/105/53 93/106/53 91/103/53
f 94/107/54 95/105/54 87/108/54
f 89/99/55 96/109/55 94/107/55
f 90/102/56 93/106/56 96/109/56
f 1/3/57 28/34/57 25/36/57
f 5/2/58 32/110/58 28/34/58
f 10/12/59 26/41/59 32/40/59
f 13/19/60 7/6/60 2/8/60
f 17/31/61 11/13/61 7/9/61
f 22/28/62 3/14/62 11/13/62
f 37/51/63 19/22/63 14/24/63
f 41/111/64 23/29/64 19/25/64
f 46/59/65 15/30/65 23/29/65
f 27/46/66 43/55/66 38/57/66
f 35/45/67 47/60/67 43/55/67
f 31/39/68 39/61/68 47/60/68
f 25/36/69 76/86/69 73/88/69
f 29/35/70 80/92/70 76/86/70
f 34/44/71 74/93/71 80/92/71
f 85/100/72 40/49/72 37/51/72
f 89/99/73 44/56/73 40/52/73
f 94/107/74 38/57/74 44/56/74
f 75/96/75 91/103/75 86/104/75
f 83/94/76 95/105/76 91/103/76
f 79/91/77 87/108/77 95/105/77
f 73/88/78 52/62/78 49/64/78
f 77/87/79 56/68/79 52/62/79
f 82/95/80 50/69/80 56/68/80
f 61/76/81 88/98/81 85/100/81
f 65/75/82 92/101/82 88/98/82
f 70/83/83 86/104/83 92/101/83
f 51/72/84 67/79/84 62/81/84
f 59/70/85 71/84/85 67/79/85
f 55/67/86 63/85/86 71/84/86
f 49/64/87 4/1/87 1/3/87
f 53/63/88 8/112/88 4/1/88
f 58/71/89 2/8/89 8/7/89
f 14/24/90 64/74/90 61/76/90
f 20/20/91 68/80/91 64/74/91
f 16/17/92 62/81/92 68/80/92
f 73/88/93 1/3/93 25/36/93
f 15/30/94 26/41/94 3/14/94
f 62/81/95 2/8/95 51/72/95
f 37/51/96 61/76/96 85/100/96
f 38/57/97 74/93/97 27/46/97
f 86/104/98 50/69/98 75/96/98
f 4/1/99 6/5/99 5/2/99
f 4/1/2 8/112/2 9/4/2
f 7/6/100 9/113/100 8/7/100
f 7/9/4 11/13/4 12/10/4
f 10/12/101 12/10/101 11/13/101
f 5/2/6 6/5/6 12/15/6
f 16/17/102 18/21/102 17/18/102
f 20/20/9 21/32/9 18/21/9
f 19/22/103 21/114/103 20/23/103
f 19/25/11 23/29/11 24/26/11
f 22/28/104 24/26/104 23/29/104
f 17/31/13 18/115/13 24/26/13
f 28/34/105 30/38/105 29/35/105
f 28/34/16 32/110/16 33/37/16
f 31/39/106 33/43/106 32/40/106
f 31/39/18 35/45/18 36/42/18
f 34/44/107 36/42/107 35/45/107
f 29/35/20 30/38/20 36/47/20
f 40/49/108 42/116/108 41/50/108
f 40/52/23 44/56/23 45/53/23
f 43/55/109 45/53/109 44/56/109
f 43/55/25 47/60/25 48/58/25
f 46/59/110 48/58/110 47/60/110
f 46/59/27 41/111/27 42/54/27
f 52/62/111 54/66/111 53/63/111
f 52/62/30 56/68/30 57/65/30
f 55/67/112 57/65/112 56/68/112
f 59/70/32 60/73/32 57/65/32
f 58/71/113 60/73/113 59/70/113
f 53/63/34 54/66/34 60/73/34
f 64/74/114 66/78/114 65/75/114
f 64/74/37 68/80/37 69/77/37
f 67/79/115 69/77/115 68/80/115
f 67/79/39 71/84/39 72/82/39
f 70/83/116 72/82/116 71/84/116
f 65/75/41 66/78/41 72/82/41
f 76/86/117 78/90/117 77/87/117
f 76/86/44 80/92/44 81/89/44
f 79/91/118 81/89/118 80/92/118
f 83/94/46 84/97/46 81/89/46
f 82/95/119 84/97/119 83/94/119
f 77/87/48 78/90/48 84/97/48
f 88/98/120 90/102/120 89/99/120
f 92/101/51 93/106/51 90/102/51
f 91/103/121 93/106/121 92/101/121
f 95/105/53 96/109/53 93/106/53
f 94/107/122 96/109/122 95/105/122
f 89/99/55 90/102/55 96/109/55
f 1/3/57 5/2/57 28/34/57
f 5/2/58 10/16/58 32/110/58
f 10/12/59 3/14/59 26/41/59
f 13/19/60 17/18/60 7/6/60
f 17/31/61 22/28/61 11/13/61
f 22/28/62 15/30/62 3/14/62
f 37/51/63 41/50/63 19/22/63
f 41/111/64 46/59/64 23/29/64
f 46/59/65 39/61/65 15/30/65
f 27/46/66 35/45/66 43/55/66
f 35/45/67 31/39/67 47/60/67
f 31/39/68 26/41/68 39/61/68
f 25/36/69 29/35/69 76/86/69
f 29/35/70 34/48/70 80/92/70
f 34/44/71 27/46/71 74/93/71
f 85/100/72 89/99/72 40/49/72
f 89/99/73 94/107/73 44/56/73
f 94/107/74 87/108/74 38/57/74
f 75/96/75 83/94/75 91/103/75
f 83/94/76 79/91/76 95/105/76
f 79/91/77 74/93/77 87/108/77
f 73/88/78 77/87/78 52/62/78
f 77/87/79 82/95/79 56/68/79
f 82/95/80 75/96/80 50/69/80
f 61/76/81 65/75/81 88/98/81
f 65/75/82 70/83/82 92/101/82
f 70/83/83 63/85/83 86/104/83
f 51/72/84 59/70/84 67/79/84
f 59/70/85 55/67/85 71/84/85
f 55/67/86 50/69/86 63/85/86
f 49/64/87 53/63/87 4/1/87
f 53/63/88 58/71/88 8/112/88
f 58/71/123 51/72/123 2/8/123
f 14/24/90 20/23/90 64/74/90
f 20/20/91 16/17/91 68/80/91
f 16/17/124 13/19/124 62/81/124
f 73/88/93 49/64/93 1/3/93
f 15/30/94 39/61/94 26/41/94
f 62/81/95 13/19/95 2/8/95
f 37/51/96 14/24/96 61/76/96
f 38/57/97 87/108/97 74/93/97
f 86/104/98 63/85/98 50/69/98
o Carriage_Top_Plate.001
v -0.028500 -0.018530 0.018000
v -0.028500 -0.020030 0.019500
v -0.030000 -0.018530 0.019500
v -0.028500 -0.019279 0.018200
v -0.029249 -0.018530 0.018200
v -0.029217 -0.019247 0.018395
v -0.029249 -0.019829 0.019500
v -0.028500 -0.019829 0.018751
v -0.029217 -0.019635 0.018783
v -0.029800 -0.018530 0.018751
v -0.029800 -0.019279 0.019500
v -0.029605 -0.019247 0.018783
v -0.028500 -0.020030 0.030500
v -0.028500 -0.018530 0.032000
v -0.030000 -0.018530 0.030500
v -0.028500 -0.019829 0.031249
v -0.029249 -0.019829 0.030500
v -0.029217 -0.019635 0.031217
v -0.029249 -0.018530 0.031800
v -0.028500 -0.019279 0.031800
v -0.029217 -0.019247 0.031605
v -0.029800 -0.019279 0.030500
v -0.029800 -0.018530 0.031249
v -0.029605 -0.019247 0.031217
v -0.028500 0.018470 0.018000
v -0.030000 0.018470 0.019500
v -0.028500 0.019970 0.019500
v -0.029249 0.018470 0.018200
v -0.028500 0.019219 0.018200
v -0.029217 0.019188 0.018395
v -0.029800 0.019219 0.019500
v -0.029800 0.018470 0.018751
v -0.029605 0.019188 0.018783
v -0.028500 0.019770 0.018751
v -0.029249 0.019770 0.019500
v -0.029217 0.019575 0.018783
v -0.028500 0.018470 0.032000
v -0.028500 0.019970 0.030500
v -0.030000 0.018470 0.030500
v -0.028500 0.019219 0.031800
v -0.029249 0.018470 0.031800
v -0.029217 0.019188 0.031605
v -0.029249 0.019770 0.030500
v -0.028500 0.019770 0.031249
v -0.029217 0.019575 0.031217
v -0.029800 0.018470 0.031249
v -0.029800 0.019219 0.030500
v -0.029605 0.019188 0.031217
v 0.028500 -0.018530 0.018000
v 0.030000 -0.018530 0.019500
v 0.028500 -0.020030 0.019500
v 0.029249 -0.018530 0.018200
v 0.028500 -0.019279 0.018200
v 0.029217 -0.019247 0.018395
v 0.029800 -0.019279 0.019500
v 0.029800 -0.018530 0.018751
v 0.029605 -0.019247 0.018783
v 0.028500 -0.019829 0.018751
v 0.029249 -0.019829 0.019500
v 0.029217 -0.019635 0.018783
v 0.028500 -0.018530 0.032000
v 0.028500 -0.020030 0.030500
v 0.030000 -0.018530 0.030500
v 0.028500 -0.019279 0.031800
v 0.029249 -0.018530 0.031800
v 0.029217 -0.019247 0.031605
v 0.029249 -0.019829 0.030500
v 0.028500 -0.019829 0.031249
v 0.029217 -0.019635 0.031217
v 0.029800 -0.018530 0.031249
v 0.029800 -0.019279 0.030500
v 0.029605 -0.019247 0.031217
v 0.028500 0.018470 0.018000
v 0.028500 0.019970 0.019500
v 0.030000 0.018470 0.019500
v 0.028500 0.019219 0.018200
v 0.029249 0.018470 0.018200
v 0.029217 0.019188 0.018395
v 0.029249 0.019770 0.019500
v 0.028500 0.019770 0.018751
v 0.029217 0.019575 0.018783
v 0.029800 0.018470 0.018751
v 0.029800 0.019219 0.019500
v 0.029605 0.019188 0.018783
v 0.028500 0.018470 0.032000
v 0.030000 0.018470 0.030500
v 0.028500 0.019970 0.030500
v 0.029249 0.018470 0.031800
v 0.028500 0.019219 0.031800
v 0.029217 0.019188 0.031605
v 0.029800 0.019219 0.030500
v 0.029800 0.018470 0.031249
v 0.029605 0.019188 0.031217
v 0.028500 0.019770 0.031249
v 0.029249 0.019770 0.030500
v 0.029217 0.019575 0.031217
vn -0.2502 -0.2502 -0.9353
vn -0.2178 -0.6901 -0.6901
vn -0.2502 -0.9353 -0.2502
vn -0.6901 -0.6901 -0.2178
vn -0.9353 -0.2502 -0.2502
vn -0.6901 -0.2178 -0.6901
vn -0.5773 -0.5774 -0.5774
vn -0.2502 -0.9353 0.2502
vn -0.2178 -0.6901 0.6901
vn -0.2502 -0.2502 0.9353
vn -0.6901 -0.2178 0.6901
vn -0.9353 -0.2502 0.2502
vn -0.6901 -0.6901 0.2178
vn -0.5773 -0.5774 0.5774
vn -0.2502 0.2502 -0.9353
vn -0.6901 0.2178 -0.6901
vn -0.9353 0.2502 -0.2502
vn -0.6901 0.6901 -0.2178
vn -0.2502 0.9353 -0.2502
vn -0.2178 0.6901 -0.6901
vn -0.5773 0.5774 -0.5773
vn -0.2502 0.2502 0.9353
vn -0.2178 0.6901 0.6901
vn -0.2502 0.9353 0.2502
vn -0.6901 0.6901 0.2178
vn -0.9353 0.2502 0.2502
vn -0.6901 0.2178 0.6901
vn -0.5773 0.5774 0.5773
vn 0.2502 -0.2502 -0.9353
vn 0.6901 -0.2178 -0.6901
vn 0.9353 -0.2502 -0.2502
vn 0.6901 -0.6901 -0.2178
vn 0.2502 -0.9353 -0.2502
vn 0.2178 -0.6901 -0.6901
vn 0.5773 -0.5774 -0.5774
vn 0.2502 -0.2502 0.9353
vn 0.2178 -0.6901 0.6901
vn 0.2502 -0.9353 0.2502
vn 0.6901 -0.6901 0.2178
vn 0.9353 -0.2502 0.2502
vn 0.6901 -0.2178 0.6901
vn 0.5773 -0.5774 0.5774
vn 0.2502 0.2502 -0.9353
vn 0.2178 0.6901 -0.6901
vn 0.2502 0.9353 -0.2502
vn 0.6901 0.6901 -0.2178
vn 0.9353 0.2502 -0.2502
vn 0.6901 0.2178 -0.6901
vn 0.5773 0.5774 -0.5773
vn 0.2502 0.2502 0.9353
vn 0.6901 0.2178 0.6901
vn 0.9353 0.2502 0.2502
vn 0.6901 0.6901 0.2178
vn 0.2502 0.9353 0.2502
vn 0.2178 0.6901 0.6901
vn 0.5773 0.5774 0.5773
vn -0.2585 -0.0000 -0.9660
vn -0.7071 -0.0000 -0.7071
vn -0.9660 -0.0000 -0.2585
vn -0.2585 -0.9660 -0.0000
vn -0.7071 -0.7071 -0.0000
vn -0.9660 -0.2585 -0.0000
vn -0.2585 -0.0000 0.9660
vn -0.7071 -0.0000 0.7071
vn -0.9660 -0.0000 0.2585
vn -0.2585 0.9660 -0.0000
vn -0.7071 0.7071 -0.0000
vn -0.9660 0.2585 -0.0000
vn -0.0000 0.2585 -0.9660
vn -0.0000 0.7071 -0.7071
vn -0.0000 0.9660 -0.2585
vn -0.0000 0.2585 0.9660
vn -0.0000 0.7071 0.7071
vn -0.0000 0.9660 0.2585
vn 0.9660 0.2585 -0.0000
vn 0.7071 0.7071 -0.0000
vn 0.2585 0.9660 -0.0000
vn 0.2585 -0.0000 -0.9660
vn 0.7071 -0.0000 -0.7071
vn 0.9660 -0.0000 -0.2585
vn 0.2585 -0.0000 0.9660
vn 0.7071 -0.0000 0.7071
vn 0.9660 -0.0000 0.2585
vn 0.2585 -0.9660 -0.0000
vn 0.7071 -0.7071 -0.0000
vn 0.9660 -0.2585 -0.0000
vn -0.0000 -0.2585 -0.9660
vn -0.0000 -0.7071 -0.7071
vn -0.0000 -0.9660 -0.2585
vn -0.0000 -0.2585 0.9660
vn -0.0000 -0.7071 0.7071
vn -0.0000 -0.9660 0.2585
vn -0.0000 -0.0000 -1.0000
vn -1.0000 -0.0000 -0.0000
vn -0.0000 -1.0000 -0.0000
vn -0.0000 -0.0000 1.0000
vn -0.0000 1.0000 -0.0000
vn 1.0000 -0.0000 -0.0000
vn -0.2635 -0.2635 -0.9280
vn -0.2635 -0.9280 -0.2635
vn -0.9280 -0.2635 -0.2635
vn -0.2635 -0.9280 0.2635
vn -0.2635 -0.2635 0.9280
vn -0.9280 -0.2635 0.2635
vn -0.2635 0.2635 -0.9280
vn -0.9280 0.2635 -0.2635
vn -0.2635 0.9280 -0.2635
vn -0.2635 0.2635 0.9280
vn -0.2635 0.9280 0.2635
vn -0.9280 0.2635 0.2635
vn 0.2635 -0.2635 -0.9280
vn 0.9280 -0.2635 -0.2635
vn 0.2635 -0.9280 -0.2635
vn 0.2635 -0.2635 0.9280
vn 0.2635 -0.9280 0.2635
vn 0.9280 -0.2635 0.2635
vn 0.2635 0.2635 -0.9280
vn 0.2635 0.9280 -0.2635
vn 0.9280 0.2635 -0.2635
vn 0.2635 0.2635 0.9280
vn 0.9280 0.2635 0.2635
vn 0.2635 0.9280 0.2635
vt 0.131250 0.745306
vt 0.128129 0.740625
vt 0.131250 0.740625
vt 0.128261 0.750000
vt 0.128261 0.745108
vt 0.401786 1.000000
vt 0.375000 0.993750
vt 0.401786 0.993750
vt 0.401786 0.000000
vt 0.375000 0.004892
vt 0.375000 0.000000
vt 0.375000 0.009375
vt 0.401786 0.004694
vt 0.401786 0.009375
vt 0.125000 0.745108
vt 0.125000 0.740625
vt 0.611590 0.993750
vt 0.598214 1.000000
vt 0.598214 0.993750
vt 0.625000 0.993750
vt 0.611024 0.996739
vt 0.875000 0.740625
vt 0.868750 0.750000
vt 0.868750 0.740625
vt 0.611590 0.009375
vt 0.625000 0.000000
vt 0.625000 0.009375
vt 0.598214 0.004694
vt 0.598214 0.009375
vt 0.598214 0.000000
vt 0.611024 0.004892
vt 0.625000 0.996739
vt 0.611023 0.998354
vt 0.128129 0.509375
vt 0.131250 0.504694
vt 0.131250 0.509375
vt 0.125000 0.509375
vt 0.128261 0.504892
vt 0.401786 0.245306
vt 0.375000 0.240625
vt 0.401786 0.240625
vt 0.401786 0.253129
vt 0.375000 0.245108
vt 0.375000 0.256250
vt 0.401786 0.256250
vt 0.128261 0.500000
vt 0.131250 0.500000
vt 0.125000 0.504892
vt 0.868750 0.500000
vt 0.875000 0.509375
vt 0.868750 0.509375
vt 0.611590 0.256250
vt 0.625000 0.252174
vt 0.625000 0.256250
vt 0.598214 0.253129
vt 0.598214 0.256250
vt 0.611023 0.246743
vt 0.611023 0.253261
vt 0.611590 0.240625
vt 0.598214 0.245306
vt 0.598214 0.240625
vt 0.371871 0.740625
vt 0.368750 0.745306
vt 0.368750 0.740625
vt 0.385071 0.745108
vt 0.371739 0.745108
vt 0.401786 0.745306
vt 0.388410 0.740625
vt 0.401786 0.740625
vt 0.401786 0.753129
vt 0.371875 0.753125
vt 0.401786 0.756250
vt 0.373369 0.751631
vt 0.628125 0.753125
vt 0.628129 0.740625
vt 0.631250 0.740625
vt 0.611590 0.756250
vt 0.626631 0.751631
vt 0.598214 0.753129
vt 0.598214 0.756250
vt 0.611023 0.746743
vt 0.611023 0.753261
vt 0.611590 0.740625
vt 0.598214 0.745306
vt 0.598214 0.740625
vt 0.368750 0.504694
vt 0.371871 0.509375
vt 0.368750 0.509375
vt 0.373369 0.498369
vt 0.371739 0.504892
vt 0.401786 0.496871
vt 0.371875 0.496875
vt 0.401786 0.493750
vt 0.385071 0.504892
vt 0.388410 0.509375
vt 0.401786 0.504694
vt 0.401786 0.509375
vt 0.628129 0.509375
vt 0.628125 0.496875
vt 0.631250 0.509375
vt 0.611590 0.509375
vt 0.623103 0.502854
vt 0.598214 0.504694
vt 0.598214 0.509375
vt 0.598214 0.496871
vt 0.611023 0.504892
vt 0.611590 0.493750
vt 0.598214 0.493750
vt 0.611023 0.498171
vt 0.625000 0.240625
vt 0.131250 0.750000
vt 0.375000 0.996739
vt 0.871739 0.750000
vt 0.611024 0.002469
vt 0.375000 0.253261
vt 0.871739 0.500000
s 0
usemtl Mat_Light_Metal
f 100/117/125 101/118/125 97/119/125
f 100/117/126 105/120/126 102/121/126
f 103/122/127 104/123/127 98/124/127
f 103/125/128 108/126/128 105/127/128
f 106/128/129 107/129/129 99/130/129
f 101/118/130 108/131/130 106/132/130
f 102/121/131 105/120/131 108/131/131
f 112/133/132 113/134/132 109/135/132
f 116/136/133 114/137/133 112/133/133
f 115/138/134 116/139/134 110/140/134
f 119/141/135 117/142/135 115/143/135
f 118/144/136 119/141/136 111/145/136
f 113/146/137 120/147/137 118/144/137
f 114/137/138 117/148/138 120/149/138
f 124/150/139 125/151/139 121/152/139
f 128/153/140 126/154/140 124/150/140
f 127/155/141 128/156/141 122/157/141
f 131/158/142 129/159/142 127/155/142
f 130/160/143 131/158/143 123/161/143
f 125/151/144 132/162/144 130/163/144
f 126/154/145 129/164/145 132/162/145
f 136/165/146 137/166/146 133/167/146
f 140/168/147 138/169/147 136/170/147
f 139/171/148 140/168/148 134/172/148
f 139/171/149 144/173/149 141/174/149
f 142/175/150 143/176/150 135/177/150
f 142/175/151 138/169/151 144/173/151
f 138/169/152 141/174/152 144/173/152
f 148/178/153 149/179/153 145/180/153
f 148/178/154 153/181/154 150/182/154
f 151/183/155 152/184/155 146/185/155
f 155/186/156 153/181/156 151/183/156
f 154/187/157 155/186/157 147/188/157
f 149/179/158 156/189/158 154/187/158
f 150/182/159 153/181/159 156/189/159
f 160/190/160 161/191/160 157/192/160
f 164/193/161 162/194/161 160/190/161
f 163/195/162 164/193/162 158/196/162
f 163/195/163 168/197/163 165/198/163
f 166/199/164 167/200/164 159/201/164
f 166/199/165 162/194/165 168/197/165
f 162/194/166 165/198/166 168/197/166
f 172/202/167 173/203/167 169/204/167
f 172/202/168 177/205/168 174/206/168
f 175/207/169 176/208/169 170/209/169
f 175/207/170 180/210/170 177/205/170
f 178/211/171 179/212/171 171/213/171
f 178/211/172 174/206/172 180/210/172
f 174/206/173 177/205/173 180/210/173
f 184/214/174 185/215/174 181/216/174
f 188/217/175 186/218/175 184/214/175
f 187/219/176 188/217/176 182/220/176
f 191/221/177 189/222/177 187/219/177
f 190/223/178 191/221/178 183/224/178
f 190/223/179 186/218/179 192/225/179
f 186/218/180 189/222/180 192/225/180
f 97/119/181 124/150/181 121/152/181
f 101/118/182 128/153/182 124/150/182
f 106/128/183 122/157/183 128/156/183
f 109/135/184 103/122/184 98/124/184
f 113/146/185 107/129/185 103/125/185
f 118/144/186 99/130/186 107/129/186
f 133/167/187 115/138/187 110/140/187
f 137/226/188 119/141/188 115/143/188
f 142/175/189 111/145/189 119/141/189
f 123/161/190 139/171/190 134/172/190
f 131/158/191 143/176/191 139/171/191
f 127/155/192 135/177/192 143/176/192
f 121/152/193 172/202/193 169/204/193
f 125/151/194 176/208/194 172/202/194
f 130/160/195 170/209/195 176/208/195
f 181/216/196 136/165/196 133/167/196
f 185/215/197 140/168/197 136/170/197
f 190/223/198 134/172/198 140/168/198
f 171/213/199 187/219/199 182/220/199
f 179/212/200 191/221/200 187/219/200
f 175/207/201 183/224/201 191/221/201
f 169/204/202 148/178/202 145/180/202
f 173/203/203 152/184/203 148/178/203
f 178/211/204 146/185/204 152/184/204
f 157/192/205 184/214/205 181/216/205
f 161/191/206 188/217/206 184/214/206
f 166/199/207 182/220/207 188/217/207
f 147/188/208 163/195/208 158/196/208
f 155/186/209 167/200/209 163/195/209
f 151/183/210 159/201/210 167/200/210
f 145/180/211 100/117/211 97/119/211
f 149/179/212 104/227/212 100/117/212
f 154/187/213 98/124/213 104/123/213
f 110/140/214 160/190/214 157/192/214
f 116/136/215 164/193/215 160/190/215
f 112/133/216 158/196/216 164/193/216
f 169/204/217 97/119/217 121/152/217
f 111/145/218 122/157/218 99/130/218
f 158/196/219 98/124/219 147/188/219
f 133/167/220 157/192/220 181/216/220
f 134/172/221 170/209/221 123/161/221
f 182/220/222 146/185/222 171/213/222
f 100/117/223 102/121/223 101/118/223
f 100/117/126 104/227/126 105/120/126
f 103/122/224 105/228/224 104/123/224
f 103/125/128 107/129/128 108/126/128
f 106/128/225 108/126/225 107/129/225
f 101/118/130 102/121/130 108/131/130
f 112/133/226 114/137/226 113/134/226
f 116/136/133 117/148/133 114/137/133
f 115/138/227 117/229/227 116/139/227
f 119/141/135 120/147/135 117/142/135
f 118/144/228 120/147/228 119/141/228
f 113/146/137 114/230/137 120/147/137
f 124/150/229 126/154/229 125/151/229
f 128/153/140 129/164/140 126/154/140
f 127/155/230 129/159/230 128/156/230
f 131/158/142 132/231/142 129/159/142
f 130/160/231 132/231/231 131/158/231
f 125/151/144 126/154/144 132/162/144
f 136/165/232 138/232/232 137/166/232
f 140/168/147 141/174/147 138/169/147
f 139/171/233 141/174/233 140/168/233
f 139/171/149 143/176/149 144/173/149
f 142/175/234 144/173/234 143/176/234
f 142/175/151 137/226/151 138/169/151
f 148/178/235 150/182/235 149/179/235
f 148/178/154 152/184/154 153/181/154
f 151/183/236 153/181/236 152/184/236
f 155/186/156 156/189/156 153/181/156
f 154/187/237 156/189/237 155/186/237
f 149/179/158 150/182/158 156/189/158
f 160/190/238 162/194/238 161/191/238
f 164/193/161 165/198/161 162/194/161
f 163/195/239 165/198/239 164/193/239
f 163/195/163 167/200/163 168/197/163
f 166/199/240 168/197/240 167/200/240
f 166/199/165 161/191/165 162/194/165
f 172/202/241 174/206/241 173/203/241
f 172/202/168 176/208/168 177/205/168
f 175/207/242 177/205/242 176/208/242
f 175/207/170 179/212/170 180/210/170
f 178/211/243 180/210/243 179/212/243
f 178/211/172 173/203/172 174/206/172
f 184/214/244 186/218/244 185/215/244
f 188/217/175 189/222/175 186/218/175
f 187/219/245 189/222/245 188/217/245
f 191/221/177 192/225/177 189/222/177
f 190/223/246 192/225/246 191/221/246
f 190/223/179 185/215/179 186/218/179
f 97/119/181 101/118/181 124/150/181
f 101/118/182 106/132/182 128/153/182
f 106/128/183 99/130/183 122/157/183
f 109/135/184 113/134/184 103/122/184
f 113/146/185 118/144/185 107/129/185
f 118/144/186 111/145/186 99/130/186
f 133/167/187 137/166/187 115/138/187
f 137/226/188 142/175/188 119/141/188
f 142/175/189 135/177/189 111/145/189
f 123/161/190 131/158/190 139/171/190
f 131/158/191 127/155/191 143/176/191
f 127/155/192 122/157/192 135/177/192
f 121/152/193 125/151/193 172/202/193
f 125/151/194 130/163/194 176/208/194
f 130/160/195 123/161/195 170/209/195
f 181/216/196 185/215/196 136/165/196
f 185/215/197 190/223/197 140/168/197
f 190/223/198 183/224/198 134/172/198
f 171/213/199 179/212/199 187/219/199
f 179/212/200 175/207/200 191/221/200
f 175/207/201 170/209/201 183/224/201
f 169/204/202 173/203/202 148/178/202
f 173/203/203 178/211/203 152/184/203
f 178/211/204 171/213/204 146/185/204
f 157/192/205 161/191/205 184/214/205
f 161/191/206 166/199/206 188/217/206
f 166/199/207 159/201/207 182/220/207
f 147/188/208 155/186/208 163/195/208
f 155/186/209 151/183/209 167/200/209
f 151/183/210 146/185/210 159/201/210
f 145/180/211 149/179/211 100/117/211
f 149/179/212 154/187/212 104/227/212
f 154/187/213 147/188/213 98/124/213
f 110/140/214 116/139/214 160/190/214
f 116/136/215 112/133/215 164/193/215
f 112/133/216 109/135/216 158/196/216
f 169/204/217 145/180/217 97/119/217
f 111/145/218 135/177/218 122/157/218
f 158/196/219 109/135/219 98/124/219
f 133/167/220 110/140/220 157/192/220
f 134/172/221 183/224/221 170/209/221
f 182/220/222 159/201/222 146/185/222
o Payload_Placeholder.001
v -0.038000 -0.028030 0.032000
v -0.038000 -0.030030 0.034000
v -0.040000 -0.028030 0.034000
v -0.038000 -0.029028 0.032267
v -0.038999 -0.028030 0.032267
v -0.038956 -0.028986 0.032527
v -0.038999 -0.029762 0.034000
v -0.038000 -0.029762 0.033001
v -0.038956 -0.029503 0.033044
v -0.039733 -0.028030 0.033001
v -0.039733 -0.029028 0.034000
v -0.039473 -0.028986 0.033044
v -0.038000 -0.030030 0.070000
v -0.038000 -0.028030 0.072000
v -0.040000 -0.028030 0.070000
v -0.038000 -0.029762 0.070999
v -0.038999 -0.029762 0.070000
v -0.038956 -0.029503 0.070956
v -0.038999 -0.028030 0.071733
v -0.038000 -0.029028 0.071733
v -0.038956 -0.028986 0.071473
v -0.039733 -0.029028 0.070000
v -0.039733 -0.028030 0.070999
v -0.039473 -0.028986 0.070956
v -0.038000 0.027970 0.032000
v -0.040000 0.027970 0.034000
v -0.038000 0.029970 0.034000
v -0.038999 0.027970 0.032267
v -0.038000 0.028969 0.032267
v -0.038956 0.028927 0.032527
v -0.039733 0.028969 0.034000
v -0.039733 0.027970 0.033001
v -0.039473 0.028927 0.033044
v -0.038000 0.029703 0.033001
v -0.038999 0.029703 0.034000
v -0.038956 0.029444 0.033044
v -0.038000 0.027970 0.072000
v -0.038000 0.029970 0.070000
v -0.040000 0.027970 0.070000
v -0.038000 0.028969 0.071733
v -0.038999 0.027970 0.071733
v -0.038956 0.028927 0.071473
v -0.038999 0.029703 0.070000
v -0.038000 0.029703 0.070999
v -0.038956 0.029444 0.070956
v -0.039733 0.027970 0.070999
v -0.039733 0.028969 0.070000
v -0.039473 0.028927 0.070956
v 0.038000 -0.028030 0.032000
v 0.040000 -0.028030 0.034000
v 0.038000 -0.030030 0.034000
v 0.038999 -0.028030 0.032267
v 0.038000 -0.029028 0.032267
v 0.038956 -0.028986 0.032527
v 0.039733 -0.029028 0.034000
v 0.039733 -0.028030 0.033001
v 0.039473 -0.028986 0.033044
v 0.038000 -0.029762 0.033001
v 0.038999 -0.029762 0.034000
v 0.038956 -0.029503 0.033044
v 0.038000 -0.028030 0.072000
v 0.038000 -0.030030 0.070000
v 0.040000 -0.028030 0.070000
v 0.038000 -0.029028 0.071733
v 0.038999 -0.028030 0.071733
v 0.038956 -0.028986 0.071473
v 0.038999 -0.029762 0.070000
v 0.038000 -0.029762 0.070999
v 0.038956 -0.029503 0.070956
v 0.039733 -0.028030 0.070999
v 0.039733 -0.029028 0.070000
v 0.039473 -0.028986 0.070956
v 0.038000 0.027970 0.032000
v 0.038000 0.029970 0.034000
v 0.040000 0.027970 0.034000
v 0.038000 0.028969 0.032267
v 0.038999 0.027970 0.032267
v 0.038956 0.028927 0.032527
v 0.038999 0.029703 0.034000
v 0.038000 0.029703 0.033001
v 0.038956 0.029444 0.033044
v 0.039733 0.027970 0.033001
v 0.039733 0.028969 0.034000
v 0.039473 0.028927 0.033044
v 0.038000 0.027970 0.072000
v 0.040000 0.027970 0.070000
v 0.038000 0.029970 0.070000
v 0.038999 0.027970 0.071733
v 0.038000 0.028969 0.071733
v 0.038956 0.028927 0.071473
v 0.039733 0.028969 0.070000
v 0.039733 0.027970 0.070999
v 0.039473 0.028927 0.070956
v 0.038000 0.029703 0.070999
v 0.038999 0.029703 0.070000
v 0.038956 0.029444 0.070956
vn -0.2502 -0.2502 -0.9353
vn -0.2178 -0.6901 -0.6901
vn -0.2502 -0.9353 -0.2502
vn -0.6901 -0.6901 -0.2178
vn -0.9353 -0.2502 -0.2502
vn -0.6901 -0.2178 -0.6901
vn -0.5773 -0.5773 -0.5774
vn -0.2502 -0.9353 0.2502
vn -0.2178 -0.6901 0.6901
vn -0.2502 -0.2502 0.9353
vn -0.6901 -0.2178 0.6901
vn -0.9353 -0.2502 0.2502
vn -0.6901 -0.6901 0.2178
vn -0.5773 -0.5773 0.5774
vn -0.2502 0.2502 -0.9353
vn -0.6901 0.2178 -0.6901
vn -0.9353 0.2502 -0.2502
vn -0.6901 0.6901 -0.2178
vn -0.2502 0.9353 -0.2502
vn -0.2178 0.6901 -0.6901
vn -0.5773 0.5773 -0.5774
vn -0.2502 0.2502 0.9353
vn -0.2178 0.6901 0.6901
vn -0.2502 0.9353 0.2502
vn -0.6901 0.6901 0.2178
vn -0.9353 0.2502 0.2502
vn -0.6901 0.2178 0.6901
vn -0.5773 0.5773 0.5774
vn 0.2502 -0.2502 -0.9353
vn 0.6901 -0.2178 -0.6901
vn 0.9353 -0.2502 -0.2502
vn 0.6901 -0.6901 -0.2178
vn 0.2502 -0.9353 -0.2502
vn 0.2178 -0.6901 -0.6901
vn 0.5773 -0.5773 -0.5774
vn 0.2502 -0.2502 0.9353
vn 0.2178 -0.6901 0.6901
vn 0.2502 -0.9353 0.2502
vn 0.6901 -0.6901 0.2178
vn 0.9353 -0.2502 0.2502
vn 0.6901 -0.2178 0.6901
vn 0.5773 -0.5773 0.5774
vn 0.2502 0.2502 -0.9353
vn 0.2178 0.6901 -0.6901
vn 0.2502 0.9353 -0.2502
vn 0.6901 0.6901 -0.2178
vn 0.9353 0.2502 -0.2502
vn 0.6901 0.2178 -0.6901
vn 0.5773 0.5773 -0.5774
vn 0.2502 0.2502 0.9353
vn 0.6901 0.2178 0.6901
vn 0.9353 0.2502 0.2502
vn 0.6901 0.6901 0.2178
vn 0.2502 0.9353 0.2502
vn 0.2178 0.6901 0.6901
vn 0.5773 0.5773 0.5774
vn -0.2585 -0.0000 -0.9660
vn -0.7071 -0.0000 -0.7071
vn -0.9660 -0.0000 -0.2585
vn -0.2585 -0.9660 -0.0000
vn -0.7071 -0.7071 -0.0000
vn -0.9660 -0.2585 -0.0000
vn -0.2584 -0.0000 0.9660
vn -0.7071 -0.0000 0.7071
vn -0.9660 -0.0000 0.2585
vn -0.2585 0.9660 -0.0000
vn -0.7071 0.7071 -0.0000
vn -0.9660 0.2585 -0.0000
vn -0.0000 0.2585 -0.9660
vn -0.0000 0.7071 -0.7071
vn -0.0000 0.9660 -0.2585
vn -0.0000 0.2585 0.9660
vn -0.0000 0.7071 0.7071
vn -0.0000 0.9660 0.2585
vn 0.9660 0.2585 -0.0000
vn 0.7071 0.7071 -0.0000
vn 0.2585 0.9660 -0.0000
vn 0.2585 -0.0000 -0.9660
vn 0.7071 -0.0000 -0.7071
vn 0.9660 -0.0000 -0.2585
vn 0.2584 -0.0000 0.9660
vn 0.7071 -0.0000 0.7071
vn 0.9660 -0.0000 0.2585
vn 0.2585 -0.9660 -0.0000
vn 0.7071 -0.7071 -0.0000
vn 0.9660 -0.2585 -0.0000
vn -0.0000 -0.2585 -0.9660
vn -0.0000 -0.7071 -0.7071
vn -0.0000 -0.9660 -0.2585
vn -0.0000 -0.2585 0.9660
vn -0.0000 -0.7071 0.7071
vn -0.0000 -0.9660 0.2585
vn -0.0000 -0.0000 -1.0000
vn -1.0000 -0.0000 -0.0000
vn -0.0000 -1.0000 -0.0000
vn -0.0000 -0.0000 1.0000
vn -0.0000 1.0000 -0.0000
vn 1.0000 -0.0000 -0.0000
vn -0.2635 -0.2635 -0.9280
vn -0.2635 -0.9280 -0.2635
vn -0.9280 -0.2635 -0.2635
vn -0.2635 -0.9280 0.2635
vn -0.2635 -0.2635 0.9280
vn -0.9280 -0.2635 0.2635
vn -0.2635 0.2635 -0.9280
vn -0.9280 0.2635 -0.2635
vn -0.2635 0.9280 -0.2635
vn -0.2635 0.2635 0.9280
vn -0.2635 0.9280 0.2635
vn -0.9280 0.2635 0.2635
vn 0.2635 -0.2635 -0.9280
vn 0.9280 -0.2635 -0.2635
vn 0.2635 -0.9280 -0.2635
vn 0.2635 -0.2635 0.9280
vn 0.2635 -0.9280 0.2635
vn 0.9280 -0.2635 0.2635
vn 0.2635 0.2635 -0.9280
vn 0.2635 0.9280 -0.2635
vn 0.9280 0.2635 -0.2635
vn 0.2635 0.2635 0.9280
vn 0.9280 0.2635 0.2635
vn 0.2635 0.9280 0.2635
vn -0.2585 -0.0000 0.9660
vn 0.2585 -0.0000 0.9660
vt 0.131250 0.745828
vt 0.128129 0.741667
vt 0.131250 0.741667
vt 0.131250 0.750000
vt 0.128261 0.745652
vt 0.387500 1.000000
vt 0.375000 0.993750
vt 0.387500 0.993750
vt 0.387500 0.004172
vt 0.375000 0.000000
vt 0.387500 0.000000
vt 0.375000 0.008333
vt 0.387500 0.008333
vt 0.125000 0.745652
vt 0.125000 0.741667
vt 0.128261 0.750000
vt 0.618742 0.993750
vt 0.612500 1.000000
vt 0.612500 0.993750
vt 0.625000 0.996739
vt 0.618478 0.996739
vt 0.875000 0.741667
vt 0.868750 0.750000
vt 0.868750 0.741667
vt 0.618742 0.008333
vt 0.625000 0.000000
vt 0.625000 0.008333
vt 0.612500 0.004172
vt 0.612500 0.008333
vt 0.618478 0.002195
vt 0.618478 0.004348
vt 0.618478 0.998354
vt 0.128129 0.508333
vt 0.131250 0.504172
vt 0.131250 0.508333
vt 0.125000 0.508333
vt 0.128261 0.504348
vt 0.387500 0.245828
vt 0.375000 0.241667
vt 0.387500 0.241667
vt 0.387500 0.253129
vt 0.375000 0.245652
vt 0.375000 0.256250
vt 0.387500 0.256250
vt 0.131250 0.500000
vt 0.128261 0.500000
vt 0.125000 0.504348
vt 0.868750 0.500000
vt 0.875000 0.508333
vt 0.868750 0.508333
vt 0.625000 0.256250
vt 0.618478 0.253261
vt 0.625000 0.252174
vt 0.612500 0.253129
vt 0.618742 0.256250
vt 0.612500 0.256250
vt 0.612500 0.245828
vt 0.618742 0.241667
vt 0.612500 0.241667
vt 0.625000 0.241667
vt 0.618478 0.247150
vt 0.371871 0.741667
vt 0.368750 0.745828
vt 0.368750 0.741667
vt 0.381258 0.741667
vt 0.371739 0.745652
vt 0.387500 0.745828
vt 0.387500 0.741667
vt 0.387500 0.753129
vt 0.379480 0.745652
vt 0.371875 0.753125
vt 0.387500 0.756250
vt 0.373369 0.751631
vt 0.628125 0.753125
vt 0.628129 0.741667
vt 0.631250 0.741667
vt 0.618478 0.753261
vt 0.626631 0.751631
vt 0.612500 0.753129
vt 0.618742 0.756250
vt 0.612500 0.756250
vt 0.612500 0.745828
vt 0.618742 0.741667
vt 0.612500 0.741667
vt 0.618478 0.747150
vt 0.368750 0.504172
vt 0.371871 0.508333
vt 0.368750 0.508333
vt 0.371875 0.496875
vt 0.371739 0.504348
vt 0.387500 0.496871
vt 0.387500 0.493750
vt 0.387500 0.504172
vt 0.373369 0.498369
vt 0.381258 0.508333
vt 0.387500 0.508333
vt 0.379480 0.504348
vt 0.628129 0.508333
vt 0.628125 0.496875
vt 0.631250 0.508333
vt 0.618742 0.508333
vt 0.624985 0.502446
vt 0.612500 0.504172
vt 0.612500 0.508333
vt 0.618478 0.498103
vt 0.618478 0.504348
vt 0.618742 0.493750
vt 0.612500 0.496871
vt 0.612500 0.493750
vt 0.612500 0.000000
vt 0.625000 0.993750
vt 0.375000 0.996739
vt 0.375000 0.004348
vt 0.871739 0.750000
vt 0.375000 0.253261
vt 0.871739 0.500000
s 0
usemtl Mat_Payload_Blue
f 196/233/247 197/234/247 193/235/247
f 200/236/248 198/237/248 196/233/248
f 199/238/249 200/239/249 194/240/249
f 203/241/250 201/242/250 199/243/250
f 202/244/251 203/241/251 195/245/251
f 197/234/252 204/246/252 202/247/252
f 198/237/253 201/248/253 204/246/253
f 208/249/254 209/250/254 205/251/254
f 208/249/255 213/252/255 210/253/255
f 211/254/256 212/255/256 206/256/256
f 215/257/257 213/258/257 211/259/257
f 214/260/258 215/257/258 207/261/258
f 214/260/259 210/262/259 216/263/259
f 210/253/260 213/252/260 216/264/260
f 220/265/261 221/266/261 217/267/261
f 224/268/262 222/269/262 220/265/262
f 223/270/263 224/271/263 218/272/263
f 227/273/264 225/274/264 223/270/264
f 226/275/265 227/273/265 219/276/265
f 226/277/266 222/269/266 228/278/266
f 222/269/267 225/279/267 228/278/267
f 232/280/268 233/281/268 229/282/268
f 232/283/269 237/284/269 234/285/269
f 235/286/270 236/287/270 230/288/270
f 239/289/271 237/284/271 235/286/271
f 238/290/272 239/289/272 231/291/272
f 233/292/273 240/293/273 238/290/273
f 234/285/274 237/284/274 240/293/274
f 244/294/275 245/295/275 241/296/275
f 248/297/276 246/298/276 244/294/276
f 247/299/277 248/297/277 242/300/277
f 251/301/278 249/302/278 247/299/278
f 250/303/279 251/301/279 243/304/279
f 250/303/280 246/298/280 252/305/280
f 246/298/281 249/302/281 252/305/281
f 256/306/282 257/307/282 253/308/282
f 256/306/283 261/309/283 258/310/283
f 259/311/284 260/312/284 254/313/284
f 263/314/285 261/309/285 259/311/285
f 262/315/286 263/314/286 255/316/286
f 257/307/287 264/317/287 262/315/287
f 258/310/288 261/309/288 264/317/288
f 268/318/289 269/319/289 265/320/289
f 272/321/290 270/322/290 268/318/290
f 271/323/291 272/321/291 266/324/291
f 275/325/292 273/326/292 271/323/292
f 274/327/293 275/325/293 267/328/293
f 274/327/294 270/322/294 276/329/294
f 270/322/295 273/326/295 276/329/295
f 280/330/296 281/331/296 277/332/296
f 284/333/297 282/334/297 280/330/297
f 283/335/298 284/333/298 278/336/298
f 283/335/299 288/337/299 285/338/299
f 286/339/300 287/340/300 279/341/300
f 281/331/301 288/337/301 286/339/301
f 282/334/302 285/338/302 288/337/302
f 193/235/303 220/265/303 217/267/303
f 197/234/304 224/268/304 220/265/304
f 202/244/305 218/272/305 224/271/305
f 205/251/306 199/238/306 194/240/306
f 209/342/307 203/241/307 199/243/307
f 214/260/308 195/245/308 203/241/308
f 229/282/309 211/254/309 206/256/309
f 233/292/310 215/257/310 211/259/310
f 215/257/311 231/291/311 207/261/311
f 219/276/312 235/286/312 230/288/312
f 227/273/313 239/289/313 235/286/313
f 223/270/314 231/291/314 239/289/314
f 217/267/315 268/318/315 265/320/315
f 221/266/316 272/321/316 268/318/316
f 226/275/317 266/324/317 272/321/317
f 277/332/318 232/280/318 229/282/318
f 281/331/319 236/287/319 232/283/319
f 286/339/320 230/288/320 236/287/320
f 267/328/321 283/335/321 278/336/321
f 275/325/322 287/340/322 283/335/322
f 271/323/323 279/341/323 287/340/323
f 265/320/324 244/294/324 241/296/324
f 269/319/325 248/297/325 244/294/325
f 274/327/326 242/300/326 248/297/326
f 253/308/327 280/330/327 277/332/327
f 257/307/328 284/333/328 280/330/328
f 284/333/329 255/316/329 278/336/329
f 243/304/330 259/311/330 254/313/330
f 251/301/331 263/314/331 259/311/331
f 247/299/332 255/316/332 263/314/332
f 241/296/333 196/233/333 193/235/333
f 245/295/334 200/236/334 196/233/334
f 250/303/335 194/240/335 200/239/335
f 206/256/336 256/306/336 253/308/336
f 212/343/337 260/312/337 256/306/337
f 208/249/338 254/313/338 260/312/338
f 265/320/339 193/235/339 217/267/339
f 207/261/340 218/272/340 195/245/340
f 254/313/341 194/240/341 243/304/341
f 229/282/342 253/308/342 277/332/342
f 230/288/343 266/324/343 219/276/343
f 278/336/344 242/300/344 267/328/344
f 196/233/345 198/237/345 197/234/345
f 200/236/248 201/248/248 198/237/248
f 199/238/346 201/344/346 200/239/346
f 203/241/250 204/345/250 201/242/250
f 202/244/347 204/345/347 203/241/347
f 197/234/252 198/237/252 204/246/252
f 208/249/348 210/253/348 209/250/348
f 208/249/255 212/343/255 213/252/255
f 211/254/349 213/346/349 212/255/349
f 215/257/257 216/263/257 213/258/257
f 214/260/350 216/263/350 215/257/350
f 214/260/259 209/342/259 210/262/259
f 220/265/351 222/269/351 221/266/351
f 224/268/262 225/279/262 222/269/262
f 223/270/352 225/274/352 224/271/352
f 227/273/264 228/347/264 225/274/264
f 226/275/353 228/347/353 227/273/353
f 226/277/266 221/266/266 222/269/266
f 232/280/354 234/348/354 233/281/354
f 232/283/269 236/287/269 237/284/269
f 235/286/355 237/284/355 236/287/355
f 239/289/271 240/293/271 237/284/271
f 238/290/356 240/293/356 239/289/356
f 233/292/273 234/285/273 240/293/273
f 244/294/357 246/298/357 245/295/357
f 248/297/276 249/302/276 246/298/276
f 247/299/358 249/302/358 248/297/358
f 251/301/278 252/305/278 249/302/278
f 250/303/359 252/305/359 251/301/359
f 250/303/280 245/295/280 246/298/280
f 256/306/360 258/310/360 257/307/360
f 256/306/283 260/312/283 261/309/283
f 259/311/361 261/309/361 260/312/361
f 263/314/285 264/317/285 261/309/285
f 262/315/362 264/317/362 263/314/362
f 257/307/287 258/310/287 264/317/287
f 268/318/363 270/322/363 269/319/363
f 272/321/290 273/326/290 270/322/290
f 271/323/364 273/326/364 272/321/364
f 275/325/292 276/329/292 273/326/292
f 274/327/365 276/329/365 275/325/365
f 274/327/294 269/319/294 270/322/294
f 280/330/366 282/334/366 281/331/366
f 284/333/297 285/338/297 282/334/297
f 283/335/367 285/338/367 284/333/367
f 283/335/299 287/340/299 288/337/299
f 286/339/368 288/337/368 287/340/368
f 281/331/301 282/334/301 288/337/301
f 193/235/303 197/234/303 220/265/303
f 197/234/304 202/247/304 224/268/304
f 202/244/305 195/245/305 218/272/305
f 205/251/306 209/250/306 199/238/306
f 209/342/307 214/260/307 203/241/307
f 214/260/308 207/261/308 195/245/308
f 229/282/369 233/281/369 211/254/369
f 233/292/310 238/290/310 215/257/310
f 215/257/311 238/290/311 231/291/311
f 219/276/312 227/273/312 235/286/312
f 227/273/313 223/270/313 239/289/313
f 223/270/314 218/272/314 231/291/314
f 217/267/315 221/266/315 268/318/315
f 221/266/316 226/277/316 272/321/316
f 226/275/317 219/276/317 266/324/317
f 277/332/318 281/331/318 232/280/318
f 281/331/319 286/339/319 236/287/319
f 286/339/320 279/341/320 230/288/320
f 267/328/321 275/325/321 283/335/321
f 275/325/322 271/323/322 287/340/322
f 271/323/323 266/324/323 279/341/323
f 265/320/324 269/319/324 244/294/324
f 269/319/325 274/327/325 248/297/325
f 274/327/326 267/328/326 242/300/326
f 253/308/370 257/307/370 280/330/370
f 257/307/328 262/315/328 284/333/328
f 284/333/329 262/315/329 255/316/329
f 243/304/330 251/301/330 259/311/330
f 251/301/331 247/299/331 263/314/331
f 247/299/332 242/300/332 255/316/332
f 241/296/333 245/295/333 196/233/333
f 245/295/334 250/303/334 200/236/334
f 250/303/335 243/304/335 194/240/335
f 206/256/336 212/255/336 256/306/336
f 212/343/337 208/249/337 260/312/337
f 208/249/338 205/251/338 254/313/338
f 265/320/339 241/296/339 193/235/339
f 207/261/340 231/291/340 218/272/340
f 254/313/341 205/251/341 194/240/341
f 229/282/342 206/256/342 253/308/342
f 230/288/343 279/341/343 266/324/343
f 278/336/344 255/316/344 242/300/344
